<?xml version="1.0" encoding="iso-8859-1"?>
<!-- Generator: Adobe Illustrator 19.0.0, SVG Export Plug-In . SVG Version: 6.00 Build 0)  -->
<svg version="1.1" id="Capa_1" xmlns="http://www.w3.org/2000/svg" xmlns:xlink="http://www.w3.org/1999/xlink" x="0px" y="0px"
	 viewBox="0 0 512 512" style="enable-background:new 0 0 512 512;" xml:space="preserve">
<g transform="matrix(1.25 0 0 -1.25 0 45)">
	<g>
		<g>
			<path id="SVGCleanerId_0" style="fill:#E41E20;" d="M409.6-271.2c0-25.134-20.378-45.511-45.511-45.511H45.511
				C20.378-316.711,0-296.334,0-271.2v204.8c0,25.134,20.378,45.511,45.511,45.511h318.578c25.134,0,45.511-20.378,45.511-45.511
				V-271.2z"/>
		</g>
	</g>
	<g>
		<g>
			<g>
				<path id="SVGCleanerId_0_1_" style="fill:#E41E20;" d="M409.6-271.2c0-25.134-20.378-45.511-45.511-45.511H45.511
					C20.378-316.711,0-296.334,0-271.2v204.8c0,25.134,20.378,45.511,45.511,45.511h318.578c25.134,0,45.511-20.378,45.511-45.511
					V-271.2z"/>
			</g>
		</g>
	</g>
	<g>
		<g>
			<path d="M234.246-84.138c-1.115,0-2.207-0.068-3.186-0.671c-1.058-0.637-1.092-1.582-0.08-2.264
				c1.468-0.99,4.915-0.956,6.315,0.057c1.035,0.74,1.013,1.638-0.08,2.253C236.294-84.229,235.27-84.138,234.246-84.138
				 M173.773-84.138c-0.626,0.011-1.616-0.091-2.526-0.546c-0.478-0.239-0.933-0.569-0.956-1.172
				c-0.011-0.603,0.398-1.001,0.887-1.24c2.002-0.978,4.05-1.001,6.042-0.034c1.206,0.592,1.172,1.684,0.011,2.367
				C176.276-84.206,175.229-84.138,173.773-84.138 M141.141-208.326c-3.641,0.25-7.077,0.444-10.502,0.671
				c-0.296,0.023-0.546-0.034-0.785-0.228c-2.002-1.616-4.176-1.559-6.428-0.637c-0.125,0.057-0.262,0.091-0.375,0.171
				c-1.775,1.104-3.561,2.048-5.689,0.614c0.592,1.627,1.673,2.423,3.197,2.628c0.421,0.057,0.808,0.091,1.138,0.455
				c2.651,2.913,5.382,2.503,7.987,0.068c0.887-0.819,1.741-1.161,2.913-1.126c2.799,0.046,5.609,0.011,8.42,0.011
				c0.023-0.102,0.034,0.034-0.023,0.08c-1.422,1.331-2.879,2.64-4.278,4.005c-0.466,0.455-0.91,0.558-1.513,0.375
				c-0.933-0.307-1.889-0.33-2.856-0.228c-1.593,0.159-2.879,0.933-3.561,2.367c-0.956,2.037-2.617,2.799-4.676,2.981
				c-0.125,0.011-0.25,0.046-0.523,0.102c1.32,1.331,2.81,1.741,4.437,1.24c1.343-0.41,2.537-0.603,3.959-0.148
				c1.82,0.603,3.015-0.091,3.686-1.923c0.455-1.263,1.24-2.059,2.321-2.742c2.367-1.502,4.688-3.083,7.009-4.654
				c0.512-0.353,0.956-0.41,1.57-0.262c5.723,1.547,11.457,3.038,17.192,4.551c0.307,0.068,0.603,0.159,0.899,0.273
				c0.034,0.421-0.296,0.558-0.512,0.774c-1.058,1.092-2.162,2.162-3.22,3.265c-0.978,0.99-0.694,2.105,0.637,2.503
				c1.126,0.319,2.264,0.58,3.413,0.853c9.341,2.207,15.246,8.044,18.091,17.112c0.319,1.001,0.489,2.014,0.182,3.049
				c-0.205,0.649-0.592,1.161-1.297,1.286c-0.705,0.137-1.263-0.228-1.616-0.796c-0.353-0.558-0.626-1.183-0.887-1.798
				c-1.684-4.05-3.903-7.657-7.6-10.183c-1.308-0.887-2.697-0.865-4.073-0.319c-1.013,0.398-1.172,1.172-0.558,2.071
				c0.319,0.478,0.751,0.865,1.217,1.161c3.095,2.173,4.46,5.359,5.234,8.886c0.33,1.468-0.626,3.004-1.968,3.322
				c-1.263,0.33-2.651-0.603-3.129-2.105c-0.649-2.071-1.195-4.164-1.934-6.201c-1.741-4.767-4.983-8.203-9.569-10.354
				c-1.775-0.831-3.436-0.375-4.836,0.899c-1.183,1.07-1.149,2.412,0,3.527c0.546,0.523,1.206,0.853,1.889,1.149
				c3.265,1.434,6.155,3.311,7.703,6.69c0.933,2.071,1.195,4.244,0.785,6.451c-0.284,1.479-1.161,1.843-2.514,1.172
				c-0.671-0.33-1.206-0.853-1.707-1.422c-5.598-6.144-11.139-12.345-17.135-18.125c-3.891-3.766-10.502-5.291-16.077-1.013
				c-0.876,0.671-1.456,1.547-1.809,2.583c-0.683,2.002,0.33,3.482,2.446,3.573c0.774,0.046,1.547-0.102,2.332-0.148
				c6.019-0.284,11.116,1.855,15.497,5.894c3.425,3.152,6.155,6.884,8.613,10.798c0.74,1.183,1.217,2.492,1.183,3.925
				c-0.011,1.035-0.512,1.331-1.445,0.853c-0.751-0.364-1.286-0.99-1.809-1.627c-3.891-4.756-8.511-8.567-14.29-10.798
				c-3.049-1.195-6.212-1.786-9.489-0.978c-2.526,0.614-4.392,3.959-3.652,6.463c0.319,1.126,1.308,1.638,2.64,1.286
				c1.536-0.41,3.083-0.819,4.688-0.91c4.801-0.262,9,1.365,12.8,4.142c3.152,2.298,5.825,5.109,8.215,8.169
				c0.865,1.081,1.183,2.423,1.161,3.8c-0.034,1.365-0.853,1.911-2.162,1.536c-0.66-0.193-1.195-0.592-1.729-1.024
				c-4.483-3.527-9.182-6.69-14.711-8.397c-1.877-0.569-3.8-0.899-5.78-0.558c-2.651,0.455-4.779,2.617-4.995,5.109
				c-0.216,2.48,1.24,3.925,3.721,3.709c0.956-0.068,1.911-0.182,2.867-0.273c5.302-0.501,9.933,1.149,14.108,4.335
				c2.105,1.616,4.176,3.3,6.19,5.052c0.671,0.58,1.149,1.263,1.286,2.139c0.091,0.501,0.114,1.024-0.33,1.388
				c-0.455,0.364-0.944,0.205-1.411,0.023c-0.239-0.102-0.444-0.228-0.66-0.375c-4.87-3.061-10.16-5.006-15.906-5.643
				c-1.991-0.228-3.982-0.182-5.928,0.341c-2.287,0.603-3.664,2.094-4.039,4.437c-0.353,2.253,1.149,3.937,3.322,3.789
				c0.774-0.057,1.57-0.159,2.253-0.569c4.392-2.64,8.818-2.139,13.266-0.205c3.186,1.365,6.098,3.209,8.932,5.166
				c0.603,0.398,1.07,0.944,1.343,1.627c0.341,0.865,0.284,1.684-0.41,2.355c-0.683,0.649-1.479,0.649-2.276,0.262
				c-1.661-0.831-3.3-1.673-5.029-2.332c-3.595-1.331-7.27-2.15-11.139-1.968c-5.37,0.239-9.523,3.63-10.422,8.545
				c-0.114,0.637-0.114,1.263,0.057,1.9c0.375,1.308,1.365,1.9,2.685,1.604c0.933-0.205,1.729-0.671,2.423-1.286
				c5.257-4.562,11.071-5.006,17.306-2.412c1.786,0.728,3.356,1.843,5.018,2.799c0.125,0.068,0.228,0.171,0.33,0.273
				c0.876,0.865,1.411,2.401,0.967,3.083c-0.717,1.092-1.855,0.74-2.822,0.546c-4.13-0.853-8.283-1.24-12.504-0.762
				c-3.083,0.341-6.053,1.138-8.715,2.856c-2.423,1.57-3.903,3.777-4.585,6.554c-0.239,0.944-0.171,1.9,0.296,2.81
				c0.694,1.388,1.991,1.923,3.459,1.377c0.785-0.296,1.456-0.774,2.037-1.343c3.925-3.857,8.761-5.382,14.12-5.609
				c1.695-0.068,3.402-0.057,5.12-0.046c1.081,0.011,1.991,0.478,2.674,1.32c0.671,0.808,0.842,1.729,0.432,2.697
				s-1.217,1.536-2.241,1.547c-6.702,0.091-12.595,2.64-18.17,6.03c-3.777,2.287-6.736,5.336-8.112,9.671
				c-0.649,2.025-0.319,3.937,0.831,5.7c1.604,2.423,3.789,2.389,5.291-0.102c1.32-2.162,2.81-4.187,4.619-5.962
				c4.904-4.801,10.672-7.942,17.488-9.068c0.592-0.102,0.922-0.011,1.217,0.523c0.284,0.523,0.694,0.967,1.172,1.354
				c0.603,0.489,1.263,0.626,1.991,0.341c6.895-2.685,13.562-5.825,20.059-9.364c0.558-0.307,0.774-0.774,0.785-1.399
				c0-1.161-0.33-2.253-0.694-3.322c-0.717-2.071-0.592-4.142,0.034-6.178c1.013-3.391,3.345-4.915,7.122-4.813
				c2.856,0.068,5.188,2.662,5.666,5.894c0.569,3.857-0.501,7.225-2.844,10.274c-3.584,4.631-8.26,7.487-13.961,8.738
				c-2.822,0.603-5.609,1.274-8.42,1.911c-1.422,0.33-2.81,0.762-3.994,1.661c-0.535,0.421-1.035,0.853-1.104,1.729
				c1.126-0.205,2.128-0.637,3.14-1.013c2.458-0.899,4.654-0.512,6.702,1.24c-0.558,0.33-1.092,0.228-1.593,0.193
				c-3.527-0.228-7.031-0.148-10.49,0.66c-1.798,0.421-3.459,1.058-4.745,2.446c-0.466,0.501-0.899,1.024-1.104,1.684
				c-0.239,0.808-0.33,1.684,0.432,2.241c0.785,0.58,1.479,0.046,2.116-0.432c0.353-0.284,0.705-0.603,0.967-0.978
				c2.139-2.958,5.268-3.812,8.647-4.085c1.456-0.114,2.924-0.171,4.346,0.25c-0.785,1.764-4.164,3.766-6.007,3.55
				c-1.149-0.125-1.82-0.978-2.594-1.741c-0.626,2.207,0.353,4.062,2.469,4.733c1.741,0.546,3.516,0.387,5.279,0.148
				c0.501-0.068,0.728-0.046,0.922,0.501c0.364,0.978,1.286,1.377,2.185,1.718c3.516,1.286,6.997,1.126,10.411-0.25
				c4.722-1.911,9.637-2.935,14.859-3.413c-1.673-1.707-3.675-2.753-5.564-4.21c3.345-1.434,6.11-3.447,8.476-6.565h-5.404
				c-0.023-0.125-0.046-0.25-0.068-0.375c3.243-1.126,6.645-1.934,9.125-4.745c-0.853-0.193-1.593-0.353-2.332-0.546
				c-0.694-0.171-0.967-0.501-0.33-1.07c2.207-1.923,4.028-4.21,6.042-6.303c0.398-0.41,0.66-0.649,1.183-0.102
				c2.048,2.162,3.925,4.494,6.178,6.474c0.512,0.444,0.375,0.796-0.25,0.956c-0.785,0.205-1.57,0.387-2.458,0.592
				c1.229,1.411,2.674,2.355,4.289,3.015c1.57,0.637,3.186,1.172,4.79,1.741c0,0.102,0.023,0.193,0.023,0.296h-5.166
				c-0.023,0.125-0.046,0.25-0.068,0.364c2.139,2.81,4.881,4.836,8.272,6.269c-1.889,1.445-3.857,2.514-5.552,4.142
				c1.946,0.284,3.789,0.489,5.621,0.819c3.095,0.546,6.076,1.411,8.988,2.583c3.288,1.343,6.69,1.627,10.115,0.512
				c1.161-0.387,2.389-0.808,2.822-2.185c0.148-0.512,0.512-0.239,0.774-0.205c1.49,0.159,2.97,0.319,4.471,0.057
				c2.594-0.444,3.846-2.207,3.379-4.813c-0.33-0.114-0.41,0.205-0.558,0.353c-1.354,1.388-2.446,1.627-4.233,0.887
				c-1.57-0.66-2.81-1.752-4.073-3.061c0.614-0.284,1.149-0.364,1.707-0.398c2.105-0.137,4.187,0.08,6.224,0.603
				c1.798,0.444,3.368,1.286,4.562,2.753c0.626,0.774,1.252,1.559,2.139,2.071c1.24,0.728,2.196,0.159,2.207-1.263
				c0.011-0.626-0.228-1.172-0.557-1.695c-1.559-2.344-3.971-3.015-6.531-3.55c-3.106-0.637-6.212-0.58-9.33-0.421
				c-0.512,0.023-1.024,0-1.559-0.137c1.513-1.354,3.174-2.15,5.211-1.638c1.502,0.375,2.958,0.887,4.551,1.365
				c-0.102-0.899-0.592-1.354-1.161-1.775c-1.764-1.297-3.834-1.593-5.894-2.059c-3.8-0.865-7.669-1.536-11.287-3.049
				c-4.801-1.991-8.397-5.393-10.854-9.944c-1.434-2.662-1.661-5.564-0.922-8.499c0.728-2.833,3.026-4.824,5.609-4.938
				c3.197-0.137,5.689,1.399,6.758,4.289c0.819,2.196,1.001,4.415,0.25,6.69c-0.353,1.035-0.671,2.082-0.705,3.209
				c-0.023,0.74,0.228,1.263,0.922,1.638c6.394,3.47,12.982,6.576,19.763,9.227c1.206,0.466,2.082,0.159,3.027-1.263
				c0.523-0.796,1.013-1.024,1.968-0.831c9,1.798,16.043,6.474,21.094,14.108c0.341,0.512,0.626,1.047,1.001,1.513
				c1.183,1.513,2.753,1.65,4.107,0.284c1.616-1.627,2.219-3.641,1.718-5.871c-0.626-2.822-2.082-5.257-4.221-7.145
				c-6.144-5.416-13.278-8.624-21.527-9.193c-1.843-0.114-2.958-0.853-3.118-2.241c-0.159-1.536,0.978-3.186,2.708-3.265
				c6.622-0.319,13.13-0.102,18.591,4.46c0.637,0.546,1.263,1.149,1.923,1.673c1.434,1.104,2.776,1.286,3.823,0.558
				c1.161-0.774,1.673-2.56,1.252-4.13c-1.24-4.676-4.585-7.1-8.954-8.385c-5.495-1.604-11.025-1.252-16.555-0.159
				c-0.535,0.102-1.058,0.182-1.582,0.182c-1.399,0.011-1.957-0.751-1.547-2.082c0.387-1.229,1.297-1.923,2.378-2.583
				c2.139-1.32,4.301-2.469,6.736-3.118c5.257-1.422,9.99-0.421,14.165,3.061c0.831,0.694,1.673,1.32,2.742,1.582
				c1.377,0.319,2.378-0.284,2.753-1.65c0.171-0.592,0.171-1.183,0.046-1.798c-0.751-4.358-4.107-7.612-8.67-8.374
				c-4.346-0.717-8.476,0.171-12.538,1.638c-1.707,0.603-3.334,1.399-4.938,2.23c-1.331,0.671-2.264,0.58-2.901-0.239
				c-0.671-0.865-0.569-2.094,0.375-3.095c1.172-1.217,2.662-2.002,4.085-2.879c2.81-1.752,5.712-3.3,8.943-4.13
				c3.288-0.853,6.417-0.569,9.387,1.092c0.717,0.41,1.491,0.637,2.31,0.774c2.526,0.387,4.233-1.354,3.766-3.88
				c-0.421-2.31-1.809-3.732-4.073-4.301c-3.3-0.842-6.554-0.41-9.808,0.33c-4.233,0.956-8.169,2.594-11.844,4.904
				c-0.671,0.432-1.388,1.013-2.219,0.387c-0.558-0.387-0.432-1.638,0.171-2.56c0.159-0.273,0.375-0.523,0.614-0.728
				c2.708-2.367,5.473-4.654,8.465-6.645c4.028-2.662,8.442-3.356,13.141-2.833c0.933,0.102,1.832,0.273,2.776,0.159
				c1.616-0.205,2.594-1.252,2.697-2.89c0.216-2.822-2.037-5.45-5.04-5.916c-3.243-0.512-6.178,0.535-9.068,1.809
				c-4.164,1.82-7.896,4.335-11.412,7.179c-0.649,0.523-1.308,0.978-2.162,1.07c-0.944,0.114-1.525-0.296-1.65-1.24
				c-0.171-1.468,0.148-2.901,1.035-4.039c3.038-3.914,6.463-7.464,10.843-9.944c4.54-2.549,9.318-3.277,14.359-1.741
				c2.389,0.728,3.652-0.273,3.277-2.788c-0.557-3.686-1.934-4.665-4.904-5.029c-4.05-0.501-7.737,0.66-11.253,2.526
				c-4.471,2.355-8.203,5.586-11.355,9.512c-0.489,0.626-1.013,1.183-1.729,1.547c-0.99,0.523-1.49,0.25-1.525-0.865
				c-0.011-1.32,0.41-2.549,1.092-3.641c2.822-4.597,5.996-8.897,10.24-12.311c4.494-3.618,9.637-5.154,15.406-4.483
				c1.217,0.137,2.401,0.034,3.174-1.07c0.785-1.104,0.421-2.264-0.182-3.311c-1.434-2.48-3.857-3.538-6.485-4.05
				c-4.267-0.842-8.09,0.421-11.139,3.413c-5.951,5.769-11.48,11.935-17.055,18.057c-0.489,0.535-1.001,1.035-1.65,1.354
				c-1.388,0.717-2.287,0.364-2.537-1.206c-0.501-3.026,0.08-5.848,1.946-8.351c1.695-2.253,4.039-3.664,6.576-4.756
				c0.751-0.319,1.479-0.705,2.025-1.32c0.922-1.001,0.922-2.162,0.011-3.163c-1.161-1.354-3.243-1.866-4.949-1.081
				c-4.631,2.105-7.873,5.564-9.626,10.32c-0.74,1.991-1.286,4.05-1.911,6.087c-0.512,1.661-1.889,2.617-3.22,2.253
				c-1.456-0.398-2.241-2.037-1.843-3.686c0.831-3.573,2.412-6.667,5.507-8.806c0.717-0.489,1.468-1.138,1.149-2.105
				c-0.33-0.979-1.331-1.07-2.219-1.149c-1.058-0.102-2.002,0.125-2.901,0.774c-3.561,2.537-5.723,6.053-7.384,10.001
				c-0.25,0.614-0.523,1.24-0.876,1.809c-0.33,0.558-0.876,0.956-1.593,0.842c-0.751-0.114-1.138-0.649-1.354-1.354
				c-0.296-1.047-0.102-2.037,0.216-3.026c2.822-8.988,8.681-14.814,17.909-17.044c1.183-0.307,2.355-0.535,3.516-0.876
				c1.411-0.398,1.695-1.525,0.66-2.56c-1.263-1.263-2.56-2.514-4.005-3.948c2.628-0.717,4.972-1.354,7.327-1.968
				c3.698-0.979,7.43-1.911,11.127-2.913c0.569-0.159,1.013-0.091,1.479,0.239c2.708,1.832,5.427,3.641,8.158,5.439
				c0.523,0.33,0.728,0.842,0.922,1.354c1.07,2.719,2.332,3.311,5.074,2.264c0.614-0.239,1.104-0.125,1.695,0.114
				c1.968,0.785,3.846,0.796,5.598-0.887c-0.728-0.148-1.343-0.205-1.946-0.364c-1.343-0.364-2.401-1.081-3.072-2.423
				c-1.161-2.321-3.334-3.243-6.235-2.537c-0.956,0.228-1.582,0.046-2.23-0.614c-1.308-1.286-2.685-2.537-4.016-3.812
				c0.159-0.319,0.444-0.193,0.671-0.182c2.947,0.08,5.905,0.182,8.841,0.25c0.546,0.011,0.933,0.171,1.308,0.569
				c0.58,0.637,1.24,1.161,1.968,1.604c2.162,1.308,4.119,1.195,5.951-0.535c0.66-0.614,1.331-1.058,2.264-1.195
				c1.343-0.193,2.173-1.092,2.753-2.264c-0.114-0.057-0.171-0.137-0.216-0.114c-1.752,0.796-3.3,0.58-4.995-0.444
				c-2.389-1.434-4.961-1.741-7.35,0.216c-0.296,0.205-0.58,0.193-0.899,0.182c-3.368-0.228-6.736-0.444-10.251-0.671
				c0.398-0.649,1.024-0.831,1.525-1.161c1.729-1.161,3.425-1.843,5.746-1.468c3.402,0.58,5.621-1.149,6.667-4.449
				c0.523-1.684,1.24-3.334,1.24-5.154c0-0.501,0-0.978-0.114-1.49c-0.603,1.206-1.161,2.412-2.207,3.322
				c-0.489,0.444-0.956,0.705-1.707,0.501c-0.842-0.228-1.741-0.319-2.64-0.182c-2.162,0.296-3.345,1.308-3.743,3.436
				c-0.125,0.717-0.478,1.058-1.013,1.388c-1.286,0.785-2.674,1.286-4.05,1.889c-0.899,0.398-1.866,0.728-2.662,1.297
				c-0.887,0.649-1.627,0.592-2.56,0.228c-1.616-0.603-3.277-1.115-4.938-1.638c-0.501-0.182-0.831-0.41-1.058-0.922
				c-1.115-2.48-3.083-3.527-5.769-3.14c-0.364,0.046-0.705,0.148-1.058,0.137c-2.401-0.08-3.812-0.114-4.187-3.015
				c-1.081,1.274-1.035,3.14,0.273,4.471c0.831,0.853,1.547,1.707,2.196,2.708c0.99,1.559,2.674,2.025,4.494,1.286
				c0.74-0.319,1.32-0.262,2.025,0.023c1.638,0.671,3.083,1.729,5.018,2.298c-2.48,0.865-4.801,1.445-7.134,1.968
				c-3.664,0.853-7.339,1.638-10.934,2.776c-0.569,0.182-0.978,0.046-1.411-0.375c-1.263-1.149-2.549-2.264-3.846-3.356
				c-1.399-1.206-2.276-1.092-3.3,0.432c-2.458,3.664-4.369,7.634-6.758,11.344c-1.627,2.514-3.664,4.699-5.814,6.77
				c-0.614,0.603-1.308,1.104-2.082,1.468c-2.219,1.092-4.221,0.319-5.052-2.025c-0.774-2.173-0.478-4.38,0.205-6.497
				c1.843-5.586,5.177-10.149,9.865-13.699c1.32-1.013,2.776-1.855,4.164-2.765c1.855-1.183,3.88-1.536,6.03-1.138
				c1.479,0.25,2.958,0.33,4.403-0.296c1.638-0.694,1.98-1.843,0.899-3.277c-0.58-0.74-1.24-1.343-2.116-1.718
				c-2.207-0.944-4.46-1.411-6.861-1.07c-1.252,0.159-2.264,0.796-3.197,1.57c-1.104,0.899-2.15,1.866-3.209,2.799
				c-0.933,0.808-1.911,0.887-2.697,0.205c-0.751-0.637-0.967-1.809-0.239-2.708c3.243-4.028,6.758-7.612,12.436-7.805
				c0.637-0.011,1.286-0.216,1.877-0.432c1.673-0.671,1.9-2.014,0.466-3.174c-1.843-1.479-3.982-1.946-6.303-1.616
				c-3.106,0.455-5.518,2.15-7.726,4.233c-0.865,0.808-1.661,1.65-2.537,2.446c-0.375,0.364-0.876,0.683-1.434,0.375
				c-0.489-0.262-0.512-0.808-0.558-1.297c-0.137-1.377,0.489-2.56,0.99-3.766c1.718-4.153,4.585-6.645,9.318-6.576
				c1.877,0.023,2.537-1.411,1.502-3.015c-1.832-2.788-5.791-3.47-8.567-1.434c-2.674,1.946-4.187,4.756-5.575,7.657
				c-0.228,0.478-0.444,0.967-0.808,1.377c-0.717,0.785-1.525,0.762-2.15-0.08c-0.649-0.853-0.899-1.843-0.899-2.913
				c-0.034-3.254,1.286-5.996,3.356-8.397c0.956-1.115,1.968-2.173,3.095-3.095c0.603-0.489,0.637-0.831,0.205-1.468
				c-3.22-4.79-6.372-9.591-9.557-14.393c-0.762-1.149-1.513-2.321-2.241-3.493c-0.273-0.455-0.466-0.546-0.808-0.023
				c-3.948,6.019-7.919,12.038-11.913,18.045c-0.341,0.546-0.273,0.831,0.193,1.217c1.638,1.422,3.186,2.97,4.403,4.779
				c1.354,1.991,2.105,4.153,2.173,6.588c0.011,0.569-0.046,1.138-0.228,1.684c-0.284,0.91-0.558,1.957-1.707,2.059
				c-1.126,0.102-1.479-0.933-1.877-1.752c-1.377-2.901-2.901-5.712-5.53-7.714c-2.606-1.991-6.064-1.627-8.249,0.831
				c-0.216,0.239-0.398,0.489-0.558,0.785c-0.808,1.445-0.182,2.64,1.479,2.753c0.99,0.068,1.991,0.068,2.958,0.307
				c1.968,0.489,3.561,1.559,4.779,3.186c1.206,1.604,2.014,3.413,2.571,5.348c0.284,0.933,0.546,2.162-0.398,2.742
				c-0.967,0.603-1.673-0.444-2.287-1.081c-1.525-1.536-3.049-3.083-4.927-4.21c-2.992-1.786-6.098-2.492-9.432-0.967
				c-0.683,0.319-1.32,0.694-1.798,1.297c-0.819,0.979-0.626,1.934,0.501,2.549c0.683,0.398,1.456,0.626,2.23,0.637
				c3.334,0.057,6.098,1.434,8.556,3.584c1.354,1.161,2.549,2.48,3.698,3.846c0.341,0.41,0.58,0.876,0.626,1.434
				c0.068,0.819-0.239,1.468-0.956,1.877c-0.728,0.387-1.468,0.33-2.094-0.193c-0.796-0.66-1.593-1.308-2.298-2.071
				c-2.913-3.072-6.372-3.186-10.115-1.923c-1.343,0.466-2.526,1.104-3.345,2.31c-0.899,1.343-0.614,2.435,0.865,3.083
				c1.422,0.649,2.901,0.649,4.38,0.364c2.321-0.444,4.392,0.08,6.428,1.263c5.848,3.368,10.286,7.987,13.005,14.199
				c1.115,2.526,1.752,5.12,1.183,7.873c-0.649,3.152-3.152,4.221-5.86,2.423c-2.947-1.991-5.143-4.767-7.145-7.68
				c-2.048-3.026-3.641-6.337-5.564-9.444c-0.478-0.74-0.956-1.513-1.445-2.253c-0.865-1.297-1.786-1.456-3.004-0.466
				c-1.388,1.183-2.731,2.389-4.073,3.584c-0.375,0.341-0.705,0.523-1.229,0.375c-5.018-1.604-10.206-2.492-15.269-3.868
				c-0.922-0.25-1.832-0.546-2.981-0.91c1.752-0.558,3.106-1.399,4.528-2.094c0.922-0.444,1.775-0.614,2.833-0.171
				c1.752,0.694,3.425,0.068,4.392-1.582c0.512-0.865,1.126-1.582,1.843-2.287c1.434-1.377,1.582-3.197,0.421-4.756
				c-0.216,0.967-0.159,2.002-1.126,2.526c-1.104,0.603-2.298,0.694-3.527,0.535c-3.459-0.455-4.813,0.216-6.451,3.288
				c-0.193,0.364-0.466,0.501-0.808,0.603c-1.946,0.66-3.903,1.32-5.848,1.98c-0.341,0.114-0.66,0.228-1.001-0.011
				c-1.638-1.195-3.55-1.775-5.37-2.583c-0.58-0.262-1.138-0.58-1.718-0.853c-0.796-0.375-1.308-0.887-1.502-1.866
				c-0.444-2.15-1.923-3.209-4.255-3.231c-0.387,0-0.808-0.034-1.161,0.102c-1.957,0.683-2.97-0.455-3.834-1.9
				c-0.341-0.58-0.592-1.195-0.91-1.798c-0.228,0.182-0.148,0.41-0.159,0.603c-0.102,2.856,0.796,5.473,2.128,7.919
				c1.297,2.378,3.675,3.106,6.155,2.571c1.855-0.375,3.265,0.023,4.676,1.07C139.514-209.385,140.368-209.123,141.141-208.326"/>
			<g>
				<path style="fill:#DD2E44;" d="M173.773-84.138c1.456,0,2.514-0.068,3.47-0.626c1.149-0.683,1.195-1.775-0.011-2.367
					c-2.002-0.967-4.05-0.944-6.053,0.034c-0.478,0.239-0.887,0.637-0.876,1.24c0.011,0.603,0.466,0.933,0.956,1.172
					C172.169-84.229,173.147-84.127,173.773-84.138"/>
				<path style="fill:#DD2E44;" d="M234.246-84.138c1.024,0,2.048-0.091,2.97-0.626c1.092-0.614,1.115-1.513,0.08-2.253
					c-1.399-1.013-4.847-1.047-6.315-0.057c-1.013,0.683-0.979,1.627,0.08,2.264C232.038-84.206,233.131-84.138,234.246-84.138"/>
			</g>
		</g>
	</g>
</g>
<g>
</g>
<g>
</g>
<g>
</g>
<g>
</g>
<g>
</g>
<g>
</g>
<g>
</g>
<g>
</g>
<g>
</g>
<g>
</g>
<g>
</g>
<g>
</g>
<g>
</g>
<g>
</g>
<g>
</g>
</svg>
