<?xml version="1.0" encoding="iso-8859-1"?>
<!-- Generator: Adobe Illustrator 19.0.0, SVG Export Plug-In . SVG Version: 6.00 Build 0)  -->
<svg version="1.1" id="Capa_1" xmlns="http://www.w3.org/2000/svg" xmlns:xlink="http://www.w3.org/1999/xlink" x="0px" y="0px"
	 viewBox="0 0 512 512" style="enable-background:new 0 0 512 512;" xml:space="preserve">
<g transform="matrix(1.25 0 0 -1.25 0 45)">
	<g>
		<g>
			<path style="fill:#006233;" d="M45.511-20.889C20.378-20.889,0-41.266,0-66.4v-204.8c0-25.134,20.378-45.511,45.511-45.511H204.8
				v295.822H45.511z"/>
			<path style="fill:#EEEEEE;" d="M364.089-20.889H204.8v-295.822h159.289c25.134,0,45.511,20.378,45.511,45.511v204.8
				C409.6-41.266,389.222-20.889,364.089-20.889"/>
			<g>
				<path style="fill:#D20F34;" d="M227.556-237.067c-37.706,0-68.267,30.561-68.267,68.267s30.561,68.267,68.267,68.267
					c14.916,0,28.672-4.836,39.902-12.948c-15.337,17.34-37.683,28.342-62.657,28.342c-46.205,0-83.661-37.456-83.661-83.661
					s37.456-83.672,83.661-83.672c24.974,0,47.332,11.002,62.657,28.365C256.239-232.231,242.483-237.067,227.556-237.067"/>
				<path style="fill:#D20F34;" d="M287.881-171.417l-27.75-6.394l-2.514-28.365l-14.655,24.417l-27.762-6.383l18.705,21.493
					l-14.643,24.417l26.203-11.15l18.705,21.493l-2.503-28.376L287.881-171.417z"/>
			</g>
		</g>
	</g>
</g>
<g>
</g>
<g>
</g>
<g>
</g>
<g>
</g>
<g>
</g>
<g>
</g>
<g>
</g>
<g>
</g>
<g>
</g>
<g>
</g>
<g>
</g>
<g>
</g>
<g>
</g>
<g>
</g>
<g>
</g>
</svg>
