<?xml version="1.0" encoding="iso-8859-1"?>
<!-- Generator: Adobe Illustrator 19.0.0, SVG Export Plug-In . SVG Version: 6.00 Build 0)  -->
<svg version="1.1" id="Capa_1" xmlns="http://www.w3.org/2000/svg" xmlns:xlink="http://www.w3.org/1999/xlink" x="0px" y="0px"
	 viewBox="0 0 512 512" style="enable-background:new 0 0 512 512;" xml:space="preserve">
<g transform="matrix(1.25 0 0 -1.25 0 45)">
	<g>
		<g>
			<path style="fill:#D01C3A;" d="M409.6-271.2c0-25.134-20.378-45.511-45.511-45.511H45.511C20.378-316.711,0-296.334,0-271.2
				v204.8c0,25.134,20.378,45.511,45.511,45.511h318.578c25.134,0,45.511-20.378,45.511-45.511V-271.2z"/>
			<path style="fill:#0020A8;" d="M45.511-20.889C20.378-20.889,0-41.266,0-66.4v-204.8c0-25.134,20.378-45.511,45.511-45.511
				h91.022v295.822H45.511z"/>
			<path style="fill:#FEDF00;" d="M273.067-316.711H136.533v295.822h136.533V-316.711z"/>
			<path style="fill:#C7B37F;" d="M262.144-187.471c-1.809,5.37-6.417,4.346-6.417,2.56c0,0-6.133,4.426-1.525,12.561
				c0,0,8.943-1.058,3.834,5.848c0,0,7.657,4.346,7.919,13.289c0.25,8.954-9.967,14.575-14.313,10.991c0,0-0.25,3.584-2.048,3.584
				c-1.786,0-2.81-2.298-2.81-2.298s0.262,5.871,4.096,9.193c3.834,3.322,11.753,12.277-4.87,17.397
				c-16.612,5.109-17.374-5.382-14.825-7.68c0,0-4.085-2.287-8.681-2.037c-4.608,0.25-1.297,5.609-0.262,7.93
				c1.024,2.298,0.262,10.468-5.382,10.217c-5.609-0.262-5.871-2.56-7.908-3.322c-2.048-0.762-4.096-0.25-4.096-0.25
				s-2.048-0.512-4.096,0.25c-2.037,0.762-2.298,3.061-7.919,3.322c-5.632,0.25-6.394-7.919-5.37-10.217
				c1.024-2.321,4.346-7.68-0.262-7.93c-4.597-0.25-8.693,2.037-8.693,2.037c2.56,2.298,1.798,12.789-14.825,7.68
				c-16.612-5.12-8.693-14.074-4.858-17.397c3.834-3.322,4.096-9.193,4.096-9.193s-1.024,2.298-2.822,2.298
				c-1.786,0-2.037-3.584-2.037-3.584c-4.346,3.584-14.575-2.037-14.325-10.991c0.262-8.943,7.93-13.289,7.93-13.289
				c-5.12-6.906,3.834-5.848,3.834-5.848c4.597-8.135-1.536-12.561-1.536-12.561c0,1.786-4.597,2.81-6.406-2.56
				c-1.82-5.37,3.595-7.157,3.595-7.157c-7.157-9.216-2.56-17.897,4.346-23.006c6.906-5.12,20.196-4.358,26.84-4.858
				c6.656-0.512,7.93-3.834,7.93-3.834c-5.109-4.87,2.56-8.704,2.56-8.704c1.525-5.109,7.669,0.512,7.669,0.512l4.346-3.834
				l4.346,3.834c0,0,6.133-5.621,7.657-0.512c0,0,7.68,3.834,2.56,8.704c0,0,1.286,3.322,7.93,3.834
				c6.645,0.501,19.945-0.262,26.852,4.858c6.895,5.109,11.492,13.79,4.346,23.006C258.549-194.628,263.953-192.841,262.144-187.471
				"/>
			<path style="fill:#D01C3A;" d="M202.752-130.969h-33.746v-33.746h33.746V-130.969z"/>
			<g>
				<path style="fill:#FEDF00;" d="M181.282-151.802l-10.024-10.354l1.57-1.786l8.454,9.33V-151.802z"/>
				<path style="fill:#FEDF00;" d="M197.769-138.638c0,0,4.449-1.161,4.449,2.81c0,3.971-2.662,3.971-3.55,3.971
					c-0.899,0-4.995-0.649-5.12-2.298c-0.125-1.673,1.604-2.697,0.671-3.595c-0.922-0.887-3.436-3.095-3.436-3.095l1.49-1.786
					c0,0,2.139,1.786,3.834,4.244c0.853,1.263,0.205,4.301,1.013,4.483c2.435,0.501,3.334-0.649,3.209-1.547
					c-0.137-0.887-1.661-1.786-1.661-1.786L197.769-138.638z"/>
			</g>
			<g>
				<path style="fill:#FFFFFF;" d="M189.463-156.398c0,0,0.637-4.733,2.935-4.983c2.298-0.262,3.072,7.35,6.838,7.35
					c3.777,0,4.164-6.588,0-7.612l-0.569,1.911c0,0,2.685,2.685,0.762,3.083c-1.911,0.375-2.81-2.048-3.061-3.083
					c-0.262-1.024-1.798-3.698-4.096-3.698c-3.834,0-4.346,3.516-4.927,6.224C186.778-154.487,189.463-156.398,189.463-156.398"/>
				<path style="fill:#FFFFFF;" d="M182.613-156.398c0,0-0.637-4.733-2.947-4.983c-2.298-0.262-3.061,7.35-6.827,7.35
					c-3.777,0-4.164-6.588,0-7.612l0.569,1.911c0,0-2.685,2.685-0.762,3.083c1.911,0.375,2.81-2.048,3.061-3.083
					c0.262-1.024,1.786-3.698,4.096-3.698c3.834,0,4.346,3.516,4.915,6.224C185.298-154.487,182.613-156.398,182.613-156.398"/>
				<path style="fill:#FFFFFF;" d="M186.527-132.391l9.842-12.538l-4.915-13.414c0,0-1.991,1.149-4.927,1.149
					c-2.947,0-5.245-1.149-5.245-1.149l-5.234,13.551L186.527-132.391z"/>
			</g>
			<g>
				<path style="fill:#FEDF00;" d="M187.346-136.715l6.872-8.26l-3.482-10.536l-3.322,1.024L187.346-136.715z"/>
				<path style="fill:#FEDF00;" d="M185.082-136.715l-6.872-8.26l3.482-10.536l3.322,1.024L185.082-136.715z"/>
				<path style="fill:#FEDF00;" d="M169.006-167.776v-20.969c0-13.813,10.081-15.713,18.751-13.813c6.986,1.547,14.996,0,14.996,0
					v34.782H169.006z"/>
			</g>
			<g>
				<path style="fill:#D01C3A;" d="M187.756-202.592c0.228,0.057,0.455,0.091,0.683,0.137v34.645h-5.12v-35.374
					C184.809-203.115,186.3-202.899,187.756-202.592"/>
				<path style="fill:#D01C3A;" d="M198.667-202.023v34.258h-5.12v-34.111C195.425-201.818,197.188-201.898,198.667-202.023"/>
				<path style="fill:#D01C3A;" d="M178.21-202.706v34.918h-5.109v-32.324C174.546-201.42,176.31-202.251,178.21-202.706"/>
			</g>
			<path style="fill:#FEDF00;" d="M206.848-130.969h33.746v-33.746h-33.746V-130.969z"/>
			<g>
				<path style="fill:#D01C3A;" d="M216.053-164.715h-5.12v33.746h5.12V-164.715z"/>
				<path style="fill:#D01C3A;" d="M226.281-164.715h-5.12v33.746h5.12V-164.715z"/>
				<path style="fill:#D01C3A;" d="M236.498-164.715h-5.109v33.746h5.109V-164.715z"/>
			</g>
			<path style="fill:#FEDF00;" d="M240.64-167.776v-20.969c0-13.813-10.081-15.713-18.751-13.813c-6.986,1.547-14.996,0-14.996,0
				v34.782H240.64z"/>
			<g>
				<path style="fill:#D01C3A;" d="M211.957-173.397l3.197,2.56h3.959v-2.059c0,0,5.632,0.091,10.229,0.558
					c4.608,0.478,6.019-2.981,4.608-3.868c-1.399-0.899,0.25-4.358,0-6.007c-0.262-1.673-3.322-4.096-2.56-2.697
					c0.762,1.411,0,5.245,0,5.245s-0.887-2.947-1.661-3.834c-0.774-0.899-3.447-1.024-2.423-0.25
					c1.013,0.762,2.037,2.423,1.138,3.322c-0.887,0.887-4.892,1.024-5.074,0.637c-0.159-0.387-0.922-4.847-1.434-5.12
					c-0.523-0.25-1.161,0.387-0.774,1.786c0.387,1.422,0,3.834,0,3.834s-2.685,0.137-2.56-1.013c0.137-1.149,1.286-1.661,1.035-2.56
					c-0.273-0.887-1.923-2.048-2.048-0.512c-0.137,1.536-2.685,2.56-1.536,3.322c1.149,0.762,2.298,1.968,2.298,1.968
					s-1.434,0.33-2.458,1.741c-1.024,1.399-1.889,1.286-3.937,1.286C210.933-175.058,211.957-173.397,211.957-173.397"/>
				<path style="fill:#D01C3A;" d="M211.957-188.745l3.197,2.56h3.959v-2.048c0,0,5.632,0.08,10.229,0.558
					c4.608,0.466,6.019-2.981,4.608-3.88c-1.399-0.899,0.25-4.346,0-6.007c-0.262-1.661-3.322-4.085-2.56-2.697
					c0.762,1.411,0,5.245,0,5.245s-0.887-2.935-1.661-3.834c-0.774-0.899-3.447-1.024-2.423-0.25
					c1.013,0.762,2.037,2.435,1.138,3.322c-0.887,0.887-4.892,1.024-5.074,0.637c-0.159-0.387-0.922-4.847-1.434-5.12
					c-0.523-0.239-1.161,0.387-0.774,1.798c0.387,1.411,0,3.834,0,3.834s-2.685,0.125-2.56-1.024
					c0.137-1.149,1.286-1.661,1.035-2.549c-0.273-0.899-1.923-2.059-2.048-0.512c-0.137,1.525-2.685,2.56-1.536,3.322
					s2.298,1.968,2.298,1.968s-1.434,0.33-2.458,1.729c-1.024,1.411-1.889,1.286-3.937,1.286
					C210.933-190.406,211.957-188.745,211.957-188.745"/>
			</g>
			<g>
				<path style="fill:#AF9167;" d="M166.446-205.106c0-0.375,18.796-5.484,20.901-5.882c2.116-0.375,1.343-4.722-1.468-4.46
					c-2.822,0.239-16.748,3.311-18.534,4.21C165.547-210.34,166.446-205.106,166.446-205.106"/>
				<path style="fill:#AF9167;" d="M192.273-211.433c0,0,5.632-0.762,10.479-0.967c4.858-0.193,8.181,0.228,8.181,0.228l3.459-4.688
					c0,0-6.007-0.649-10.103-0.649c-4.085,0-10.741,0.649-10.741,0.649L192.273-211.433z"/>
				<path style="fill:#AF9167;" d="M216.86-211.433c0,0,8.055,1.468,12.925,2.617c4.847,1.149,11.241,3.447,12.914,3.709
					c1.65,0.25,2.81-2.753,3.311-3.163l0.501-0.421c0,0-8.431-3.948-12.516-5.109c-4.096-1.149-17.135-2.947-17.135-2.947
					S214.994-211.774,216.86-211.433"/>
			</g>
		</g>
	</g>
</g>
<g>
</g>
<g>
</g>
<g>
</g>
<g>
</g>
<g>
</g>
<g>
</g>
<g>
</g>
<g>
</g>
<g>
</g>
<g>
</g>
<g>
</g>
<g>
</g>
<g>
</g>
<g>
</g>
<g>
</g>
</svg>
