<?xml version="1.0" encoding="iso-8859-1"?>
<!-- Generator: Adobe Illustrator 19.0.0, SVG Export Plug-In . SVG Version: 6.00 Build 0)  -->
<svg version="1.1" id="Capa_1" xmlns="http://www.w3.org/2000/svg" xmlns:xlink="http://www.w3.org/1999/xlink" x="0px" y="0px"
	 viewBox="0 0 512 512" style="enable-background:new 0 0 512 512;" xml:space="preserve">
<g transform="matrix(1.25 0 0 -1.25 0 45)">
	<g>
		<g>
			<path style="fill:#141414;" d="M0-168.8v-102.4c0-25.134,20.378-45.511,45.511-45.511h318.578
				c25.134,0,45.511,20.378,45.511,45.511v102.4H0z"/>
			<path style="fill:#CE1B26;" d="M409.6-168.8v102.4c0,25.134-20.378,45.511-45.511,45.511H45.511C20.378-20.889,0-41.266,0-66.4
				v-102.4H409.6z"/>
			<g>
				<path style="fill:#F9D616;" d="M198.565-119.25l6.849-13.904l15.349-2.23l-11.105-10.809l2.628-15.28l-13.722,7.214
					l-13.722-7.214l2.617,15.28l-11.093,10.809l15.337,2.23L198.565-119.25z"/>
				<path style="fill:#F9D616;" d="M172.487-159.55c3.914-6.394,36.09-40.004,67.379-59.551
					c4.085-2.674,15.292-11.207,19.558-14.222c-1.786-2.31-4.267-5.689-6.94-8.533c-4.437,3.55-45.147,28.615-58.482,35.374
					c-13.335,6.758-25.429,18.489-25.429,29.685C168.573-165.591,172.487-159.55,172.487-159.55"/>
				<path style="fill:#F9D616;" d="M261.507-234.757c-1.957-2.844-4.972-6.758-6.758-8.886c3.561-0.535,12.629-4.983,17.249-14.586
					c4.619-9.591,12.982-4.619,12.265,0.535C283.546-252.529,273.419-241.333,261.507-234.757"/>
			</g>
			<path id="SVGCleanerId_0" style="fill:#292F33;" d="M266.672-242.665c0-1.138-0.91-2.048-2.048-2.048
				c-1.126,0-2.037,0.91-2.037,2.048s0.91,2.048,2.037,2.048C265.762-240.617,266.672-241.527,266.672-242.665"/>
			<g transform="translate(1 -1)">
				<path id="SVGCleanerId_0_1_" style="fill:#292F33;" d="M278.05-254.042c0-1.138-0.91-2.048-2.048-2.048
					c-1.126,0-2.037,0.91-2.037,2.048s0.91,2.048,2.037,2.048C277.14-251.994,278.05-252.905,278.05-254.042"/>
			</g>
			<path style="fill:none;stroke:#292F33;stroke-width:0.3;stroke-linecap:round;stroke-miterlimit:10;" d="M203.56-199.736
				l52.975-36.09"/>
			<g>
				<path style="fill:#F9D616;" d="M282.465-176.173l0.091,14.734l-12.345-0.08c-0.466,4.745-1.434,9.33-2.776,13.756l11.048,4.426
					l-4.972,13.87l-11.901-4.722c-2.025,3.664-4.369,7.111-6.986,10.342l7.953,9.079l-11.31,9.466l-7.111-8.078
					c-3.527,2.844-7.293,5.37-11.31,7.509l5.165,11.002l-13.801,5.2l-5.029-10.638c-4.062,1.172-8.26,2.002-12.572,2.435
					l-1.57-15.326c28.388-2.924,50.608-26.635,50.608-55.785c0-17.158-7.828-32.336-19.922-42.678l6.281-4.346l15.531-11.548
					l6.053,6.576l-9.478,7.031c2.867,3.447,5.416,7.134,7.6,11.082l11.446-4.642l5.689,13.596l-11.389,4.619
					c1.274,4.198,2.23,8.545,2.708,13.039L282.465-176.173z"/>
				<path style="fill:#F9D616;" d="M226.372-234.427l-4.688,9.091l-5.803,2.765c-5.279-1.638-10.786-2.765-16.6-2.765
					c-13.631,0-25.964,5.029-35.715,13.084l-9.466-11.127c3.504-2.901,7.339-5.382,11.366-7.566l-5.074-10.911l13.596-5.723
					l5.12,11.048c3.925-1.172,7.976-1.991,12.163-2.48l-0.091-11.492l14.746,0.159l0.08,10.923
					c4.597,0.444,9.068,1.308,13.369,2.571l3.914-11.31l7.817,2.31l-4.904,11.366C226.258-234.461,226.315-234.45,226.372-234.427"
					/>
			</g>
		</g>
	</g>
</g>
<g>
</g>
<g>
</g>
<g>
</g>
<g>
</g>
<g>
</g>
<g>
</g>
<g>
</g>
<g>
</g>
<g>
</g>
<g>
</g>
<g>
</g>
<g>
</g>
<g>
</g>
<g>
</g>
<g>
</g>
</svg>
