<?xml version="1.0" encoding="iso-8859-1"?>
<!-- Generator: Adobe Illustrator 19.0.0, SVG Export Plug-In . SVG Version: 6.00 Build 0)  -->
<svg version="1.1" id="Capa_1" xmlns="http://www.w3.org/2000/svg" xmlns:xlink="http://www.w3.org/1999/xlink" x="0px" y="0px"
	 viewBox="0 0 512 512" style="enable-background:new 0 0 512 512;" xml:space="preserve">
<g transform="matrix(1.25 0 0 -1.25 0 45)">
	<path style="fill:#E00034;" d="M0-225.689h409.6V-111.9H0V-225.689z"/>
	<g>
		<g>
			<path style="fill:#0098C3;" d="M364.089-20.889H45.511C20.378-20.889,0-41.266,0-66.4v-45.511h409.6V-66.4
				C409.6-41.266,389.222-20.889,364.089-20.889"/>
			<g>
				<path style="fill:#FFFFFF;" d="M203.036-206.722c-20.946,0-37.922,16.976-37.922,37.922s16.976,37.934,37.922,37.934
					c11.173,0,21.22-4.836,28.16-12.527c-8.169,12.129-22.039,20.105-37.763,20.105c-25.145,0-45.511-20.378-45.511-45.511
					s20.366-45.511,45.511-45.511c15.724,0,29.594,7.987,37.763,20.116C224.256-201.887,214.209-206.722,203.036-206.722"/>
				<path style="fill:#FFFFFF;" d="M269.278-168.8l-13.608,4.824l6.19,13.05l-13.039-6.212l-4.847,13.608l-4.824-13.608
					l-0.034,0.011l-13.016,6.178l6.212-13.039l-13.596-4.847l13.608-4.824l-6.19-13.05l12.971,6.178l0.057,0.034l4.847-13.608
					l4.836,13.608l13.039-6.19l-6.201,13.039L269.278-168.8z"/>
			</g>
			<path style="fill:#00AE65;" d="M45.511-316.711h318.578c25.134,0,45.511,20.378,45.511,45.511v45.511H0V-271.2
				C0-296.334,20.378-316.711,45.511-316.711"/>
		</g>
	</g>
</g>
<g>
</g>
<g>
</g>
<g>
</g>
<g>
</g>
<g>
</g>
<g>
</g>
<g>
</g>
<g>
</g>
<g>
</g>
<g>
</g>
<g>
</g>
<g>
</g>
<g>
</g>
<g>
</g>
<g>
</g>
</svg>
