<?xml version="1.0" encoding="iso-8859-1"?>
<!-- Generator: Adobe Illustrator 19.0.0, SVG Export Plug-In . SVG Version: 6.00 Build 0)  -->
<svg version="1.1" id="Capa_1" xmlns="http://www.w3.org/2000/svg" xmlns:xlink="http://www.w3.org/1999/xlink" x="0px" y="0px"
	 viewBox="0 0 512 512" style="enable-background:new 0 0 512 512;" xml:space="preserve">
<g transform="matrix(1.25 0 0 -1.25 0 45)">
	<g>
		<g>
			<path style="fill:#1F429B;" d="M94.857-126.611l-21.413,15.553l-21.413-15.553l8.181,25.168L38.798-85.879h26.465l8.181,25.168
				l8.181-25.168h26.465l-21.413-15.565L94.857-126.611z M147.911-20.889h-102.4C20.378-20.889,0-41.266,0-66.4v-102.4h147.911
				V-20.889z"/>
			<path style="fill:#EEEEEE;" d="M364.089-20.889H147.911V-168.8H409.6v102.4C409.6-41.266,389.222-20.889,364.089-20.889"/>
			<path style="fill:#D42D27;" d="M0-168.8v-102.4c0-25.134,20.378-45.511,45.511-45.511h318.578
				c25.134,0,45.511,20.378,45.511,45.511v102.4H147.911H0z"/>
			<path style="fill:#FFFFFF;" d="M81.624-85.879l-8.181,25.168l-8.169-25.168H38.798l21.413-15.553l-8.181-25.179l21.413,15.565
				l21.413-15.565l-8.181,25.179l21.413,15.553H81.624z"/>
		</g>
	</g>
</g>
<g>
</g>
<g>
</g>
<g>
</g>
<g>
</g>
<g>
</g>
<g>
</g>
<g>
</g>
<g>
</g>
<g>
</g>
<g>
</g>
<g>
</g>
<g>
</g>
<g>
</g>
<g>
</g>
<g>
</g>
</svg>
