<?xml version="1.0" encoding="iso-8859-1"?>
<!-- Generator: Adobe Illustrator 19.0.0, SVG Export Plug-In . SVG Version: 6.00 Build 0)  -->
<svg version="1.1" id="Capa_1" xmlns="http://www.w3.org/2000/svg" xmlns:xlink="http://www.w3.org/1999/xlink" x="0px" y="0px"
	 viewBox="0 0 512 512" style="enable-background:new 0 0 512 512;" xml:space="preserve">
<g transform="matrix(1.25 0 0 -1.25 0 45)">
	<g>
		<g>
			<path style="fill:#002B7F;" d="M409.6-271.2c0-25.134-20.378-45.511-45.511-45.511H45.511C20.378-316.711,0-296.334,0-271.2
				v204.8c0,25.134,20.378,45.511,45.511,45.511h318.578c25.134,0,45.511-20.378,45.511-45.511V-271.2z"/>
			<path style="fill:#EEEEEE;" d="M409.6-271.2H0v204.8h409.6V-271.2z"/>
			<path style="fill:#CE1225;" d="M409.6-225.689H0v113.778h409.6V-225.689z"/>
			<path style="fill:#EEEEEE;" d="M136.533-168.8c0-25.134-17.829-45.511-39.822-45.511S56.889-193.934,56.889-168.8
				s17.829,45.511,39.822,45.511S136.533-143.666,136.533-168.8"/>
			<path style="fill:#F4CB58;" d="M116.838-185.867c0-9.421-9.011-23.654-20.127-23.654s-20.116,14.234-20.116,23.654
				c0,9.432,9,17.067,20.116,17.067S116.838-176.434,116.838-185.867"/>
			<path style="fill:#DCA841;" d="M125.156-185.867c0-9.421-12.732-17.067-28.444-17.067s-28.444,7.646-28.444,17.067
				c0,9.432,12.732,17.067,28.444,17.067S125.156-176.434,125.156-185.867"/>
			<path style="fill:#89C5E4;" d="M113.778-146.044c0-6.281-7.634-11.378-17.067-11.378s-17.067,5.097-17.067,11.378
				s7.634,11.378,17.067,11.378S113.778-139.764,113.778-146.044"/>
			<path style="fill:#088930;" d="M113.778-174.489c0-15.713-7.634-28.444-17.067-28.444s-17.067,12.732-17.067,28.444
				s7.634,28.444,17.067,28.444S113.778-158.776,113.778-174.489"/>
			<path id="SVGCleanerId_0" style="fill:#DCA841;" d="M113.778-151.733c0-3.14-7.634-5.689-17.067-5.689
				s-17.067,2.549-17.067,5.689c0,3.14,7.634,5.689,17.067,5.689S113.778-148.593,113.778-151.733"/>
			<path style="fill:#89C5E4;" d="M113.778-168.8c0-12.561-7.634-22.756-17.067-22.756S79.644-181.361,79.644-168.8
				c0,12.572,7.634,17.044,17.067,17.044S113.778-156.228,113.778-168.8"/>
			<g transform="translate(0 -2)">
				<path id="SVGCleanerId_0_1_" style="fill:#DCA841;" d="M113.778-174.489c0-3.14-7.634-5.689-17.067-5.689
					s-17.067,2.549-17.067,5.689c0,3.14,7.634,5.689,17.067,5.689S113.778-171.349,113.778-174.489"/>
			</g>
		</g>
	</g>
</g>
<g>
</g>
<g>
</g>
<g>
</g>
<g>
</g>
<g>
</g>
<g>
</g>
<g>
</g>
<g>
</g>
<g>
</g>
<g>
</g>
<g>
</g>
<g>
</g>
<g>
</g>
<g>
</g>
<g>
</g>
</svg>
