<?xml version="1.0" encoding="iso-8859-1"?>
<!-- Generator: Adobe Illustrator 19.0.0, SVG Export Plug-In . SVG Version: 6.00 Build 0)  -->
<svg version="1.1" id="Capa_1" xmlns="http://www.w3.org/2000/svg" xmlns:xlink="http://www.w3.org/1999/xlink" x="0px" y="0px"
	 viewBox="0 0 512 512" style="enable-background:new 0 0 512 512;" xml:space="preserve">
<g transform="matrix(1.25 0 0 -1.25 0 45)">
	<g>
		<g>
			<path style="fill:#171796;" d="M0-271.2c0-25.134,20.378-45.511,45.511-45.511h318.578c25.134,0,45.511,20.378,45.511,45.511
				v45.511H0V-271.2z"/>
			<path style="fill:#EEEEEE;" d="M0-225.689h409.6v113.778H0V-225.689z"/>
			<path style="fill:#D52B1E;" d="M364.089-20.889H45.511C20.378-20.889,0-41.266,0-66.4v-45.511h159.289v-79.644
				c0-25.134,20.378-45.511,45.511-45.511s45.511,20.378,45.511,45.511v79.644H409.6V-66.4
				C409.6-41.266,389.222-20.889,364.089-20.889"/>
			<g>
				<path style="fill:#EEEEEE;" d="M193.422-134.667h-22.756v22.756h22.756V-134.667z"/>
				<path style="fill:#EEEEEE;" d="M216.178-157.422h-22.756v22.756h22.756V-157.422z"/>
				<path style="fill:#EEEEEE;" d="M238.933-134.667h-22.756v22.756h22.756V-134.667z"/>
				<path style="fill:#EEEEEE;" d="M238.933-180.178h-22.756v22.756h22.756V-180.178z"/>
				<path style="fill:#EEEEEE;" d="M193.422-180.178h-22.756v22.756h22.756V-180.178z"/>
				<path style="fill:#EEEEEE;" d="M216.178-202.933h-22.756v22.756h22.756V-202.933z"/>
				<path style="fill:#EEEEEE;" d="M193.422-223.595v20.662H172.76C176.185-212.582,183.774-220.159,193.422-223.595"/>
				<path style="fill:#EEEEEE;" d="M216.178-223.595c9.66,3.436,17.237,11.014,20.662,20.662h-20.662V-223.595z"/>
			</g>
			<g>
				<path style="fill:#0193DD;" d="M204.8-99.396c3.265,0,6.485-0.205,9.694-0.489l1.809,20.969L204.8-68.676l-11.503-10.24
					l1.809-20.969C198.315-99.6,201.523-99.396,204.8-99.396"/>
				<path style="fill:#0193DD;" d="M252.245-109.977l8.886,19.115l-7.282,13.551l-14.336-5.678l-5.473-20.366
					C240.356-105.05,246.42-107.269,252.245-109.977"/>
				<path style="fill:#0193DD;" d="M175.536-103.389l-5.473,20.366l-14.302,5.689l-7.316-13.551l8.886-19.126
					C163.157-107.292,169.233-105.084,175.536-103.389"/>
			</g>
			<path style="fill:#171796;" d="M251.563-108.122c-5.097,2.287-10.388,4.221-15.77,5.734l4.915,18.307l12.481,4.949l6.36-11.81
				L251.563-108.122z M196.415-98.372l-1.627,18.853l10.024,8.92l10.012-8.92l-1.627-18.853c-2.423,0.193-5.359,0.375-8.385,0.375
				C201.774-97.996,198.838-98.178,196.415-98.372 M158.037-108.122l-7.987,17.18l6.372,11.822l12.459-4.961l4.927-18.318
				C168.402-103.913,163.112-105.835,158.037-108.122 M254.51-75.559l-14.7-5.814l-9.774,12.368l-13.449-8.272l-11.776,10.49
				l-11.799-10.502l-13.437,8.294l-9.785-12.39l-14.677,5.837l-8.249-15.292l9.796-21.06l1.286,0.603
				c5.734,2.674,11.787,4.87,17.966,6.531l0.296,0.08c6.281,1.673,12.527,2.788,18.569,3.322l0.466,0.046
				c5.188,0.444,13.938,0.444,19.126,0l0.421-0.034c6.064-0.546,12.345-1.661,18.66-3.345l0.239-0.057
				c6.155-1.661,12.197-3.857,17.966-6.542l1.286-0.603l9.785,21.049L254.51-75.559z"/>
		</g>
	</g>
</g>
<g>
</g>
<g>
</g>
<g>
</g>
<g>
</g>
<g>
</g>
<g>
</g>
<g>
</g>
<g>
</g>
<g>
</g>
<g>
</g>
<g>
</g>
<g>
</g>
<g>
</g>
<g>
</g>
<g>
</g>
</svg>
