<?xml version="1.0" encoding="iso-8859-1"?>
<!-- Generator: Adobe Illustrator 19.0.0, SVG Export Plug-In . SVG Version: 6.00 Build 0)  -->
<svg version="1.1" id="Capa_1" xmlns="http://www.w3.org/2000/svg" xmlns:xlink="http://www.w3.org/1999/xlink" x="0px" y="0px"
	 viewBox="0 0 512 512" style="enable-background:new 0 0 512 512;" xml:space="preserve">
<path style="fill:#002A8F;" d="M455.111,71.111H56.889c-14.332,0-27.416,5.312-37.42,14.06l-0.001-0.001
	C7.569,95.576,0,110.847,0,127.887v256.226c0,17.04,7.569,32.311,19.469,42.716l0.001-0.001
	c10.003,8.748,23.088,14.061,37.42,14.061h398.222C486.528,440.889,512,415.417,512,384v-14.222v-71.111v-85.333v-71.111V128
	C512,96.583,486.528,71.111,455.111,71.111z M196.923,213.333L196.923,213.333l-98.46-71.111L196.923,213.333z"/>
<g>
	<polygon style="fill:#EEEEEE;" points="512,142.222 98.463,142.222 196.923,213.333 512,213.333 	"/>
	<polygon style="fill:#EEEEEE;" points="196.923,298.667 98.462,369.778 512,369.778 512,298.667 	"/>
</g>
<path style="fill:#CF142B;" d="M98.463,142.222L19.468,85.171C7.569,95.576,0,110.847,0,127.887v256.226
	c0,17.04,7.569,32.311,19.469,42.716l78.994-57.051l98.46-71.111L256.003,256l-59.079-42.667L98.463,142.222z"/>
<path style="fill:#FFFFFF;" d="M106.602,264.554l28.516-20.651H99.875l-10.951-33.593l-10.965,33.593H42.673l28.53,20.665
	l-10.965,33.579l28.658-20.764l28.644,20.764L106.602,264.554z"/>
<g>
</g>
<g>
</g>
<g>
</g>
<g>
</g>
<g>
</g>
<g>
</g>
<g>
</g>
<g>
</g>
<g>
</g>
<g>
</g>
<g>
</g>
<g>
</g>
<g>
</g>
<g>
</g>
<g>
</g>
</svg>
