<?xml version="1.0" encoding="iso-8859-1"?>
<!-- Generator: Adobe Illustrator 19.0.0, SVG Export Plug-In . SVG Version: 6.00 Build 0)  -->
<svg version="1.1" id="Capa_1" xmlns="http://www.w3.org/2000/svg" xmlns:xlink="http://www.w3.org/1999/xlink" x="0px" y="0px"
	 viewBox="0 0 512 512" style="enable-background:new 0 0 512 512;" xml:space="preserve">
<g transform="matrix(1.25 0 0 -1.25 0 45)">
	<g>
		<g>
			<path style="fill:#D7141A;" d="M15.735-305.009c7.987-7.452,18.375-11.685,29.776-11.685h318.578
				c25.134,0,45.511,20.378,45.511,51.2v96.711H199.111L15.735-305.009z"/>
			<path style="fill:#EEEEEE;" d="M364.089-20.906H45.511c-11.56,0-22.073-4.346-30.106-11.446l183.706-136.465H409.6v102.4
				C409.6-41.284,389.222-20.906,364.089-20.906"/>
			<path style="fill:#11457E;" d="M15.735-305.009l183.376,136.226L15.406-32.318C5.985-40.658,0-52.809,0-66.383v-102.4v-96.711
				C0-282.333,6.121-296.021,15.735-305.009"/>
		</g>
	</g>
</g>
<g>
</g>
<g>
</g>
<g>
</g>
<g>
</g>
<g>
</g>
<g>
</g>
<g>
</g>
<g>
</g>
<g>
</g>
<g>
</g>
<g>
</g>
<g>
</g>
<g>
</g>
<g>
</g>
<g>
</g>
</svg>
