<?xml version="1.0" encoding="iso-8859-1"?>
<!-- Generator: Adobe Illustrator 19.0.0, SVG Export Plug-In . SVG Version: 6.00 Build 0)  -->
<svg version="1.1" id="Capa_1" xmlns="http://www.w3.org/2000/svg" xmlns:xlink="http://www.w3.org/1999/xlink" x="0px" y="0px"
	 viewBox="0 0 512 512" style="enable-background:new 0 0 512 512;" xml:space="preserve">
<g transform="matrix(1.25 0 0 -1.25 0 45)">
	<g>
		<g>
			<path style="fill:#ED1C23;" d="M409.6-271.2c0-25.134-20.378-45.511-45.511-45.511H45.511C20.378-316.711,0-296.334,0-271.2
				v204.8c0,25.134,20.378,45.511,45.511,45.511h318.578c25.134,0,45.511-20.378,45.511-45.511V-271.2z"/>
			<path style="fill:#034EA2;" d="M409.6-237.067H0v79.644h409.6V-237.067z"/>
			<g>
				<path style="fill:#FFDD00;" d="M409.6-157.422V-66.4c0,25.134-20.378,45.511-45.511,45.511H45.511
					C20.378-20.889,0-41.266,0-66.4v-91.022H409.6z"/>
				<path style="fill:#FFDD00;" d="M261.689-180.178c0-12.561-10.183-22.756-22.756-22.756h-68.267
					c-12.561,0-22.756,10.194-22.756,22.756v34.133c0,12.572,10.194,22.756,22.756,22.756h68.267
					c12.572,0,22.756-10.183,22.756-22.756V-180.178z"/>
			</g>
			<path style="fill:#034EA2;" d="M250.311-168.8c0-12.561-10.183-34.133-22.756-34.133h-45.511
				c-12.561,0-22.756,21.572-22.756,34.133v11.378c0,12.572,10.194,22.756,22.756,22.756h45.511
				c12.572,0,22.756-10.183,22.756-22.756V-168.8z"/>
			<path style="fill:#ED1C23;" d="M238.933-168.8c0-12.561-10.183-34.133-22.756-34.133h-22.756
				c-12.561,0-22.756,21.572-22.756,34.133v11.378c0,12.572,10.194,22.756,22.756,22.756h22.756
				c12.572,0,22.756-10.183,22.756-22.756V-168.8z"/>
			<path style="fill:#6DBE46;" d="M227.248-124.825c-1.513-5.552-10.934-9.842-22.448-9.842s-20.935,4.289-22.437,9.842
				c-13.722-1.957-11.696-5.609-11.696-9.842c0-6.281,9-11.378,34.133-11.378s34.133,5.097,34.133,11.378
				C238.933-130.434,240.959-126.782,227.248-124.825"/>
			<path style="fill:#A6D388;" d="M216.178-180.178c0-6.292-5.097-11.378-11.378-11.378s-11.378,5.086-11.378,11.378v34.133
				c0,6.281,5.097,11.378,11.378,11.378s11.378-5.097,11.378-11.378V-180.178z"/>
			<path style="fill:#662113;" d="M244.622-100.533c5.006,0,9.762-0.592,14.177-1.559c-7.088,12.242-31.243,24.314-53.999,1.559
				c-22.756,22.756-46.911,10.684-53.999-1.559c4.415,0.967,9.17,1.559,14.177,1.559c21.993,0,39.822-10.183,39.822-22.756
				C204.8-110.716,222.618-100.533,244.622-100.533"/>
			<path style="fill:#8ED2E7;" d="M227.556-163.111c0-21.993-10.183-39.822-22.756-39.822c-12.561,0-22.756,17.829-22.756,39.822
				s10.194,39.822,22.756,39.822C217.372-123.289,227.556-141.118,227.556-163.111"/>
			<path style="fill:#6DBE46;" d="M199.111-157.422c-6.098,0-11.799-1.479-16.964-3.925c-0.011-0.592-0.102-1.161-0.102-1.764
				c0-21.993,10.194-39.822,22.756-39.822c11.412,0,20.764,14.734,22.414,33.894C220.012-161.871,210.079-157.422,199.111-157.422"
				/>
			<path style="fill:#FFCC4D;" d="M238.933-214.311c0-6.292-15.28-11.378-34.133-11.378s-34.133,5.086-34.133,11.378
				c0,6.292,15.28,11.378,34.133,11.378S238.933-208.019,238.933-214.311"/>
			<path style="fill:#034EA2;" d="M227.556-225.689c0-9.421-10.183-11.378-22.756-11.378c-12.561,0-22.756,1.957-22.756,11.378
				c0,9.421,10.194,22.756,22.756,22.756C217.372-202.933,227.556-216.268,227.556-225.689"/>
			<path style="fill:#ED1C23;" d="M193.422-225.689c0,9.421,5.097,22.756,11.378,22.756s11.378-13.335,11.378-22.756
				c0-9.421-5.097-11.378-11.378-11.378S193.422-235.11,193.422-225.689"/>
			<path style="fill:#CCD6DD;" d="M193.422-89.156c0,6.281,5.097,0,11.378,0s11.378,6.281,11.378,0s-5.097-11.378-11.378-11.378
				S193.422-95.436,193.422-89.156"/>
			<g transform="translate(19 18.5)">
				<path id="SVGCleanerId_0" style="fill:#FFFFFF;" d="M216.178-163.111c0-3.14-5.097-5.689-11.378-5.689
					s-11.378,2.549-11.378,5.689c0,3.14,5.097,5.689,11.378,5.689S216.178-159.971,216.178-163.111"/>
			</g>
			<g>
				<g transform="translate(14 20.5)">
					<path id="SVGCleanerId_0_1_" style="fill:#C1694F;" d="M159.289-140.356c0-3.14-5.097-5.689-11.378-5.689
						s-11.378,2.549-11.378,5.689c0,3.14,5.097,5.689,11.378,5.689S159.289-137.215,159.289-140.356"/>
				</g>
				<g transform="translate(15 22.5)">
					<path id="SVGCleanerId_0_2_" style="fill:#C1694F;" d="M170.667-117.6c0-3.14-5.097-5.689-11.378-5.689
						s-11.378,2.549-11.378,5.689s5.097,5.689,11.378,5.689S170.667-114.46,170.667-117.6"/>
				</g>
				<path style="fill:#C1694F;" d="M273.067-140.356c0-3.14-5.086-5.689-11.378-5.689c-6.292,0-11.378,2.549-11.378,5.689
					c0,3.14,5.086,5.689,11.378,5.689C267.981-134.667,273.067-137.215,273.067-140.356"/>
				<path style="fill:#C1694F;" d="M261.689-117.6c0-3.14-5.086-5.689-11.378-5.689c-6.292,0-11.378,2.549-11.378,5.689
					s5.086,5.689,11.378,5.689C256.603-111.911,261.689-114.46,261.689-117.6"/>
			</g>
		</g>
	</g>
</g>
<g>
</g>
<g>
</g>
<g>
</g>
<g>
</g>
<g>
</g>
<g>
</g>
<g>
</g>
<g>
</g>
<g>
</g>
<g>
</g>
<g>
</g>
<g>
</g>
<g>
</g>
<g>
</g>
<g>
</g>
</svg>
