<?xml version="1.0" encoding="iso-8859-1"?>
<!-- Generator: Adobe Illustrator 19.0.0, SVG Export Plug-In . SVG Version: 6.00 Build 0)  -->
<svg version="1.1" id="Capa_1" xmlns="http://www.w3.org/2000/svg" xmlns:xlink="http://www.w3.org/1999/xlink" x="0px" y="0px"
	 viewBox="0 0 512 512" style="enable-background:new 0 0 512 512;" xml:space="preserve">
<path style="fill:#003399;" d="M455.111,71.111H56.889C25.472,71.111,0,96.569,0,128v256c0,31.431,25.472,56.889,56.889,56.889
	h398.222C486.528,440.889,512,415.431,512,384V128C512,96.569,486.528,71.111,455.111,71.111z"/>
<g>
	<path style="fill:#FFCC00;" d="M263.668,138.02l12.075-8.775h-14.919l-4.622-14.194l-4.608,14.194h-14.919l12.075,8.775
		l-4.622,14.194l12.075-8.775l12.075,8.775L263.668,138.02z"/>
	<path style="fill:#FFCC00;" d="M263.668,384.537l12.075-8.775h-14.919l-4.622-14.194l-4.608,14.194h-14.919l12.075,8.775
		l-4.622,14.194l12.075-8.775l12.075,8.775L263.668,384.537z"/>
	<path style="fill:#FFCC00;" d="M140.409,261.28l12.075-8.775h-14.919l-4.622-14.194l-4.608,14.194h-14.919l12.075,8.775
		l-4.622,14.194l12.075-8.775l12.075,8.775L140.409,261.28z"/>
	<path style="fill:#FFCC00;" d="M156.158,200.334l12.075-8.775h-14.919l-4.622-14.194l-4.608,14.194h-14.919l12.075,8.775
		l-4.622,14.194l12.075-8.775l12.075,8.775L156.158,200.334z"/>
	<path style="fill:#FFCC00;" d="M156.158,322.909l12.075-8.775h-14.919l-4.622-14.194l-4.608,14.194h-14.919l12.075,8.775
		l-4.622,14.194l12.075-8.775l12.075,8.775L156.158,322.909z"/>
	<path style="fill:#FFCC00;" d="M202.038,154.529l12.075-8.775h-14.919l-4.622-14.194l-4.608,14.194h-14.919l12.075,8.775
		l-4.622,14.194l12.075-8.775l12.075,8.775L202.038,154.529z"/>
	<path style="fill:#FFCC00;" d="M202.038,368.832l12.075-8.775h-14.919l-4.622-14.194l-4.608,14.194h-14.919l12.075,8.775
		l-4.622,14.194l12.075-8.775l12.075,8.775L202.038,368.832z"/>
	<path style="fill:#FFCC00;" d="M371.593,261.28l-12.075-8.775h14.919l4.622-14.194l4.608,14.194h14.919l-12.075,8.775l4.622,14.194
		l-12.075-8.775l-12.075,8.775L371.593,261.28z"/>
	<path style="fill:#FFCC00;" d="M355.842,200.334l-12.075-8.775h14.919l4.622-14.194l4.608,14.194h14.919l-12.075,8.775
		l4.622,14.194l-12.075-8.775l-12.075,8.775L355.842,200.334z"/>
	<path style="fill:#FFCC00;" d="M355.842,322.909l-12.075-8.775h14.919l4.622-14.194l4.608,14.194h14.919l-12.075,8.775
		l4.622,14.194l-12.075-8.775l-12.075,8.775L355.842,322.909z"/>
	<path style="fill:#FFCC00;" d="M309.962,154.529l-12.075-8.775h14.919l4.622-14.194l4.608,14.194h14.919l-12.075,8.775
		l4.622,14.194l-12.075-8.775l-12.075,8.775L309.962,154.529z"/>
	<path style="fill:#FFCC00;" d="M309.962,368.832l-12.075-8.775h14.919l4.622-14.194l4.608,14.194h14.919l-12.075,8.775
		l4.622,14.194l-12.075-8.775l-12.075,8.775L309.962,368.832z"/>
</g>
<g>
</g>
<g>
</g>
<g>
</g>
<g>
</g>
<g>
</g>
<g>
</g>
<g>
</g>
<g>
</g>
<g>
</g>
<g>
</g>
<g>
</g>
<g>
</g>
<g>
</g>
<g>
</g>
<g>
</g>
</svg>
