<?xml version="1.0" encoding="iso-8859-1"?>
<!-- Generator: Adobe Illustrator 19.0.0, SVG Export Plug-In . SVG Version: 6.00 Build 0)  -->
<svg version="1.1" id="Capa_1" xmlns="http://www.w3.org/2000/svg" xmlns:xlink="http://www.w3.org/1999/xlink" x="0px" y="0px"
	 viewBox="0 0 512 512" style="enable-background:new 0 0 512 512;" xml:space="preserve">
<g transform="matrix(1.25 0 0 -1.25 0 45)">
	<g>
		<g>
			<path style="fill:#EDECEC;" d="M364.089-20.889H204.8v-113.778h204.8V-66.4C409.6-41.266,389.222-20.889,364.089-20.889"/>
			<path style="fill:#EEEEEE;" d="M125.156-20.889H45.511C20.378-20.889,0-41.266,0-66.4v-68.267h125.156V-20.889z"/>
			<g>
				<path style="fill:#EDECEC;" d="M364.089-316.711H204.8v113.778h204.8V-271.2C409.6-296.334,389.222-316.711,364.089-316.711"/>
				<path style="fill:#EDECEC;" d="M125.156-316.711H45.511C20.378-316.711,0-296.334,0-271.2v68.267h125.156V-316.711z"/>
			</g>
			<path style="fill:#003580;" d="M204.8-20.889h-79.644v-113.778H0v-68.267h125.156v-113.778H204.8v113.778h204.8v68.267H204.8
				V-20.889z"/>
		</g>
	</g>
</g>
<g>
</g>
<g>
</g>
<g>
</g>
<g>
</g>
<g>
</g>
<g>
</g>
<g>
</g>
<g>
</g>
<g>
</g>
<g>
</g>
<g>
</g>
<g>
</g>
<g>
</g>
<g>
</g>
<g>
</g>
</svg>
