<?xml version="1.0" encoding="iso-8859-1"?>
<!-- Generator: Adobe Illustrator 19.0.0, SVG Export Plug-In . SVG Version: 6.00 Build 0)  -->
<svg version="1.1" id="Capa_1" xmlns="http://www.w3.org/2000/svg" xmlns:xlink="http://www.w3.org/1999/xlink" x="0px" y="0px"
	 viewBox="0 0 512 512" style="enable-background:new 0 0 512 512;" xml:space="preserve">
<g transform="matrix(1.25 0 0 -1.25 0 45)">
	<g>
		<g>
			<path style="fill:#EEEEEE;" d="M364.089-20.889H233.244v-119.467H409.6V-66.4C409.6-41.266,389.222-20.889,364.089-20.889"/>
			<path style="fill:#E8112D;" d="M233.244-20.889h-56.889v-119.467H0v-56.889h176.356v-119.467h56.889v119.467H409.6v56.889
				H233.244V-20.889z"/>
			<path id="SVGCleanerId_0" style="fill:#E8112D;" d="M328.988-73.056c0.353,7.088,1.183,14.154,2.514,21.163
				c-6.69-0.842-13.46-0.842-20.15,0c1.331-7.009,2.162-14.074,2.514-21.163c-7.088,0.353-14.165,1.183-21.163,2.514
				c0.842-6.69,0.842-13.46,0-20.15c6.997,1.331,14.074,2.162,21.163,2.514c-0.353-7.088-1.183-14.154-2.514-21.163
				c6.69,0.842,13.46,0.842,20.15,0c-1.331,7.009-2.162,14.074-2.514,21.163c7.088-0.353,14.154-1.183,21.163-2.514
				c-0.842,6.69-0.842,13.46,0,20.15C343.142-71.873,336.077-72.703,328.988-73.056"/>
			<path style="fill:#EEEEEE;" d="M176.356-20.889H45.511C20.378-20.889,0-41.266,0-66.4v-73.956h176.356V-20.889z"/>
			<g transform="translate(-20.5)">
				<path id="SVGCleanerId_0_1_" style="fill:#E8112D;" d="M95.744-73.056c0.353,7.088,1.183,14.154,2.514,21.163
					c-6.69-0.842-13.46-0.842-20.15,0c1.331-7.009,2.162-14.074,2.514-21.163c-7.088,0.353-14.165,1.183-21.163,2.514
					c0.842-6.69,0.842-13.46,0-20.15c6.997,1.331,14.074,2.162,21.163,2.514c-0.353-7.088-1.183-14.154-2.514-21.163
					c6.69,0.842,13.46,0.842,20.15,0c-1.331,7.009-2.162,14.074-2.514,21.163c7.088-0.353,14.154-1.183,21.163-2.514
					c-0.842,6.69-0.842,13.46,0,20.15C109.898-71.873,102.832-72.703,95.744-73.056"/>
			</g>
			<path style="fill:#EEEEEE;" d="M409.6-271.2v73.956H233.244v-119.467h130.844C389.222-316.711,409.6-296.334,409.6-271.2"/>
			<path id="SVGCleanerId_1" style="fill:#E8112D;" d="M328.988-264.544c0.353-7.088,1.183-14.154,2.514-21.163
				c-6.69,0.842-13.46,0.842-20.15,0c1.331,7.009,2.162,14.074,2.514,21.163c-7.088-0.353-14.165-1.183-21.163-2.514
				c0.842,6.69,0.842,13.46,0,20.15c6.997-1.331,14.074-2.162,21.163-2.514c-0.353,7.088-1.183,14.154-2.514,21.163
				c6.69-0.842,13.46-0.842,20.15,0c-1.331-7.009-2.162-14.074-2.514-21.163c7.088,0.353,14.154,1.183,21.163,2.514
				c-0.842-6.69-0.842-13.46,0-20.15C343.142-265.727,336.077-264.897,328.988-264.544"/>
			<path style="fill:#EEEEEE;" d="M176.356-197.244H0V-271.2c0-25.134,20.378-45.511,45.511-45.511h130.844V-197.244z"/>
			<g transform="translate(-20.5)">
				<path id="SVGCleanerId_1_1_" style="fill:#E8112D;" d="M95.744-264.544c0.353-7.088,1.183-14.154,2.514-21.163
					c-6.69,0.842-13.46,0.842-20.15,0c1.331,7.009,2.162,14.074,2.514,21.163c-7.088-0.353-14.165-1.183-21.163-2.514
					c0.842,6.69,0.842,13.46,0,20.15c6.997-1.331,14.074-2.162,21.163-2.514c-0.353,7.088-1.183,14.154-2.514,21.163
					c6.69-0.842,13.46-0.842,20.15,0c-1.331-7.009-2.162-14.074-2.514-21.163c7.088,0.353,14.154,1.183,21.163,2.514
					c-0.842-6.69-0.842-13.46,0-20.15C109.898-265.727,102.832-264.897,95.744-264.544"/>
			</g>
		</g>
	</g>
</g>
<g>
</g>
<g>
</g>
<g>
</g>
<g>
</g>
<g>
</g>
<g>
</g>
<g>
</g>
<g>
</g>
<g>
</g>
<g>
</g>
<g>
</g>
<g>
</g>
<g>
</g>
<g>
</g>
<g>
</g>
</svg>
