<?xml version="1.0" encoding="iso-8859-1"?>
<!-- Generator: Adobe Illustrator 19.0.0, SVG Export Plug-In . SVG Version: 6.00 Build 0)  -->
<svg version="1.1" id="Capa_1" xmlns="http://www.w3.org/2000/svg" xmlns:xlink="http://www.w3.org/1999/xlink" x="0px" y="0px"
	 viewBox="0 0 512 512" style="enable-background:new 0 0 512 512;" xml:space="preserve">
<g transform="matrix(1.25 0 0 -1.25 0 45)">
	<g>
		<g>
			<path style="fill:#CC212D;" d="M364.089-20.889H45.511C20.378-20.889,0-41.266,0-66.4v-56.889h204.982H409.6V-66.4
				C409.6-41.266,389.222-20.889,364.089-20.889"/>
			<g>
				<path style="fill:#FBD116;" d="M175.479-214.311h59.005l-29.503,21.436L175.479-214.311z"/>
				<path style="fill:#FBD116;" d="M216.292-158.094h36.58l-29.594-21.504l11.275-34.714H409.6v91.022H204.982L216.292-158.094z"/>
				<path style="fill:#FBD116;" d="M186.687-179.609l-29.605,21.504h36.591l11.298,34.793H0v-91.022h175.4L186.687-179.609z"/>
			</g>
			<path style="fill:#288541;" d="M234.576-214.379l-0.102,0.068h-58.994l-0.102-0.068l0.023,0.068H0V-271.2
				c0-25.134,20.378-45.511,45.511-45.511h318.578c25.134,0,45.511,20.378,45.511,45.511v56.889H234.553L234.576-214.379z"/>
			<path d="M157.093-158.094l29.605-21.504L175.4-214.311l-0.023-0.08l0.102,0.08l29.503,21.424l29.503-21.424l0.102-0.08
				l-0.034,0.08l-11.275,34.714l29.594,21.504h-36.58l-11.31,34.805l-11.31-34.805H157.093z"/>
		</g>
	</g>
</g>
<g>
</g>
<g>
</g>
<g>
</g>
<g>
</g>
<g>
</g>
<g>
</g>
<g>
</g>
<g>
</g>
<g>
</g>
<g>
</g>
<g>
</g>
<g>
</g>
<g>
</g>
<g>
</g>
<g>
</g>
</svg>
