<?xml version="1.0" encoding="iso-8859-1"?>
<!-- Generator: Adobe Illustrator 19.0.0, SVG Export Plug-In . SVG Version: 6.00 Build 0)  -->
<svg version="1.1" id="Capa_1" xmlns="http://www.w3.org/2000/svg" xmlns:xlink="http://www.w3.org/1999/xlink" x="0px" y="0px"
	 viewBox="0 0 512 512" style="enable-background:new 0 0 512 512;" xml:space="preserve">
<g transform="matrix(1.25 0 0 -1.25 0 45)">
	<g>
		<g>
			<path style="fill:#141414;" d="M0-271.2c0-25.134,20.378-45.511,45.511-45.511h318.578c25.134,0,45.511,20.378,45.511,45.511
				v45.511H0V-271.2z"/>
			<path style="fill:#EEEEEE;" d="M0-225.689h409.6v113.778H0V-225.689z"/>
			<path style="fill:#DD2E44;" d="M364.089-20.889H45.511C20.378-20.889,0-41.266,0-66.4v-45.511h409.6V-66.4
				C409.6-41.266,389.222-20.889,364.089-20.889"/>
			<g>
				<path style="fill:#007A3C;" d="M127.738-169.483v-13.983h64.296v8.385c0,3.732-4.187,3.504-4.187,0.694v-6.281h-50.324v9.785
					l35.294,35.294l5.359-5.7l-32.028-32.393h33.314c0,0,1.513,9.796,10.593,9.796l10.377-7.225v-26.328h-93.662
					c0,0-2.332-12.345-16.543-10.718c0,0,9.785,6.519,9.785,14.211c0,7.68-6.281,13.744-6.281,13.744l8.852,5.586
					c0,0,0.933-4.779,1.855-6.178c0.944-1.388,4.426-2.674,4.426-2.674h11.89l-0.148,6.246l-1.718,0.751L127.738-169.483z"/>
				<path style="fill:#007A3C;" d="M222.197-180.883l-1.889-2.583h-5.541c0.034,13.107,0.068,38.889-0.011,39.151
					c-0.125,0.353,2.446,2.207,2.446,2.207l-11.184,6.178v-61.508h20.969L222.197-180.883z"/>
				<path style="fill:#007A3C;" d="M255.124-183.466h-0.41c-2.799,0-2.446,3.732,1.399,3.732c2.128,0,2.822-1.149,3.038-2.173
					v-1.559H255.124z M284.297-145.726v-37.74h-5.586v33.553l-6.997-6.997v-26.556h-5.586v22.369l-6.975-6.986v-0.068l-1.525-1.445
					l1.525-0.603v-5.2c-6.667,3.436-13.983-1.752-13.983-8.067v-13.983h46.114v13.983v44.726L284.297-145.726z"/>
				<path style="fill:#007A3C;" d="M270.086-135.588c0-1.729-0.58-3.152-1.286-3.152s-1.286,1.422-1.286,3.152
					c0,1.741,0.58,3.14,1.286,3.14S270.086-133.847,270.086-135.588"/>
				<path style="fill:#007A3C;" d="M258.321-144.11c0,0,2.094-1.991,5.951-1.399c3.834,0.58,5.12,4.073,5.12,4.073
					s2.207-3.607,4.654-3.026c2.458,0.58,4.665,4.426,4.665,4.426s0.114-6.167-3.504-6.747c-3.607-0.592-5.12,1.968-5.12,1.968
					s-1.866-2.788-5.359-3.026C261.234-148.081,258.321-144.11,258.321-144.11"/>
				<path style="fill:#007A3C;" d="M314.573-180.553l-3.026-2.913h-4.881v39.72l2.901,1.286l-11.298,6.519v-61.497h21.083
					L314.573-180.553z"/>
				<path style="fill:#007A3C;" d="M121.924-204.435c0-1.661-1.354-3.026-3.038-3.026c-1.661,0-3.026,1.365-3.026,3.026
					c0,1.673,1.365,3.038,3.026,3.038C120.57-201.397,121.924-202.763,121.924-204.435"/>
			</g>
		</g>
	</g>
</g>
<g>
</g>
<g>
</g>
<g>
</g>
<g>
</g>
<g>
</g>
<g>
</g>
<g>
</g>
<g>
</g>
<g>
</g>
<g>
</g>
<g>
</g>
<g>
</g>
<g>
</g>
<g>
</g>
<g>
</g>
</svg>
