<?xml version="1.0" encoding="iso-8859-1"?>
<!-- Generator: Adobe Illustrator 19.0.0, SVG Export Plug-In . SVG Version: 6.00 Build 0)  -->
<svg version="1.1" id="Capa_1" xmlns="http://www.w3.org/2000/svg" xmlns:xlink="http://www.w3.org/1999/xlink" x="0px" y="0px"
	 viewBox="0 0 512.014 512.014" style="enable-background:new 0 0 512.014 512.014;" xml:space="preserve">
<g transform="matrix(1.25 0 0 -1.25 0 45)">
	<g>
		<path style="fill:#EDECEC;" d="M229.842-189.388h10.615l-5.313,9.205L229.842-189.388z"/>
		<path style="fill:#EDECEC;" d="M199.498-200.766l5.313-9.205l5.313,9.205H199.498z"/>
	</g>
	<path style="fill:#EEEEEE;" d="M0.011-248.45h409.6v159.289H0.011V-248.45z"/>
	<g>
		<g>
			<path style="fill:#EEEEEE;" d="M3.345-49.339h402.921c-6.758,16.668-23.074,28.444-42.177,28.444H45.511
				C26.419-20.895,10.103-32.671,3.345-49.339"/>
			<path id="SVGCleanerId_0" style="fill:#EDECEC;" d="M240.424-148.223h-10.627l5.313-9.193L240.424-148.223z"/>
			<g transform="translate(-5.332)">
				<path id="SVGCleanerId_0_1_" style="fill:#EDECEC;" d="M179.758-148.223h-10.627l5.313-9.193L179.758-148.223z"/>
			</g>
			<g>
				<path style="fill:#EDECEC;" d="M216.644-189.388l11.878,20.582l-11.878,20.571h-23.768l-11.878-20.571l11.878-20.582H216.644z"
					/>
				<path style="fill:#EDECEC;" d="M174.478-180.183l-5.313-9.193h10.627L174.478-180.183z"/>
				<path style="fill:#EDECEC;" d="M204.811-127.641l-5.313-9.205h10.627L204.811-127.641z"/>
			</g>
			<path style="fill:#0038B8;" d="M3.345-49.339C1.206-54.618,0-60.364,0-66.406v-22.756h409.6v22.756
				c0,6.042-1.195,11.787-3.334,17.067H3.345z"/>
			<path style="fill:#EEEEEE;" d="M3.345-288.272h402.921c-6.758-16.668-23.074-28.444-42.177-28.444H45.511
				C26.419-316.717,10.103-304.941,3.345-288.272"/>
			<g>
				<path style="fill:#0038B8;" d="M3.345-288.272C1.206-282.993,0-277.247,0-271.206v22.756h409.6v-22.756
					c0-6.042-1.195-11.787-3.334-17.067H3.345z"/>
				<path style="fill:#0038B8;" d="M174.478-180.183l5.313-9.193h-10.627L174.478-180.183z M179.792-148.223l-5.313-9.205
					l-5.313,9.205H179.792z M192.933-148.223h23.768l11.878-20.582l-11.878-20.571h-23.768l-11.89,20.571L192.933-148.223z
					 M204.811-127.641l5.313-9.205h-10.627L204.811-127.641z M235.145-180.183l5.313-9.193h-10.627L235.145-180.183z
					 M240.458-148.223l-5.313-9.205l-5.313,9.205H240.458z M204.811-209.959l-5.313,9.205h10.627L204.811-209.959z M186.357-200.755
					l18.455-31.96l18.455,31.96h36.898l-18.443,31.949l18.443,31.96h-36.898l-18.455,31.96l-18.455-31.96h-36.898l18.443-31.96
					l-18.443-31.949C149.458-200.755,186.357-200.755,186.357-200.755z"/>
			</g>
		</g>
	</g>
</g>
<g>
</g>
<g>
</g>
<g>
</g>
<g>
</g>
<g>
</g>
<g>
</g>
<g>
</g>
<g>
</g>
<g>
</g>
<g>
</g>
<g>
</g>
<g>
</g>
<g>
</g>
<g>
</g>
<g>
</g>
</svg>
