<?xml version="1.0" encoding="iso-8859-1"?>
<!-- Generator: Adobe Illustrator 19.0.0, SVG Export Plug-In . SVG Version: 6.00 Build 0)  -->
<svg version="1.1" id="Capa_1" xmlns="http://www.w3.org/2000/svg" xmlns:xlink="http://www.w3.org/1999/xlink" x="0px" y="0px"
	 viewBox="0 0 512 512" style="enable-background:new 0 0 512 512;" xml:space="preserve">
<path style="fill:#FFD202;" d="M508.618,108.649L366.733,211.113l141.883-102.472c-7.094-19.598-24.648-34.174-45.917-37.011
	L256,220.914l-0.001-0.001L462.697,71.63c-2.484-0.331-5.012-0.519-7.586-0.519H56.889c-2.574,0-5.103,0.187-7.587,0.519
	c-21.269,2.837-38.824,17.414-45.917,37.011L207.417,256l-0.003,0.003L3.383,108.645C1.196,114.687,0,121.203,0,128v256
	c0,6.795,1.196,13.309,3.382,19.351l141.587-102.249L3.384,403.358c7.094,19.598,24.648,34.174,45.917,37.011L256,291.086
	l0.001,0.001L49.303,440.37c2.484,0.331,5.012,0.519,7.586,0.519h398.222c2.574,0,5.103-0.187,7.587-0.519
	c21.269-2.837,38.824-17.414,45.917-37.011L304.583,256l0.003-0.003l204.031,147.357C510.804,397.313,512,390.797,512,384V128
	C512,121.205,510.804,114.691,508.618,108.649z"/>
<path style="fill:#009B3A;" d="M462.697,71.63c-2.484-0.331-5.012-0.519-7.586-0.519H56.889c-2.574,0-5.103,0.187-7.587,0.519
	L256,220.913L462.697,71.63z"/>
<g>
	<path style="fill:#141414;" d="M366.733,211.113l-62.147,44.885l204.031,147.357C510.804,397.313,512,390.797,512,384V128
		c0-6.795-1.196-13.309-3.382-19.351L366.733,211.113z"/>
	<path style="fill:#141414;" d="M3.383,108.645C1.196,114.687,0,121.203,0,128v256c0,6.795,1.196,13.309,3.382,19.351
		l141.587-102.249l62.445-45.099L3.383,108.645z"/>
</g>
<path style="fill:#009B3A;" d="M49.303,440.37c2.484,0.331,5.012,0.519,7.586,0.519h398.222c2.574,0,5.103-0.187,7.587-0.519
	L256.001,291.087L49.303,440.37z"/>
<g>
</g>
<g>
</g>
<g>
</g>
<g>
</g>
<g>
</g>
<g>
</g>
<g>
</g>
<g>
</g>
<g>
</g>
<g>
</g>
<g>
</g>
<g>
</g>
<g>
</g>
<g>
</g>
<g>
</g>
</svg>
