<?xml version="1.0" encoding="iso-8859-1"?>
<!-- Generator: Adobe Illustrator 19.0.0, SVG Export Plug-In . SVG Version: 6.00 Build 0)  -->
<svg version="1.1" id="Capa_1" xmlns="http://www.w3.org/2000/svg" xmlns:xlink="http://www.w3.org/1999/xlink" x="0px" y="0px"
	 viewBox="0 0 512 512" style="enable-background:new 0 0 512 512;" xml:space="preserve">
<g transform="matrix(1.25 0 0 -1.25 0 45)">
	<g>
		<g>
			<path style="fill:#E8112D;" d="M409.6-271.2c0-25.134-20.378-45.511-45.511-45.511H45.511C20.378-316.711,0-296.334,0-271.2
				v204.8c0,25.134,20.378,45.511,45.511,45.511h318.578c25.134,0,45.511-20.378,45.511-45.511V-271.2z"/>
			<path style="fill:#FFCC4D;" d="M210.182-100.42c0.159,11.89,10.695,20.07,11.139,35.908c7.543-9.489-4.927-27.284-0.501-37.592
				c2.025,11.708,13.687,18.148,16.623,33.712c5.973-10.547-9.136-26.158-6.383-37.046c3.823,11.264,16.361,15.781,21.697,30.709
				c4.244-11.366-13.119-24.417-12.095-35.59c5.541,10.513,18.625,13.016,26.226,26.931c2.423-11.89-16.782-22.062-17.51-33.269
				c7.111,9.535,20.446,9.956,30.106,22.505c0.535-12.129-20.014-19.16-22.482-30.117c8.511,8.294,21.732,6.633,33.246,17.51
				c-1.365-12.06-22.756-15.804-26.943-26.226c9.717,6.861,22.539,3.152,35.601,12.095c-3.22-11.696-24.951-12.038-30.686-21.697
				c10.65,5.268,22.71-0.41,37.046,6.383c-5.018-11.036-26.556-7.987-33.735-16.612c11.355,3.516,22.403-3.971,37.604,0.489
				c-6.713-10.115-27.466-3.732-35.908-11.139c11.753,1.707,21.481-7.407,37.194-5.382c-8.181-8.943-27.705,0.614-37.194-5.382
				c11.878-0.159,20.059-10.706,35.886-11.127c-9.489-7.578-27.273,4.938-37.581,0.489c11.73-2.025,18.159-13.687,33.735-16.623
				c-10.559-5.973-26.18,9.136-37.069,6.383c11.264-3.823,15.804-16.361,30.709-21.697c-11.355-4.267-24.394,13.119-35.601,12.095
				c10.536-5.53,13.05-18.625,26.943-26.226c-11.89-2.423-22.05,16.782-33.269,17.51c9.535-7.111,9.956-20.446,22.505-30.106
				c-12.106-0.535-19.172,20.025-30.106,22.482c8.283-8.511,6.622-21.732,17.51-33.234c-12.072,1.354-15.804,22.756-26.226,26.931
				c6.849-9.717,3.14-22.539,12.095-35.601c-11.719,3.22-12.049,24.951-21.697,30.686c5.268-10.638-0.421-22.71,6.383-37.046
				c-11.048,5.029-7.999,26.556-16.623,33.735c3.516-11.355-3.959-22.403,0.501-37.604c-10.126,6.713-3.732,27.466-11.139,35.92
				c1.707-11.765-7.418-21.493-5.382-37.205c-8.954,8.181,0.603,27.716-5.382,37.205c-0.159-11.89-10.695-20.07-11.139-35.897
				c-7.566,9.466,4.927,27.273,0.489,37.581c-2.014-11.73-13.687-18.159-16.612-33.735c-5.985,10.559,9.136,26.18,6.372,37.046
				c-3.823-11.241-16.361-15.781-21.686-30.686c-4.255,11.355,13.119,24.394,12.095,35.601
				c-5.541-10.536-18.637-13.05-26.226-26.931c-2.423,11.878,16.782,22.039,17.51,33.234c-7.111-9.512-20.434-9.933-30.117-22.482
				c-0.535,12.106,20.025,19.172,22.494,30.106c-8.511-8.283-21.743-6.622-33.257-17.51c1.365,12.072,22.778,15.804,26.931,26.226
				c-9.705-6.849-22.517-3.129-35.59-12.095c3.231,11.719,24.963,12.049,30.697,21.697c-10.65-5.268-22.721,0.398-37.046-6.383
				c5.029,11.048,26.544,7.999,33.724,16.623c-11.355-3.504-22.38,3.959-37.592-0.489c6.69,10.103,27.466,3.732,35.908,11.127
				c-11.765-1.707-21.481,7.418-37.205,5.382c8.192,8.943,27.705-0.603,37.205,5.382c-11.89,0.159-20.059,10.695-35.908,11.139
				c9.489,7.566,27.273-4.927,37.592-0.489c-11.719,2.014-18.148,13.687-33.712,16.612c10.559,5.985,26.169-9.136,37.046-6.372
				c-11.264,3.823-15.781,16.361-30.709,21.686c11.366,4.255,24.417-13.119,35.59-12.095c-10.524,5.541-13.016,18.637-26.931,26.226
				c11.89,2.435,22.073-16.782,33.269-17.51c-9.523,7.111-9.944,20.446-22.505,30.117c12.117,0.535,19.16-20.025,30.117-22.494
				c-8.294,8.511-6.633,21.743-17.51,33.257c12.049-1.365,15.804-22.778,26.237-26.931c-6.872,9.705-3.152,22.505-12.106,35.59
				c11.696-3.231,12.049-24.963,21.697-30.697c-5.268,10.661,0.41,22.721-6.383,37.035c11.048-5.018,7.987-26.533,16.623-33.712
				c-3.527,11.355,3.959,22.38-0.501,37.592c10.115-6.69,3.732-27.466,11.139-35.897c-1.718,11.753,7.418,21.481,5.382,37.194
				C213.754-71.406,204.197-90.93,210.182-100.42"/>
			<path style="fill:#E8112D;" d="M204.8-224.665c30.822,0,55.808,24.997,55.808,55.819c0,30.834-24.986,55.819-55.808,55.819
				s-55.808-24.986-55.808-55.819C148.992-199.668,173.978-224.665,204.8-224.665"/>
			<g>
				<path style="fill:#FFCC4D;" d="M204.8-117.042c14.234,0,27.034-6.098,35.954-15.849c-13.983-1.411-25.839-4.699-35.954-9.717
					c-10.115,5.018-21.982,8.306-35.942,9.717C177.755-123.141,190.555-117.042,204.8-117.042"/>
				<path style="fill:#FFCC4D;" d="M201.125-144.565c-1.126-0.626-2.219-1.274-3.3-1.946c-9.068,4.813-19.934,7.919-32.836,8.841
					c0.592,0.831,1.206,1.65,1.843,2.435C180.247-136.419,191.568-139.627,201.125-144.565"/>
				<path style="fill:#FFCC4D;" d="M208.509-144.565c1.126-0.626,2.219-1.274,3.3-1.946c9.068,4.813,19.934,7.919,32.836,8.841
					c-0.569,0.831-1.195,1.65-1.843,2.435C229.387-136.419,218.066-139.627,208.509-144.565"/>
				<path style="fill:#FFCC4D;" d="M163.351-140.208c-0.512-0.831-1.001-1.684-1.468-2.56c12.015-0.273,22.096-3.049,30.379-7.623
					c0.865,0.66,1.741,1.286,2.64,1.9C186.254-143.769,175.798-140.822,163.351-140.208"/>
				<path style="fill:#FFCC4D;" d="M161.872-188.654c-4.187,7.202-5.734,14.017-5.734,22.938c0,7.282,1.57,14.143,4.415,20.332
					c11.628,0.08,21.367-2.458,29.309-6.872C178.085-161.894,168.55-173.18,161.872-188.654"/>
				<path style="fill:#FFCC4D;" d="M184.969-210.135c-2.185,0.842-4.562,3.22-6.588,4.358c1.161,18.284,9.717,33.326,21.641,45.966
					c0.887-0.853,1.741-1.729,2.549-2.651C191.477-175.422,184.366-192.227,184.969-210.135"/>
				<path style="fill:#FFCC4D;" d="M246.283-140.208c0.512-0.831,1.001-1.684,1.468-2.56c-12.026-0.273-22.107-3.049-30.379-7.623
					c-0.865,0.66-1.752,1.286-2.64,1.9C223.369-143.769,233.813-140.822,246.283-140.208"/>
				<path style="fill:#FFCC4D;" d="M247.751-188.666c4.176,7.202,5.734,14.029,5.734,22.949c0,7.282-1.582,14.143-4.426,20.332
					c-11.617,0.08-21.356-2.458-29.298-6.872C231.526-161.894,241.084-173.192,247.751-188.666"/>
				<path style="fill:#FFCC4D;" d="M204.8-166.638c8.727-14.04,10.399-29.4,9.921-46.751c-3.789-0.933-5.848-1.024-9.921-1.024
					c-4.085,0-6.133,0.091-9.921,1.024C194.401-196.926,196.073-181.213,204.8-166.638"/>
				<path style="fill:#FFCC4D;" d="M224.597-210.135c2.173,0.842,4.619,2.514,6.645,3.641c-1.161,18.295-9.717,34.042-21.641,46.683
					c-0.876-0.853-1.729-1.729-2.549-2.651C218.158-175.422,225.2-192.227,224.597-210.135"/>
				<path style="fill:#FFCC4D;" d="M197.109-157.195c-1.035,0.853-2.207,1.752-3.334,2.526
					c-12.356-10.945-21.515-23.654-26.67-40.903c1.911-2.173,1.866-3.777,4.13-5.575
					C174.421-183.022,184.741-169.153,197.109-157.195"/>
				<path style="fill:#FFCC4D;" d="M212.526-157.195c1.035,0.853,2.207,1.752,3.334,2.526
					c12.345-10.945,21.481-23.893,26.635-41.142c-1.911-2.173-2.196-3.538-4.46-5.336
					C234.86-183.022,224.893-169.153,212.526-157.195"/>
				<path style="fill:#FFCC4D;" d="M204.8-146.659c0.614-0.364,2.719-1.684,3.254-2.037c-0.831-0.512-2.731-1.798-3.254-2.162
					c-0.512,0.364-2.423,1.65-3.254,2.162C202.081-148.343,204.186-147.023,204.8-146.659"/>
				<path style="fill:#FFCC4D;" d="M198.656-150.721c-0.831-0.626-2.094-1.593-2.571-2.002c1.195-0.785,2.799-2.003,3.3-2.389
					c0.626,0.535,1.866,1.616,2.56,2.128C201.091-152.382,199.293-151.085,198.656-150.721"/>
				<path style="fill:#FFCC4D;" d="M210.978-150.721c0.831-0.626,2.094-1.593,2.571-2.002c-1.195-0.785-2.799-2.003-3.311-2.389
					c-0.614,0.535-1.855,1.616-2.549,2.128C208.532-152.382,210.33-151.085,210.978-150.721"/>
				<path style="fill:#FFCC4D;" d="M204.8-155.26c0.535-0.455,2.116-1.855,2.537-2.276c-0.751-0.66-1.923-1.764-2.537-2.458
					c-0.614,0.694-1.775,1.798-2.526,2.458C202.684-157.115,204.277-155.716,204.8-155.26"/>
			</g>
		</g>
	</g>
</g>
<g>
</g>
<g>
</g>
<g>
</g>
<g>
</g>
<g>
</g>
<g>
</g>
<g>
</g>
<g>
</g>
<g>
</g>
<g>
</g>
<g>
</g>
<g>
</g>
<g>
</g>
<g>
</g>
<g>
</g>
</svg>
