<?xml version="1.0" encoding="iso-8859-1"?>
<!-- Generator: Adobe Illustrator 19.0.0, SVG Export Plug-In . SVG Version: 6.00 Build 0)  -->
<svg version="1.1" id="Capa_1" xmlns="http://www.w3.org/2000/svg" xmlns:xlink="http://www.w3.org/1999/xlink" x="0px" y="0px"
	 viewBox="0 0 512 512" style="enable-background:new 0 0 512 512;" xml:space="preserve">
<g transform="matrix(1.25 0 0 -1.25 0 45)">
	<g>
		<g>
			<path style="fill:#DD2E44;" d="M364.089-20.889h-91.022v-295.822h91.022c25.134,0,45.511,20.378,45.511,45.511v204.8
				C409.6-41.266,389.222-20.889,364.089-20.889"/>
			<path style="fill:#265FB5;" d="M45.511-20.889C20.378-20.889,0-41.266,0-66.4v-204.8c0-25.134,20.378-45.511,45.511-45.511
				h91.022v295.822H45.511z"/>
			<path style="fill:#FFCC4D;" d="M136.533-316.711h136.533v295.822H136.533V-316.711z"/>
			<path style="fill:#DD2E44;" d="M227.556-168.8h-45.511v34.133h45.511V-168.8z"/>
			<path style="fill:#226699;" d="M182.044-168.8v-22.756l22.756-11.378l22.756,11.378v22.756H182.044z"/>
			<g>
				<path style="fill:#A0724A;" d="M182.044-89.156v-11.378h11.378v-22.756h22.756v22.756v11.378H182.044z"/>
				<path style="fill:#A0724A;" d="M216.178-202.933l-11.378-7.111l-11.378,7.111l-11.378-34.133l22.756-11.378l22.756,11.378
					L216.178-202.933z"/>
				<path style="fill:#A0724A;" d="M170.667-111.911l-11.378,11.378l-11.378-11.378v-91.022v-22.756l22.756,22.756v79.644h11.378
					L170.667-111.911z"/>
				<path style="fill:#A0724A;" d="M250.311-100.533l-11.378-11.378l-11.378-11.378h11.378v-79.644l22.756-22.756v22.756v91.022
					L250.311-100.533z"/>
			</g>
			<g>
				<path style="fill:#FFCC4D;" d="M190.76-168.8h-6.042v4.619h6.042V-168.8z"/>
				<path style="fill:#FFCC4D;" d="M224.893-168.8h-6.042v4.619h6.042V-168.8z"/>
			</g>
			<path style="fill:#77B255;" d="M177.914-222.765c-1.206-0.705-2.992,0.114-3.982,1.809l-25.395,43.986
				c-0.978,1.718-0.796,3.664,0.421,4.358l1.536,0.887c1.217,0.705,3.004-0.102,3.971-1.809l25.407-43.998
				c0.99-1.695,0.796-3.641-0.41-4.346L177.914-222.765z"/>
			<path style="fill:#FFCC4D;" d="M259.607-173.271c1.217-0.694,1.422-2.617,0.444-4.289l-24.929-43.213
				c-0.978-1.673-2.742-2.458-3.959-1.764l-1.536,0.887c-1.206,0.717-1.411,2.628-0.444,4.301l24.951,43.213
				c0.967,1.661,2.731,2.469,3.937,1.752L259.607-173.271z"/>
			<g>
				<path style="fill:#DD2E44;" d="M182.044-202.933l-11.378-11.378v-11.378l11.378,11.378V-202.933z"/>
				<path style="fill:#DD2E44;" d="M227.556-202.933v-11.378l11.378-11.378v11.378L227.556-202.933z"/>
			</g>
			<path style="fill:#FFCC4D;" d="M204.8-157.422l-11.378,11.378v-11.378V-179.7l11.378-11.856l11.378,11.856v22.278v11.378
				L204.8-157.422z"/>
		</g>
	</g>
</g>
<g>
</g>
<g>
</g>
<g>
</g>
<g>
</g>
<g>
</g>
<g>
</g>
<g>
</g>
<g>
</g>
<g>
</g>
<g>
</g>
<g>
</g>
<g>
</g>
<g>
</g>
<g>
</g>
<g>
</g>
</svg>
