<?xml version="1.0" encoding="iso-8859-1"?>
<!-- Generator: Adobe Illustrator 19.0.0, SVG Export Plug-In . SVG Version: 6.00 Build 0)  -->
<svg version="1.1" id="Capa_1" xmlns="http://www.w3.org/2000/svg" xmlns:xlink="http://www.w3.org/1999/xlink" x="0px" y="0px"
	 viewBox="0 0 512 512" style="enable-background:new 0 0 512 512;" xml:space="preserve">
<g transform="matrix(1.25 0 0 -1.25 0 45)">
	<g>
		<g>
			<path style="fill:#FFCC4D;" d="M409.6-271.2c0-25.134-20.378-45.511-45.511-45.511H45.511C20.378-316.711,0-296.334,0-271.2
				v204.8c0,25.134,20.378,45.511,45.511,45.511h318.578c25.134,0,45.511-20.378,45.511-45.511V-271.2z"/>
			<path style="fill:#DD2E44;" d="M398.222-271.2c0-18.853-15.28-34.133-34.133-34.133H45.511c-18.853,0-34.133,15.28-34.133,34.133
				v204.8c0,18.853,15.28,34.133,34.133,34.133h318.578c18.853,0,34.133-15.28,34.133-34.133V-271.2z"/>
			<path style="fill:#FFCC4D;" d="M260.38-161.985c6.872,27.42-15.406,51.666-15.406,51.666l-5.837-28.456l-12.004-15.804
				l4.983-8.863l-4.972-2.765l-11.799,16.35l4.369,9.899l15.201,7.839l-16.828,5.564l-10.194-11.867L204.8-151.54l-3.891,13.119
				l-11.014,11.867l-15.792-3.607l13.244-8.829l5.291-10.866l-10.843-16.873l-5.928,3.288l4.983,8.863l-11.992,15.804l-5.848,28.456
				c0,0-22.266-24.246-15.406-51.666c6.872-27.42,36.42-31.266,36.42-31.266l-18.796-12.709l-11.002-0.887l-1.877-12.072
				l9.967-4.642l8.761,9.603l21.811,7.999l-12.436-18.136l24.348-12.971l23.552,12.971l-12.174,17.169v0.717l20.935-7.748
				l8.658-9.603l9.921,4.642l-1.911,12.072l-11.025,0.887l-18.796,12.709C223.96-193.251,253.508-189.405,260.38-161.985"/>
			<g>
				<path style="fill:#5C913B;" d="M204.8-185.867v-14.757c0,0-2.059,3.095-8.533,4.983c-8.533,2.48-9.956,9.774-9.956,9.774H204.8z
					"/>
				<path style="fill:#5C913B;" d="M204.8-185.867v-14.757c0,0,2.059,3.095,8.533,4.983c8.533,2.48,9.956,9.774,9.956,9.774H204.8z"
					/>
			</g>
			<g>
				<path style="fill:#226699;" d="M190.396-155.147c0,0,8.351-3.379,14.404-0.353v-28.979h-18.489c0,0-0.717,6.224,1.775,14.404
					c1.559,5.097-1.422,9.239-1.422,9.239L190.396-155.147z"/>
				<path style="fill:#226699;" d="M219.227-155.147c0,0-8.351-3.379-14.404-0.353v-28.979h18.489c0,0,0.717,6.224-1.775,14.404
					c-1.559,5.097,1.422,9.239,1.422,9.239L219.227-155.147z"/>
				<path style="fill:#226699;" d="M262.599-204.89c0-5.006-4.051-9.068-9.068-9.068c-5.006,0-9.068,4.062-9.068,9.068
					c0,5.018,4.062,9.068,9.068,9.068C258.549-195.822,262.599-199.873,262.599-204.89"/>
			</g>
			<g>
				<path style="fill:#FFCC4D;" d="M216.519-123.551c0-2.503-4.972-4.54-11.116-4.54c-6.133,0-11.105,2.037-11.105,4.54
					s4.972,4.528,11.105,4.528C211.547-119.022,216.519-121.047,216.519-123.551"/>
				<path style="fill:#FFCC4D;" d="M217.202-117.634c-2.128-0.933-3.026,0.751-1.286,2.594s-0.319,6.155-0.319,6.155
					s3.026-1.775,3.379-3.561C219.329-114.221,219.329-116.713,217.202-117.634 M211.206-114.949
					c-0.489-1.434-0.58-2.287-1.354-2.526c-0.774-0.239-3.664,1.013-3.664,1.013s1.411,1.889,1.775,3.664
					c0.353,1.775-0.887,5.393-0.887,5.393s4.437-1.479,4.79-3.254C212.23-112.446,211.695-113.504,211.206-114.949 M200.192-117.475
					c-0.762,0.239-0.853,1.092-1.343,2.526c-0.489,1.445-1.024,2.503-0.671,4.289c0.353,1.775,4.801,3.254,4.801,3.254
					s-1.24-3.618-0.887-5.393c0.353-1.775,1.775-3.664,1.775-3.664S200.966-117.714,200.192-117.475 M192.842-117.634
					c-2.128,0.922-2.128,3.413-1.775,5.188c0.353,1.786,3.379,3.561,3.379,3.561s-2.059-4.312-0.319-6.155
					S194.981-118.567,192.842-117.634 M205.119-103.378c-9.626,0-17.431-4.494-17.431-10.035c0-5.552,7.805-10.047,17.431-10.047
					c9.614,0,17.419,4.494,17.419,10.047C222.538-107.872,214.733-103.378,205.119-103.378"/>
				<path style="fill:#FFCC4D;" d="M262.599-205.869c-0.307-1.24-1.582-1.98-2.81-1.661l-12.561,3.265
					c-1.229,0.319-1.957,1.593-1.65,2.822c0.319,1.24,1.582,1.968,2.81,1.661l12.561-3.265
					C262.178-203.377,262.94-204.629,262.599-205.869"/>
				<path style="fill:#FFCC4D;" d="M255.943-204.424c-0.273-1.092-1.377-1.752-2.492-1.468c-1.092,0.284-1.741,1.388-1.456,2.503
					l2.81,12.868c0.284,1.07,1.377,1.741,2.492,1.456c1.104-0.296,1.741-1.399,1.456-2.492L255.943-204.424z"/>
				<path style="fill:#FFCC4D;" d="M168.789-235.701c-0.683-0.262-1.889,1.161-2.674,3.163l-22.141,56.229
					c-0.796,2.014-0.876,3.868-0.193,4.13l1.115,0.455c0.694,0.262,3.584-0.489,4.369-2.503l22.13-56.218
					c0.796-2.014-0.796-4.528-1.49-4.813L168.789-235.701z"/>
				<path style="fill:#FFCC4D;" d="M214.062-184.444h-18.557v12.823h18.557V-184.444z"/>
			</g>
		</g>
	</g>
</g>
<g>
</g>
<g>
</g>
<g>
</g>
<g>
</g>
<g>
</g>
<g>
</g>
<g>
</g>
<g>
</g>
<g>
</g>
<g>
</g>
<g>
</g>
<g>
</g>
<g>
</g>
<g>
</g>
<g>
</g>
</svg>
