<?xml version="1.0" encoding="iso-8859-1"?>
<!-- Generator: Adobe Illustrator 19.0.0, SVG Export Plug-In . SVG Version: 6.00 Build 0)  -->
<svg version="1.1" id="Capa_1" xmlns="http://www.w3.org/2000/svg" xmlns:xlink="http://www.w3.org/1999/xlink" x="0px" y="0px"
	 viewBox="0 0 512 512" style="enable-background:new 0 0 512 512;" xml:space="preserve">
<path style="fill:#C1272D;" d="M455.111,71.111H56.889C25.472,71.111,0,96.583,0,128v256c0,31.417,25.472,56.889,56.889,56.889
	h398.222C486.528,440.889,512,415.417,512,384V128C512,96.583,486.528,71.111,455.111,71.111z"/>
<path style="fill:#006233;" d="M260.985,235.353l-4.978-15.346l-4.992,15.346H260.985z M275.478,245.877l3.072,9.458l13.013-9.458
	H275.478z M220.452,245.877l13.013,9.458l3.072-9.458H220.452z M242.411,261.834l13.596,9.87l13.582-9.87l-5.191-15.957h-16.796
	C247.602,245.877,242.411,261.834,242.411,261.834z M238.998,272.359l-4.978,15.317l13.028-9.458L238.998,272.359z M264.953,278.218
	l13.028,9.458l-4.978-15.317L264.953,278.218z M213.995,315.225l16.043-49.365l-41.998-30.507h51.911l16.057-49.408l16.043,49.408
	h51.911l-41.998,30.507l16.043,49.365l-41.998-30.507L213.995,315.225z"/>
<g>
</g>
<g>
</g>
<g>
</g>
<g>
</g>
<g>
</g>
<g>
</g>
<g>
</g>
<g>
</g>
<g>
</g>
<g>
</g>
<g>
</g>
<g>
</g>
<g>
</g>
<g>
</g>
<g>
</g>
</svg>
