<?xml version="1.0" encoding="iso-8859-1"?>
<!-- Generator: Adobe Illustrator 19.0.0, SVG Export Plug-In . SVG Version: 6.00 Build 0)  -->
<svg version="1.1" id="Capa_1" xmlns="http://www.w3.org/2000/svg" xmlns:xlink="http://www.w3.org/1999/xlink" x="0px" y="0px"
	 viewBox="0 0 511.999 511.999" style="enable-background:new 0 0 511.999 511.999;" xml:space="preserve">
<g transform="matrix(1.25 0 0 -1.25 0 45)">
	<g>
		<path style="fill:#00247D;" d="M364.089-20.89H45.515c-25.133,0-45.511-20.378-45.511-45.511v-204.798
			c0-25.133,20.378-45.511,45.511-45.511h318.574c25.133,0,45.511,20.378,45.511,45.511v204.798
			C409.599-41.267,389.223-20.89,364.089-20.89z"/>
		<g>
			<g>
				<g>
					<path style="fill:#EEEEEE;" d="M216.179-168.8v23.085l-80.781,56.559H75.905L189.647-168.8H216.179z"/>
					<path style="fill:#CF1B2B;" d="M216.179-152.666l-90.691,63.51h-19.831l110.522-77.391V-152.666z"/>
					<path style="fill:#EEEEEE;" d="M92.159-89.156L0-154.759v-14.04h37.91l113.754,79.644L92.159-89.156L92.159-89.156z"/>
					<path style="fill:#CF1B2B;" d="M121.904-89.156L8.355-168.8h3.026h16.623l113.742,79.644H121.904z"/>
					<path style="fill:#EEEEEE;" d="M189.658-20.89L75.916-100.534h59.493l80.77,56.559v23.085H189.658z"/>
					<path style="fill:#CF1B2B;" d="M199.558-20.89L85.827-100.534h19.831L216.18-23.143v2.253H199.558z"/>
				</g>
				<path style="fill:#EEEEEE;" d="M7.545-41.318l106.235-74.36v15.144h37.865L38.651-21.406
					C25.67-23.37,14.494-30.822,7.545-41.318z"/>
				<path style="fill:#CF1B2B;" d="M11.028-36.724l102.753-72.024v8.214h8.123L19.671-28.947
					C16.467-31.163,13.564-33.78,11.028-36.724z"/>
			</g>
			<g>
				<path style="fill:#EEEEEE;" d="M216.179-66.401h-79.644v45.511H79.648v-45.511H0.004v-56.888h79.644V-168.8h56.888v45.511
					h79.644V-66.401z"/>
				<g>
					<path style="fill:#CF1B2B;" d="M125.158-168.8H91.025V-20.89h34.133V-168.8z"/>
					<path style="fill:#CF1B2B;" d="M216.179-111.911H0.004v34.133h216.175V-111.911z"/>
				</g>
			</g>
		</g>
	</g>
	<g>
		<path style="fill:#263778;" d="M371.591-122.633l-5.37-4.449l2.264-6.668l3.027-8.909l-7.452,5.734l-5.655,4.358l-5.666-4.358
			l-7.452-5.734l3.027,8.909l2.264,6.668l-5.37,4.449l-6.087,5.04h7.907h6.463l2.219,6.587l2.696,8.044l2.696-8.044l2.207-6.587
			h6.474h7.896L371.591-122.633z M326.081-77.123l-5.37-4.449l2.264-6.668l3.027-8.909l-7.452,5.734l-5.655,4.358l-5.666-4.358
			l-7.452-5.734l3.027,8.909l2.264,6.668l-5.37,4.449l-6.087,5.04h7.907h6.463l2.219,6.587l2.696,8.044l2.696-8.044l2.207-6.587
			h6.474h7.896L326.081-77.123z M326.081-262.01l-5.37-4.449l2.264-6.668l3.027-8.909l-7.452,5.734l-5.655,4.358l-5.666-4.358
			l-7.452-5.734l3.027,8.909l2.264,6.668l-5.37,4.449l-6.087,5.04h7.907h6.463l2.219,6.587l2.696,8.044l2.696-8.044l2.207-6.587
			h6.474h7.896L326.081-262.01z M280.57-145.389l-5.37-4.449l2.264-6.668l3.027-8.909l-7.452,5.734l-5.655,4.358l-5.666-4.358
			l-7.452-5.734l3.027,8.909l2.264,6.668l-5.37,4.449l-6.087,5.04h7.907h6.463l2.219,6.587l2.696,8.044l2.696-8.044l2.207-6.587
			h6.474h7.896L280.57-145.389z"/>
		<path style="fill:#CF1B2B;" d="M312.889-66.401l-2.856-8.533h-8.522l6.883-5.701l-2.901-8.522l7.395,5.689l7.395-5.689
			l-2.901,8.522l6.883,5.701h-8.522L312.889-66.401z"/>
		<path style="fill:#EEEDED;" d="M317.386-80.631l2.901-8.522l-7.395,5.689l-7.395-5.689l2.901,8.522l-6.883,5.701h8.511
			l2.867,8.533l2.856-8.533h8.522L317.386-80.631z M317.796-72.086l-2.207,6.587l-2.696,8.044l-2.696-8.044l-2.219-6.587h-6.463
			h-7.896l6.075-5.04l5.382-4.449l-2.276-6.668l-3.027-8.909l7.464,5.746l5.655,4.346l5.655-4.346L326-97.152l-3.027,8.909
			l-2.264,6.668l5.37,4.449l6.087,5.04h-7.896C324.27-72.086,317.796-72.086,317.796-72.086z"/>
		<path style="fill:#CF1B2B;" d="M312.889-251.288l-2.856-8.533h-8.522l6.883-5.701l-2.901-8.522l7.395,5.689l7.395-5.689
			l-2.901,8.522l6.883,5.701h-8.522L312.889-251.288z"/>
		<path style="fill:#EEEDED;" d="M317.386-265.518l2.901-8.522l-7.395,5.689l-7.395-5.689l2.901,8.522l-6.883,5.701h8.511
			l2.867,8.533l2.856-8.533h8.522L317.386-265.518z M317.796-256.973l-2.207,6.587l-2.696,8.044l-2.696-8.044l-2.219-6.587h-6.463
			h-7.896l6.075-5.04l5.382-4.449l-2.276-6.668l-3.027-8.909l7.464,5.746l5.655,4.346l5.655-4.346l7.452-5.746l-3.027,8.909
			l-2.264,6.668l5.37,4.449l6.087,5.04h-7.896C324.27-256.973,317.796-256.973,317.796-256.973z"/>
		<path style="fill:#CF1B2B;" d="M358.4-111.911l-2.856-8.533h-8.522l6.883-5.701l-2.901-8.522l7.395,5.689l7.395-5.689
			l-2.901,8.522l6.883,5.701h-8.522L358.4-111.911z"/>
		<path style="fill:#EEEDED;" d="M362.897-126.142l2.901-8.522l-7.395,5.689l-7.395-5.689l2.901,8.522l-6.883,5.701h8.511
			l2.867,8.533l2.856-8.533h8.522L362.897-126.142z M363.307-117.597l-2.207,6.587l-2.696,8.044l-2.696-8.044l-2.219-6.587h-6.463
			h-7.896l6.075-5.04l5.382-4.449l-2.276-6.668l-3.027-8.909l7.464,5.746l5.655,4.346l5.655-4.346l7.452-5.746l-3.027,8.909
			l-2.264,6.668l5.37,4.449l6.087,5.04h-7.896C369.78-117.597,363.307-117.597,363.307-117.597z"/>
		<path style="fill:#CF1B2B;" d="M267.379-134.667l-2.856-8.533h-8.522l6.883-5.701l-2.901-8.522l7.395,5.689l7.395-5.689
			l-2.901,8.522l6.883,5.701h-8.522L267.379-134.667z"/>
		<path style="fill:#EEEDED;" d="M271.876-148.897l2.901-8.522l-7.395,5.689l-7.395-5.689l2.901,8.522l-6.883,5.701h8.511
			l2.867,8.533l2.856-8.533h8.522L271.876-148.897z M272.286-140.352l-2.207,6.587l-2.696,8.044l-2.696-8.044l-2.219-6.587h-6.463
			h-7.896l6.075-5.04l5.382-4.449l-2.276-6.668l-3.027-8.909l7.464,5.746l5.655,4.346l5.655-4.346l7.452-5.746l-3.027,8.909
			l-2.264,6.668l5.37,4.449l6.087,5.04h-7.896C278.759-140.352,272.286-140.352,272.286-140.352z"/>
	</g>
</g>
<g>
</g>
<g>
</g>
<g>
</g>
<g>
</g>
<g>
</g>
<g>
</g>
<g>
</g>
<g>
</g>
<g>
</g>
<g>
</g>
<g>
</g>
<g>
</g>
<g>
</g>
<g>
</g>
<g>
</g>
</svg>
