<?xml version="1.0" encoding="iso-8859-1"?>
<!-- Generator: Adobe Illustrator 19.0.0, SVG Export Plug-In . SVG Version: 6.00 Build 0)  -->
<svg version="1.1" id="Capa_1" xmlns="http://www.w3.org/2000/svg" xmlns:xlink="http://www.w3.org/1999/xlink" x="0px" y="0px"
	 viewBox="0 0 512 512" style="enable-background:new 0 0 512 512;" xml:space="preserve">
<path style="fill:#024FA2;" d="M455.111,71.111H56.889C25.472,71.111,0,96.583,0,128v14.222v227.556V384
	c0,31.417,25.472,56.889,56.889,56.889h398.222C486.528,440.889,512,415.417,512,384v-14.222V142.222V128
	C512,96.583,486.528,71.111,455.111,71.111z"/>
<g>
	<rect y="128" style="fill:#EEEEEE;" width="512" height="14.222"/>
	<polygon style="fill:#EEEEEE;" points="512,369.778 0,369.778 0,384 512,384 512,369.778 	"/>
</g>
<path style="fill:#ED1C27;" d="M512,369.778V142.222H0v227.556l0,0H512L512,369.778z M188.84,173.827
	c45.383,0,82.176,36.793,82.176,82.176s-36.793,82.176-82.176,82.176s-82.176-36.793-82.176-82.176S143.457,173.827,188.84,173.827z
	"/>
<path style="fill:#FFFFFF;" d="M170.966,231.401l17.877-55.012l17.863,55.012h57.842l-46.791,33.991l17.877,55.012l-46.791-33.991
	l-46.791,33.991l17.863-55.012l-46.791-33.991H170.966z M188.844,338.168c45.383,0,82.162-36.779,82.162-82.162
	s-36.779-82.176-82.162-82.176s-82.176,36.793-82.176,82.176S143.46,338.168,188.844,338.168"/>
<path style="fill:#ED1C27;" d="M142.049,320.402l46.791-33.991l46.791,33.991l-17.877-55.012l46.791-33.991h-57.828l-17.877-54.997
	l-17.877,54.997h-57.828l46.791,33.991L142.049,320.402z"/>
<g>
</g>
<g>
</g>
<g>
</g>
<g>
</g>
<g>
</g>
<g>
</g>
<g>
</g>
<g>
</g>
<g>
</g>
<g>
</g>
<g>
</g>
<g>
</g>
<g>
</g>
<g>
</g>
<g>
</g>
</svg>
