<?xml version="1.0" encoding="iso-8859-1"?>
<!-- Generator: Adobe Illustrator 19.0.0, SVG Export Plug-In . SVG Version: 6.00 Build 0)  -->
<svg version="1.1" id="Capa_1" xmlns="http://www.w3.org/2000/svg" xmlns:xlink="http://www.w3.org/1999/xlink" x="0px" y="0px"
	 viewBox="0 0 512 512" style="enable-background:new 0 0 512 512;" xml:space="preserve">
<path style="fill:#EEEEEE;" d="M455.111,71.111H256H56.889C25.472,71.111,0,96.583,0,128v128v128
	c0,31.417,25.472,56.889,56.889,56.889H256h199.111C486.528,440.889,512,415.417,512,384V256V128
	C512,96.583,486.528,71.111,455.111,71.111z"/>
<path style="fill:#005293;" d="M0,256v128c0,31.417,25.472,56.889,56.889,56.889H256V256H0z"/>
<path style="fill:#D21034;" d="M455.111,71.111H256V256h256V128C512,96.583,486.528,71.111,455.111,71.111z"/>
<path style="fill:#005293;" d="M137.579,150.372l-9.586-29.483l-9.572,29.483H87.417l25.088,18.219l-9.586,29.483l25.074-18.219
	l25.088,18.219l-9.586-29.483l25.088-18.219H137.579z"/>
<path style="fill:#D21034;" d="M368.5,353.481l-9.586,29.483l25.088-18.219l25.074,18.219l-9.572-29.483l25.074-18.219h-31.004
	l-9.572-29.483l-9.586,29.483h-30.99L368.5,353.481z"/>
<g>
</g>
<g>
</g>
<g>
</g>
<g>
</g>
<g>
</g>
<g>
</g>
<g>
</g>
<g>
</g>
<g>
</g>
<g>
</g>
<g>
</g>
<g>
</g>
<g>
</g>
<g>
</g>
<g>
</g>
</svg>
