<?xml version="1.0" encoding="iso-8859-1"?>
<!-- Generator: Adobe Illustrator 19.0.0, SVG Export Plug-In . SVG Version: 6.00 Build 0)  -->
<svg version="1.1" id="Capa_1" xmlns="http://www.w3.org/2000/svg" xmlns:xlink="http://www.w3.org/1999/xlink" x="0px" y="0px"
	 viewBox="0 0 512 512" style="enable-background:new 0 0 512 512;" xml:space="preserve">
<g transform="matrix(1.25 0 0 -1.25 0 45)">
	<g>
		<g>
			<path style="fill:#0038A8;" d="M0-271.2c0-25.134,20.378-45.511,45.511-45.511h318.578c25.134,0,45.511,20.378,45.511,45.511
				v45.511H0V-271.2z"/>
			<path style="fill:#EEEEEE;" d="M0-225.689h409.6v113.778H0V-225.689z"/>
			<path style="fill:#D52B1E;" d="M364.089-20.889H45.511C20.378-20.889,0-41.266,0-66.4v-45.511h409.6V-66.4
				C409.6-41.266,389.222-20.889,364.089-20.889"/>
			<path d="M250.311-168.8c0-25.134-20.378-45.511-45.511-45.511s-45.511,20.378-45.511,45.511s20.378,45.511,45.511,45.511
				S250.311-143.666,250.311-168.8"/>
			<path style="fill:#EEEEEE;" d="M247.467-168.8c0-23.563-19.115-42.667-42.667-42.667c-23.563,0-42.667,19.103-42.667,42.667
				s19.103,42.667,42.667,42.667C228.352-126.133,247.467-145.237,247.467-168.8"/>
			<path d="M241.778-168.8c0-20.423-16.555-36.978-36.978-36.978s-36.978,16.555-36.978,36.978s16.555,36.978,36.978,36.978
				S241.778-148.377,241.778-168.8"/>
			<path style="fill:#EEEEEE;" d="M240.412-168.8c0-19.638-15.929-35.567-35.556-35.567c-19.638,0-35.556,15.929-35.556,35.567
				c0,19.627,15.918,35.544,35.556,35.544C224.484-133.256,240.412-149.173,240.412-168.8"/>
			<path style="fill:#99AAB5;" d="M240.412-168.572c0,19.684-15.952,35.635-35.635,35.635c-19.695,0-35.647-15.952-35.647-35.635
				c0-6.531,1.752-12.641,4.813-17.897l30.857,16.964l30.8-16.964C238.66-181.213,240.412-175.103,240.412-168.572"/>
			<path d="M233.244-168.8c0-15.713-12.732-28.444-28.444-28.444c-15.701,0-28.444,12.732-28.444,28.444
				s12.743,28.444,28.444,28.444C220.513-140.356,233.244-153.087,233.244-168.8"/>
			<path style="fill:#EEEEEE;" d="M232.107-168.8c0,15.087-12.22,27.307-27.307,27.307s-27.307-12.22-27.307-27.307
				s12.22-27.307,27.307-27.307C219.887-196.107,232.107-183.887,232.107-168.8"/>
			<path style="fill:#FFAC33;" d="M204.8-159.493l2.094-6.428h6.758l-5.473-3.982l2.082-6.428l-5.461,3.971l-5.461-3.971
				l2.082,6.428l-5.473,3.982h6.758L204.8-159.493z"/>
			<g>
				<path style="fill:#007127;" d="M210.455-151.927c0,0,3.413,0.796,5.416,1.001s3.812-4.403,6.201-5.211
					c2.435-0.808,2.412-3.209,3.413-6.007c1.001-2.81,0.398-3.413,0.398-6.61c0-3.209,1.809-4.813,1.411-7.225
					c-0.41-2.401-2.412-3.004-3.607-4.608c-1.195-1.604-0.205-3.607-1.411-4.801c-1.195-1.206-5.211-1.001-6.61-2.219
					c-1.399-1.195-4.005-2.992-5.814-1.991c-1.798,0.99-5.609,1.399-5.609,1.399s1.001,3.607,3.812,4.801
					c2.81,1.206,4.005,1.001,6.61,1.809c2.617,0.808,2.401,2.003,4.21,3.607c1.798,1.604,2.002,3.812,3.004,5.416
					c1.013,1.604,1.206,2.799,0.808,5.006c-0.41,2.207-1.206,4.608-2.014,6.622c-0.796,1.991-2.594,4.403-3.812,5.803
					C215.666-153.736,210.455-151.927,210.455-151.927"/>
				<path style="fill:#007127;" d="M198.03-153.121c0,0,1.991,4.358,0,4.608c-8.021,1.001-9.626-6.212-12.026-7.009
					c-2.435-0.819-2.81-4.813-3.812-7.623c-1.001-2.799-0.592-3.402-0.592-6.61c0-3.209,0.057-3.812,0.455-6.212
					c0.398-2.412,0.944-4.21,2.15-5.825c1.195-1.593,1.661-2.389,2.867-3.595c1.195-1.195,3.538-2.412,4.949-3.607
					c1.399-1.206,5.666-1.604,7.475-0.603c1.798,1.001,4.938,1.399,4.938,1.399s-1.331,2.412-4.142,3.607
					c-2.799,1.206-3.004,2.207-5.609,3.004c-2.606,0.808-2.401,2.014-4.21,3.618c-1.798,1.604-2.002,3.8-3.004,5.404
					c-1.001,1.604-0.466,2.002-0.068,4.21c0.41,2.207,1.206,4.005,2.014,6.007c0.796,2.014,2.799,4.619,4.005,6.019
					C194.628-154.93,198.03-153.121,198.03-153.121"/>
				<path style="fill:#007127;" d="M198.235-189.963l2.606-1.798l3.402,2.401l3.209-2.207l4.21,1.604l-4.21-3.015l-3.004,2.412
					l-3.209-2.207l-3.209,1.809L198.235-189.963z"/>
			</g>
		</g>
	</g>
</g>
<g>
</g>
<g>
</g>
<g>
</g>
<g>
</g>
<g>
</g>
<g>
</g>
<g>
</g>
<g>
</g>
<g>
</g>
<g>
</g>
<g>
</g>
<g>
</g>
<g>
</g>
<g>
</g>
<g>
</g>
</svg>
