<?xml version="1.0" encoding="iso-8859-1"?>
<!-- Generator: Adobe Illustrator 19.0.0, SVG Export Plug-In . SVG Version: 6.00 Build 0)  -->
<svg version="1.1" id="Capa_1" xmlns="http://www.w3.org/2000/svg" xmlns:xlink="http://www.w3.org/1999/xlink" x="0px" y="0px"
	 viewBox="0 0 512 512" style="enable-background:new 0 0 512 512;" xml:space="preserve">
<g transform="matrix(1.25 0 0 -1.25 0 45)">
	<g>
		<g>
			<path style="fill:#EEEEEE;" d="M364.089-20.889h-0.262H45.761h-0.25C20.378-20.889,0-41.266,0-66.4v-4.506v-195.777v-4.517
				c0-25.134,20.378-45.511,45.511-45.511h0.25h318.066h0.262c25.134,0,45.511,20.378,45.511,45.511v4.506v195.789v4.506
				C409.6-41.266,389.222-20.889,364.089-20.889"/>
			<g>
				<path style="fill:#0065BD;" d="M147.911-168.8C147.911-168.8,0-61.69,0-65.205v-4.562v-198.064v-4.562
					C0-275.91,147.911-168.8,147.911-168.8"/>
				<path style="fill:#0065BD;" d="M204.8-202.933c0,0-162.736-113.778-158.481-113.778h0.25h316.462h0.262
					C367.536-316.711,204.8-202.933,204.8-202.933"/>
				<path style="fill:#0065BD;" d="M261.689-168.8c0,0,147.911-107.11,147.911-103.595v4.563v198.064v4.562
					C409.6-61.69,261.689-168.8,261.689-168.8"/>
				<path style="fill:#0065BD;" d="M204.8-134.667c0,0-162.736,113.778-158.481,113.778h0.25h316.462h0.262
					C367.536-20.889,204.8-134.667,204.8-134.667"/>
			</g>
		</g>
	</g>
</g>
<g>
</g>
<g>
</g>
<g>
</g>
<g>
</g>
<g>
</g>
<g>
</g>
<g>
</g>
<g>
</g>
<g>
</g>
<g>
</g>
<g>
</g>
<g>
</g>
<g>
</g>
<g>
</g>
<g>
</g>
</svg>
