<?xml version="1.0" encoding="iso-8859-1"?>
<!-- Generator: Adobe Illustrator 19.0.0, SVG Export Plug-In . SVG Version: 6.00 Build 0)  -->
<svg version="1.1" id="Capa_1" xmlns="http://www.w3.org/2000/svg" xmlns:xlink="http://www.w3.org/1999/xlink" x="0px" y="0px"
	 viewBox="0 0 512 512" style="enable-background:new 0 0 512 512;" xml:space="preserve">
<g transform="matrix(1.25 0 0 -1.25 0 45)">
	<path style="fill:#0C4076;" d="M0-225.689h409.6V-111.9H0V-225.689z"/>
	<g>
		<path style="fill:#EEEEEE;" d="M142.222-282.578c-32.646,0-59.433,25.001-62.309,56.889H0V-271.2
			c0-25.133,20.378-45.511,45.511-45.511h318.578c25.133,0,45.511,20.378,45.511,45.511v45.511H204.531
			C201.655-257.577,174.868-282.578,142.222-282.578z"/>
		<g>
			<path style="fill:#C6363C;" d="M96.35-78.137c-0.353-3.55,1.069-5.507,1.069-3.55c0,1.944,3.58,0.495,4.541-2.96
				c-0.381,1.974-0.824,5.897,1.148,6.51c2.844,0.899,4.801-4.085,4.983-2.844c0.171,1.252-1.422,2.139-0.717,2.844
				c0.717,0.717,4.619-2.48,4.619-2.48s-1.24,2.128-2.31,3.015c-1.058,0.887,0,2.571,0,2.571s-2.31,1.525-3.55,3.834
				c-1.252,2.31-3.561,12.436-3.561,12.436s-5.86-1.422-8.533-3.197c-2.662-1.775-2.662-4.437-0.535-7.464
				C95.645-72.448,96.715-74.576,96.35-78.137z"/>
			<path style="fill:#C6363C;" d="M117.695-71.732c-1.07-0.717-1.183-1.957-1.183-1.957s1.536-0.887,0.819-2.662
				c-0.705-1.775-1.422-3.914,0-3.379s2.31,2.844,3.732,3.379c1.422,0.535-0.705-1.786,1.16-3.208
				c1.866-1.422,4.096-1.468,4.892-2.662c-1.786,1.957-2.731,7.543,0,7.646c4.801,0.182,1.957-7.293,1.957-7.293
				s2.31-0.887,2.31,1.252c0,2.128,2.48,1.957,2.128,3.379c-0.353,1.422,0.717,2.128,2.492,0.887
				c1.775-1.24,2.492-2.844,3.379-1.957c0.887,0.888,0,1.775-1.422,3.015c-1.422,1.252-3.027,2.139-0.887,3.026
				c-0.887,1.07-3.914,3.027-3.914,3.027s4.085,6.042,1.422,18.307c-14.939,0.353-20.264-2.662-21.868-5.336
				c-1.604-2.662,3.561-10.661,4.983-12.083S118.753-71.026,117.695-71.732z"/>
			<path style="fill:#C6363C;" d="M364.089-20.889H45.511C20.378-20.889,0-41.267,0-66.4v-45.511h79.644V-220
				c0-1.919,0.1-3.814,0.269-5.689c2.876-31.888,29.663-56.889,62.309-56.889s59.433,25.001,62.309,56.889
				c0.169,1.875,0.269,3.77,0.269,5.689v108.089h204.8V-66.4C409.6-41.267,389.222-20.889,364.089-20.889z M116.101-255.069
				c-0.501,2.241-3.459,1.741-3.459-1.001c0-2.731,2.469-1.49,2.162-2.606c-0.296-1.126-2.56-3.482-4.05-3.482
				s-3.743,2.355-4.05,3.482c-0.307,1.115,2.173-0.125,2.173,2.606c0,2.742-2.981,3.243-3.47,1.001
				c-1.741,2.492-1.126,6.599,2.674,4.358c-1.559,3.595-0.467,4.107,0.796,5.359c1.252,1.24,1.877,2.97,1.877,2.97
				s0.626-1.729,1.889-2.97c1.252-1.252,2.344-1.764,0.785-5.359C117.228-248.469,117.853-252.577,116.101-255.069z
				 M162.774-269.067c-1.752-3.641-12.595-5.962-20.526-6.133c-0.034,0-0.046-0.034-0.08-0.034c-0.137,0-0.296,0.011-0.444,0.011
				s-0.307-0.011-0.444-0.011c-0.034,0-0.057,0.034-0.08,0.034c-7.93,0.171-18.773,2.492-20.526,6.133
				c-1.809,3.789,4.699,13.505,4.699,13.505s-2.606,3.322-0.887,6.167c1.718,2.844,5.074,7.816,5.074,7.816s-2.298,1.911,0,6.645
				c1.777,3.641,2.058,9.113,0.568,12.524c3.536-1.866,7.562-2.927,11.838-2.927c4.026,0,7.832,0.94,11.216,2.607
				c-1.335-3.427-1.021-8.677,0.692-12.204c2.31-4.733,0-6.645,0-6.645s3.356-4.972,5.086-7.816
				c1.718-2.844-0.887-6.167-0.887-6.167S164.594-265.278,162.774-269.067z M177.973-255.069c-0.501,2.241-3.47,1.741-3.47-1.001
				c0-2.731,2.48-1.49,2.173-2.606c-0.307-1.126-2.56-3.482-4.05-3.482c-1.502,0-3.755,2.355-4.05,3.482
				c-0.307,1.115,2.162-0.125,2.162,2.606c0,2.742-2.97,3.243-3.459,1.001c-1.752,2.492-1.126,6.599,2.662,4.358
				c-1.547,3.595-0.466,4.107,0.796,5.359c1.263,1.24,1.889,2.97,1.889,2.97s0.614-1.729,1.877-2.97
				c1.263-1.252,2.355-1.764,0.796-5.359C179.1-248.469,179.714-252.577,177.973-255.069z M193.141-234.694
				c-4.403,1.183-7.134,6.872-7.134,6.872s1.468-6.872-1.263-6.167c-2.731,0.717-3.356,5.928-5.461,7.828
				c-2.094,1.9-3.777,6.167-3.777,6.167s-4.403,1.65,0-5.689c-3.573-0.239-5.882,2.128-5.882,2.128l-0.379-2.01
				c2.215-5.551,3.229-8.258,6.892-8.014c4.619,0.307,7.873,1.092,7.873-0.774c0-1.855-7.327-1.081-7.327-1.081
				s6.929-2.958,5.564-6.349c-1.354-3.413-7.327,4.324-7.327,4.324s-1.217-0.307-3.527,1.559c-1.254,1.007-3.628,4.116-5.536,6.749
				l-0.636-3.893l-3.777,6.167l-2.48-2.844c0,0-0.275,7.088-1.911,9.347c6.274,4.632,10.347,12.075,10.347,20.469V-156h-19.949
				v-26.134h19.945v-10.957h-19.945v-31.619c-1.764-0.387-3.595-0.626-5.473-0.626c-1.889,0-3.709,0.239-5.473,0.626v31.619h-19.953
				v-6.816c0-8.257,3.938-15.593,10.035-20.239c-1.802-1.955-2.098-9.576-2.098-9.576l-2.48,2.844l-3.777-6.167l-0.488,2.986
				c-1.768-2.401-3.761-4.949-4.873-5.842c-2.31-1.866-3.527-1.559-3.527-1.559s-5.973-7.737-7.327-4.324
				c-1.365,3.391,5.564,6.349,5.564,6.349s-7.339-0.774-7.339,1.081c0,1.866,3.265,1.081,7.885,0.774
				c3.346-0.223,4.482,2.02,6.34,6.637l-0.638,3.387c0,0-2.321-2.367-5.882-2.128c4.403,7.339,0,5.689,0,5.689
				s-1.684-4.267-3.789-6.167c-2.094-1.9-2.719-7.111-5.45-7.828c-2.731-0.705-1.263,6.167-1.263,6.167s-2.731-5.689-7.134-6.872
				c3.982,8.533,2.515,18.489,0,29.628c-2.526,11.139-1.263,24.178-1.263,24.178s-2.321,23.95-0.319,37.695
				c2.002,13.744,14.939,9.478,20.434,0c5.495-9.489,10.251-14.461,15.326-7.828c3.91,5.111,6.801,10.507,4.562,16.836
				c-1.065-0.306-1.972-0.474-2.477-0.474c-2.321,0-6.929-2.674-10.581,0.887c-5.439,0.535-6.724,5.154-6.724,5.154
				s3.982-2.674,7.885-2.31c3.914,0.353,5.689,1.24,3.561,3.732c-2.139,2.48-7.066-1.957-7.066-1.957s-1.297-0.182-4.38,4.267
				c-3.083,4.437,0.239,7.282,4.38,8.181c1.171,0.251,3.009-0.067,5.156-0.76c1.648,3.327,5.702,2.141,11.19-0.128
				c6.292-2.617,10.274-1.422,9.66-4.278c-0.637-2.844-2.947-3.072-2.947-3.072s3.971-3.88,5.018-17.226
				c1.047,13.346,5.018,17.226,5.018,17.226s-2.31,0.228-2.947,3.072c-0.614,2.856,3.368,1.661,9.66,4.278
				c5.488,2.268,9.542,3.454,11.19,0.128c2.147,0.693,3.986,1.011,5.156,0.76c4.141-0.899,7.464-3.743,4.38-8.181
				c-3.083-4.449-4.38-4.267-4.38-4.267s-4.927,4.437-7.066,1.957c-2.128-2.492-0.353-3.379,3.561-3.732
				c3.903-0.364,7.885,2.31,7.885,2.31s-1.286-4.619-6.724-5.154c-3.652-3.561-8.26-0.887-10.581-0.887
				c-0.505,0-1.413,0.168-2.478,0.475c-2.241-6.329,0.645-11.725,4.564-16.836c5.074-6.633,9.83-0.944,15.326,8.533
				c5.495,9.478,18.432,13.744,20.434,0c2.002-13.744-0.319-38.4-0.319-38.4s1.263-13.039-1.263-24.178
				C190.627-216.206,189.159-226.161,193.141-234.694z M134.412-44.563c-0.002,0.069-0.01,0.137-0.01,0.207
				c0,3.133,2.108,5.774,4.981,6.587v2.659h-2.578c-1.035,0-1.866,0.831-1.866,1.866s0.831,1.866,1.866,1.866h2.578v2.932
				c0,1.126,0.91,2.048,2.037,2.048s2.048-0.922,2.048-2.048v-2.932h2.223c1.035,0,1.866-0.831,1.866-1.866
				s-0.831-1.866-1.866-1.866h-2.223v-2.775c2.685-0.927,4.622-3.474,4.622-6.47c0-0.043-0.006-0.084-0.006-0.127
				c40.148-1.579,52.821-19.218,49.257-26.009c-3.743-7.111-14.939-25.418-14.939-25.418s3.279-1.333,0.354-7.768
				c-0.002-0.87-0.531-1.648-1.368-2.199c-4.738-4.957-18.163-0.876-39.161-0.876c-19.912,0-33.02-3.676-38.371,0.169
				c-1.832,0.347-3.184,1.512-3.184,2.911c0,0.482,0.177,0.931,0.465,1.336c-1.904,5.285,0.904,6.427,0.904,6.427
				S90.844-77.603,87.112-70.491C83.606-63.812,95.786-46.624,134.412-44.563z"/>
			<path style="fill:#C6363C;" d="M148.449-76.351c1.775,1.24,2.844,0.535,2.48-0.887c-0.353-1.422,2.139-1.252,2.139-3.379
				c0-2.139,2.31-1.252,2.31-1.252s-2.844,7.475,1.957,7.293c2.719-0.102,1.775-5.689,0-7.646c0.785,1.195,3.015,1.24,4.892,2.662
				c1.866,1.422-0.273,3.743,1.149,3.208s2.31-2.844,3.732-3.379s0.717,1.604,0,3.379c-0.705,1.775,0.831,2.662,0.831,2.662
				s-0.114,1.24-1.183,1.957c-1.069,0.705-1.422,1.957,0,3.379s6.576,9.421,4.983,12.083c-1.604,2.674-6.94,5.689-21.868,5.336
				c-2.674-12.265,1.422-18.307,1.422-18.307s-3.026-1.957-3.914-3.027c2.128-0.887,0.535-1.775-0.888-3.026
				c-1.422-1.24-2.31-2.128-1.422-3.015C145.958-79.195,146.663-77.591,148.449-76.351z"/>
			<path style="fill:#C6363C;" d="M177.064-78.137c0.397-0.391,0.189-2.144-0.225-3.783c1.187,2.035,2.966,4.265,4.491,3.783
				c1.993-0.62,1.519-4.624,1.138-6.576c0.933,3.504,4.551,4.983,4.551,3.026s1.422,0,1.069,3.55
				c-0.353,3.561,0.717,5.689,2.844,8.715c2.128,3.026,2.128,5.689-0.535,7.464c-2.662,1.775-8.533,3.197-8.533,3.197
				s-2.31-10.126-3.55-12.436c-1.252-2.31-3.561-3.834-3.561-3.834s1.07-1.684,0-2.571c-1.069-0.887-2.31-3.015-2.31-3.015
				S176.359-77.421,177.064-78.137z"/>
		</g>
		<path style="fill:#EDB92E;" d="M102.039-95.909c0,0-2.808-1.142-0.904-6.427c0.704,0.99,2.148,1.679,3.836,1.679
			c2.378,0,4.301-1.354,4.301-3.015c0-1.673-1.923-3.027-4.301-3.027c-0.389,0-0.759,0.048-1.117,0.116
			c5.351-3.846,18.459-0.169,38.371-0.169c20.999,0,34.423-4.081,39.161,0.876c-0.769-0.506-1.795-0.822-2.932-0.822
			c-2.378,0-4.301,1.354-4.301,3.027c0,1.661,1.923,3.015,4.301,3.015c2.378,0,4.301-1.354,4.301-3.015
			c0-0.002-0.001-0.003-0.001-0.005c2.924,6.435-0.354,7.768-0.354,7.768s11.196,18.307,14.939,25.418
			c3.563,6.79-9.109,24.429-49.257,26.009c-0.069-3.718-3.109-6.722-6.843-6.722c-3.708,0-6.717,2.961-6.828,6.642
			c-38.625-2.061-50.805-19.249-47.3-25.929C90.844-77.603,102.039-95.909,102.039-95.909z M122.271-105.666
			c-2.378,0-4.301,1.354-4.301,3.027c0,1.661,1.923,3.015,4.301,3.015c2.378,0,4.301-1.354,4.301-3.015
			C126.572-104.312,124.649-105.666,122.271-105.666z M160.671-105.666c-2.378,0-4.301,1.354-4.301,3.027
			c0,1.661,1.923,3.015,4.301,3.015c2.378,0,4.301-1.354,4.301-3.015C164.972-104.312,163.049-105.666,160.671-105.666z
			 M174.755-77.603c1.07,0.887,0,2.571,0,2.571s2.31,1.525,3.561,3.834c1.24,2.31,3.55,12.436,3.55,12.436s5.871-1.422,8.533-3.197
			c2.662-1.775,2.662-4.437,0.535-7.464c-2.128-3.027-3.197-5.154-2.844-8.715c0.353-3.55-1.069-5.507-1.069-3.55
			s-3.618,0.478-4.551-3.026c0.381,1.952,0.855,5.956-1.138,6.576c-1.525,0.482-3.305-1.748-4.491-3.783
			c0.414,1.639,0.621,3.392,0.225,3.783c-0.705,0.717-4.619-2.48-4.619-2.48S173.685-78.49,174.755-77.603z M146.492-75.293
			c1.422,1.252,3.015,2.139,0.888,3.026c0.887,1.07,3.914,3.027,3.914,3.027s-4.096,6.042-1.422,18.307
			c14.928,0.353,20.264-2.662,21.868-5.336c1.593-2.662-3.561-10.661-4.983-12.083s-1.069-2.674,0-3.379
			c1.07-0.717,1.183-1.957,1.183-1.957s-1.536-0.887-0.831-2.662c0.717-1.775,1.422-3.914,0-3.379s-2.31,2.844-3.732,3.379
			c-1.422,0.535,0.717-1.786-1.149-3.208c-1.877-1.422-4.107-1.468-4.892-2.662c1.775,1.957,2.719,7.543,0,7.646
			c-4.801,0.182-1.957-7.293-1.957-7.293s-2.31-0.887-2.31,1.252c0,2.128-2.492,1.957-2.139,3.379
			c0.364,1.422-0.705,2.128-2.48,0.887c-1.786-1.24-2.492-2.844-3.379-1.957C144.183-77.421,145.07-76.533,146.492-75.293z
			 M141.427-99.407c2.378,0,4.301-1.354,4.301-3.015c0-1.673-1.923-3.026-4.301-3.026c-2.378,0-4.301,1.354-4.301,3.026
			C137.126-100.761,139.049-99.407,141.427-99.407z M112.712-56.269c1.604,2.674,6.929,5.689,21.868,5.336
			c2.662-12.265-1.422-18.307-1.422-18.307s3.026-1.957,3.914-3.027c-2.139-0.887-0.535-1.775,0.887-3.026
			c1.422-1.24,2.31-2.128,1.422-3.015c-0.887-0.887-1.604,0.717-3.379,1.957c-1.775,1.24-2.844,0.535-2.492-0.887
			c0.353-1.422-2.128-1.252-2.128-3.379c0-2.139-2.31-1.252-2.31-1.252s2.844,7.475-1.957,7.293c-2.731-0.102-1.786-5.689,0-7.646
			c-0.796,1.195-3.027,1.24-4.892,2.662c-1.866,1.422,0.262,3.743-1.16,3.208c-1.422-0.535-2.31-2.844-3.732-3.379
			c-1.422-0.535-0.705,1.604,0,3.379c0.717,1.775-0.819,2.662-0.819,2.662s0.114,1.24,1.183,1.957c1.058,0.705,1.422,1.957,0,3.379
			S111.107-58.932,112.712-56.269z M94.041-61.958c2.674,1.775,8.533,3.197,8.533,3.197s2.31-10.126,3.561-12.436
			c1.24-2.31,3.55-3.834,3.55-3.834s-1.058-1.684,0-2.571c1.069-0.887,2.31-3.015,2.31-3.015s-3.903,3.197-4.619,2.48
			c-0.705-0.705,0.887-1.593,0.717-2.844c-0.182-1.24-2.139,3.743-4.983,2.844c-1.971-0.613-1.529-4.536-1.148-6.51
			c-0.962,3.455-4.541,4.905-4.541,2.96c0-1.957-1.422,0-1.069,3.55c0.364,3.561-0.705,5.689-2.844,8.715
			C91.378-66.395,91.378-63.733,94.041-61.958z"/>
		<g>
			<path style="fill:#FFAC33;" d="M143.467-28.446c0,1.126-0.922,2.048-2.048,2.048s-2.037-0.922-2.037-2.048v-2.932h4.085V-28.446z
				"/>
			<path style="fill:#FFAC33;" d="M143.467-37.885v2.775h-4.085v-2.659c0.591,0.167,1.212,0.263,1.857,0.263
				C142.02-37.506,142.767-37.644,143.467-37.885z"/>
		</g>
		<path style="fill:#EDB92E;" d="M145.69-35.11c1.035,0,1.866,0.831,1.866,1.866s-0.831,1.866-1.866,1.866h-2.223h-4.085h-2.578
			c-1.035,0-1.866-0.831-1.866-1.866s0.831-1.866,1.866-1.866h2.578h4.085H145.69z"/>
		<g>
			<path style="fill:#0C4076;" d="M141.239-51.205c3.734,0,6.774,3.004,6.843,6.722c0.001,0.043,0.006,0.084,0.006,0.127
				c0,2.997-1.936,5.543-4.622,6.47c-0.7,0.242-1.447,0.379-2.228,0.379c-0.645,0-1.266-0.096-1.857-0.263
				c-2.873-0.812-4.981-3.454-4.981-6.587c0-0.07,0.008-0.138,0.01-0.207C134.522-48.244,137.532-51.205,141.239-51.205z"/>
			<path style="fill:#0C4076;" d="M109.272-103.672c0,1.661-1.923,3.015-4.301,3.015c-1.688,0-3.132-0.689-3.836-1.679
				c-0.288-0.405-0.465-0.854-0.465-1.336c0-1.399,1.352-2.563,3.184-2.911c0.358-0.068,0.728-0.116,1.117-0.116
				C107.349-106.699,109.272-105.345,109.272-103.672z"/>
		</g>
		<g>
			<path style="fill:#C6363C;" d="M122.271-99.624c-2.378,0-4.301-1.354-4.301-3.015c0-1.673,1.923-3.027,4.301-3.027
				c2.378,0,4.301,1.354,4.301,3.027C126.572-100.978,124.649-99.624,122.271-99.624z"/>
			<path style="fill:#C6363C;" d="M160.671-99.624c-2.378,0-4.301-1.354-4.301-3.015c0-1.673,1.923-3.027,4.301-3.027
				c2.378,0,4.301,1.354,4.301,3.027C164.972-100.978,163.049-99.624,160.671-99.624z"/>
		</g>
		<g>
			<path style="fill:#0C4076;" d="M178.455-100.657c-2.378,0-4.301-1.354-4.301-3.015c0-1.673,1.923-3.027,4.301-3.027
				c1.138,0,2.164,0.316,2.932,0.822c0.836,0.551,1.366,1.329,1.368,2.199c0,0.002,0.001,0.003,0.001,0.005
				C182.756-102.011,180.833-100.657,178.455-100.657z"/>
			<path style="fill:#0C4076;" d="M137.126-102.422c0-1.673,1.923-3.026,4.301-3.026c2.378,0,4.301,1.354,4.301,3.026
				c0,1.661-1.923,3.015-4.301,3.015C139.049-99.407,137.126-100.761,137.126-102.422z"/>
		</g>
		<g>
			<path style="fill:#EDB92E;" d="M115.078-230.2l-0.614,3.258c-1.859-4.618-2.995-6.86-6.34-6.637
				c-4.619,0.307-7.885,1.092-7.885-0.774c0-1.855,7.339-1.081,7.339-1.081s-6.929-2.958-5.564-6.349
				c1.354-3.413,7.327,4.324,7.327,4.324s1.217-0.307,3.527,1.559c1.112,0.893,3.105,3.44,4.873,5.842l-0.559,3.42L115.078-230.2z"
				/>
			<path style="fill:#EDB92E;" d="M168.372-230.2l-2.105,3.561l-0.411-2.513c1.909-2.633,4.282-5.742,5.536-6.749
				c2.31-1.866,3.527-1.559,3.527-1.559s5.973-7.737,7.327-4.324c1.365,3.391-5.564,6.349-5.564,6.349s7.327-0.774,7.327,1.081
				c0,1.866-3.254,1.081-7.873,0.774c-3.663-0.244-4.677,2.463-6.892,8.014L168.372-230.2z"/>
		</g>
		<g>
			<path style="fill:#FFFFFF;" d="M193.141-205.067c2.526,11.139,1.263,24.178,1.263,24.178s2.321,24.656,0.319,38.4
				c-2.002,13.744-14.939,9.478-20.434,0c-5.496-9.478-10.251-15.167-15.326-8.533c-3.919,5.111-6.805,10.507-4.564,16.836
				c-3.835,1.103-9.719,4.003-6.237,7.342c3.591,3.444,11.034,7.62,16.484,9.378c-1.648,3.327-5.702,2.141-11.19-0.128
				c-6.292-2.617-10.274-1.422-9.66-4.278c0.637-2.844,2.947-3.072,2.947-3.072s-3.971-3.88-5.018-17.226
				c-1.047,13.346-5.018,17.226-5.018,17.226s2.31,0.228,2.947,3.072c0.614,2.856-3.368,1.661-9.66,4.278
				c-5.488,2.268-9.542,3.454-11.19,0.128c5.45-1.758,12.893-5.934,16.484-9.378c3.482-3.339-2.403-6.239-6.239-7.342
				c2.238-6.329-0.652-11.725-4.562-16.836c-5.075-6.633-9.83-1.661-15.326,7.828c-5.495,9.478-18.432,13.744-20.434,0
				s0.319-37.695,0.319-37.695s-1.263-13.039,1.263-24.178c2.515-11.139,3.982-21.094,0-29.628c4.403,1.183,7.134,6.872,7.134,6.872
				s-1.468-6.872,1.263-6.167c2.731,0.717,3.356,5.928,5.45,7.828c2.105,1.9,3.789,6.167,3.789,6.167s4.403,1.65,0-5.689
				c3.561-0.239,5.882,2.128,5.882,2.128l0.638-3.387l0.614-3.258l2.105,3.561l0.559-3.42l0.488-2.986l3.777,6.167l2.48-2.844
				c0,0,0.296,7.621,2.098,9.576c-6.097,4.646-10.035,11.983-10.035,20.239v6.816h-0.003v10.957h0.003V-156h19.953v0.001h10.945
				V-156h19.949v-43.907c0-8.394-4.073-15.837-10.347-20.469c1.636-2.259,1.911-9.347,1.911-9.347l2.48,2.844l3.777-6.167
				l0.636,3.893l0.411,2.513l2.105-3.561l0.873,4.635l0.379,2.01c0,0,2.31-2.367,5.882-2.128c-4.403,7.339,0,5.689,0,5.689
				s1.684-4.267,3.777-6.167c2.105-1.9,2.731-7.111,5.461-7.828c2.731-0.705,1.263,6.167,1.263,6.167s2.731-5.689,7.134-6.872
				C189.159-226.161,190.627-216.206,193.141-205.067z"/>
			<path style="fill:#FFFFFF;" d="M158.962-249.394c-1.729,2.844-5.086,7.816-5.086,7.816s2.31,1.911,0,6.645
				c-1.713,3.527-2.027,8.778-0.692,12.204c-3.384-1.667-7.19-2.607-11.216-2.607c-4.276,0-8.302,1.061-11.838,2.927
				c1.49-3.412,1.209-8.883-0.568-12.524c-2.298-4.733,0-6.645,0-6.645s-3.356-4.972-5.074-7.816
				c-1.718-2.844,0.887-6.167,0.887-6.167s-6.508-9.717-4.699-13.505c1.752-3.641,12.595-5.962,20.526-6.133
				c0.023,0,0.046-0.034,0.08-0.034c0.137,0,0.296,0.011,0.444,0.011s0.307-0.011,0.444-0.011c0.034,0,0.046,0.034,0.08,0.034
				c7.93,0.171,18.773,2.492,20.526,6.133c1.82,3.789-4.699,13.505-4.699,13.505S160.68-252.239,158.962-249.394z"/>
		</g>
		<g>
			<path style="fill:#EDB92E;" d="M135.289-126.844c-3.591,3.444-11.034,7.62-16.484,9.378c-2.147,0.693-3.986,1.011-5.156,0.76
				c-4.142-0.899-7.464-3.743-4.38-8.181c3.083-4.449,4.38-4.267,4.38-4.267s4.927,4.437,7.066,1.957
				c2.128-2.492,0.353-3.379-3.561-3.732c-3.903-0.364-7.885,2.31-7.885,2.31s1.286-4.619,6.724-5.154
				c3.652-3.561,8.26-0.887,10.581-0.887c0.504,0,1.412,0.168,2.477,0.474C132.885-133.084,138.77-130.184,135.289-126.844z"/>
			<path style="fill:#EDB92E;" d="M154.399-134.186c1.066-0.306,1.974-0.475,2.478-0.475c2.321,0,6.929-2.674,10.581,0.887
				c5.439,0.535,6.724,5.154,6.724,5.154s-3.982-2.674-7.885-2.31c-3.914,0.353-5.689,1.24-3.561,3.732
				c2.139,2.48,7.066-1.957,7.066-1.957s1.297-0.182,4.38,4.267c3.083,4.437-0.239,7.282-4.38,8.181
				c-1.171,0.251-3.009-0.067-5.156-0.76c-5.45-1.758-12.893-5.934-16.484-9.378C144.68-130.183,150.563-133.083,154.399-134.186z"
				/>
			<path style="fill:#EDB92E;" d="M113.427-250.711c1.559,3.595,0.466,4.107-0.785,5.359c-1.263,1.24-1.889,2.97-1.889,2.97
				s-0.626-1.729-1.877-2.97c-1.263-1.252-2.355-1.764-0.796-5.359c-3.8,2.241-4.415-1.866-2.674-4.358
				c0.489,2.241,3.47,1.741,3.47-1.001c0-2.731-2.48-1.49-2.173-2.606c0.307-1.126,2.56-3.482,4.05-3.482s3.755,2.355,4.05,3.482
				c0.307,1.115-2.162-0.125-2.162,2.606c0,2.742,2.958,3.243,3.459,1.001C117.853-252.577,117.228-248.469,113.427-250.711z"/>
			<path style="fill:#EDB92E;" d="M175.3-250.711c1.559,3.595,0.466,4.107-0.796,5.359c-1.263,1.24-1.877,2.97-1.877,2.97
				s-0.626-1.729-1.889-2.97c-1.263-1.252-2.344-1.764-0.796-5.359c-3.789,2.241-4.415-1.866-2.662-4.358
				c0.489,2.241,3.459,1.741,3.459-1.001c0-2.731-2.469-1.49-2.162-2.606c0.296-1.126,2.549-3.482,4.05-3.482
				c1.49,0,3.743,2.355,4.05,3.482c0.307,1.115-2.173-0.125-2.173,2.606c0,2.742,2.97,3.243,3.47,1.001
				C179.714-252.577,179.1-248.469,175.3-250.711z"/>
		</g>
		<rect x="114.06" y="-152.733" style="fill:#C6363C;" width="24.942" height="-32.667"/>
		<path style="fill:#EEEEEE;" d="M136.504-155.999V-156v-26.134h-19.953h-0.003v-10.957h0.003h19.953v-31.619
			c1.764-0.387,3.584-0.626,5.473-0.626c1.877,0,3.709,0.239,5.473,0.626v31.619h19.945v10.957H147.45V-156v0.001H136.504z"/>
	</g>
</g>
<g>
</g>
<g>
</g>
<g>
</g>
<g>
</g>
<g>
</g>
<g>
</g>
<g>
</g>
<g>
</g>
<g>
</g>
<g>
</g>
<g>
</g>
<g>
</g>
<g>
</g>
<g>
</g>
<g>
</g>
</svg>
