<?xml version="1.0" encoding="iso-8859-1"?>
<!-- Generator: Adobe Illustrator 19.0.0, SVG Export Plug-In . SVG Version: 6.00 Build 0)  -->
<svg version="1.1" id="Capa_1" xmlns="http://www.w3.org/2000/svg" xmlns:xlink="http://www.w3.org/1999/xlink" x="0px" y="0px"
	 viewBox="0 0 512 512" style="enable-background:new 0 0 512 512;" xml:space="preserve">
<path style="fill:#EEEEEE;" d="M455.111,71.111H56.889C25.472,71.111,0,96.583,0,128v256c0,31.417,25.472,56.889,56.889,56.889
	h398.222C486.528,440.889,512,415.417,512,384V128C512,96.583,486.528,71.111,455.111,71.111z"/>
<path style="fill:#0A4EA2;" d="M512,327.111H0V184.889h512V327.111z"/>
<path style="fill:#EE2024;" d="M0,384c0,31.417,25.472,56.889,56.889,56.889h398.222C486.528,440.889,512,415.417,512,384v-56.889H0
	V384z"/>
<path style="fill:#FFFFFF;" d="M168.353,356.832c-16.057-9.173-51.74-32.398-64.782-63.829
	c-13.156-31.673-10.226-77.141-6.855-129.764l0.853-13.312h170.14l0.868,13.298c3.385,52.622,6.315,98.062-6.841,129.764
	c-13.056,31.445-48.725,54.67-64.782,63.844l-14.279,8.135L168.353,356.832z"/>
<path style="fill:#EE2024;" d="M254.381,164.146H182.73h-0.156h-71.652c-3.399,52.708-6.002,95.004,5.788,123.392
	c14.521,34.987,64.228,60.018,65.863,60.828v0.071l0.085-0.028l0.071,0.028v-0.071c1.636-0.811,51.342-25.842,65.877-60.828
	C260.383,259.151,257.78,216.854,254.381,164.146"/>
<g>
	<path style="fill:#FFFFFF;" d="M191.557,295.861c0,3.513-2.844,6.357-6.357,6.357h-8.619c-3.513,0-6.357-2.844-6.357-6.357
		c0,0,3.996-57.643,3.996-73.643s-3.996-44.743-3.996-44.743c0-3.513,2.844-6.357,6.357-6.357h8.619
		c3.513,0,6.357,2.844,6.357,6.357c0,0-3.556,26.951-3.556,44.302C188.001,239.114,191.557,295.861,191.557,295.861"/>
	<path style="fill:#FFFFFF;" d="M150.139,216.667c-3.513,0-6.357-2.844-6.357-6.357v-8.619c0-3.513,2.844-6.357,6.357-6.357
		c0,0,14.905,2.887,29.867,2.887c14.948,0,31.63-2.887,31.63-2.887c3.513,0,6.357,2.844,6.357,6.357v8.619
		c0,3.513-2.844,6.357-6.357,6.357c0,0-13.426-3.783-31.644-3.783S150.139,216.667,150.139,216.667"/>
	<path style="fill:#FFFFFF;" d="M135.694,250.445c-3.513,0-6.357-2.844-6.357-6.357v-8.619c0-3.513,2.844-6.357,6.357-6.357
		c0,0,26.965,2.446,45.639,2.446c18.66,0,44.302-2.446,44.302-2.446c3.513,0,6.357,2.844,6.357,6.357v8.619
		c0,3.513-2.844,6.357-6.357,6.357c0,0-26.197-1.892-46.635-1.892S135.694,250.445,135.694,250.445"/>
</g>
<path style="fill:#0A4EA2;" d="M242.904,298.17c-7.225-15.445-27.093-19.812-36.523-0.939c-6.229-22.67-23.908-22.67-23.908-22.67
	s-17.692,0-23.922,22.67c-9.358-18.731-29.013-14.578-36.366,0.583c18.688,29.497,58.923,49.835,60.388,50.546v0.085l0.085-0.043
	l0.071,0.043v-0.085C184.195,347.649,224.116,327.482,242.904,298.17"/>
<g>
</g>
<g>
</g>
<g>
</g>
<g>
</g>
<g>
</g>
<g>
</g>
<g>
</g>
<g>
</g>
<g>
</g>
<g>
</g>
<g>
</g>
<g>
</g>
<g>
</g>
<g>
</g>
<g>
</g>
</svg>
