<?xml version="1.0" encoding="iso-8859-1"?>
<!-- Generator: Adobe Illustrator 19.0.0, SVG Export Plug-In . SVG Version: 6.00 Build 0)  -->
<svg version="1.1" id="Capa_1" xmlns="http://www.w3.org/2000/svg" xmlns:xlink="http://www.w3.org/1999/xlink" x="0px" y="0px"
	 viewBox="0 0 395.636 395.636" style="enable-background:new 0 0 395.636 395.636;" xml:space="preserve">
<g transform="matrix(1.25 0 0 -1.25 0 45)">
	<g>
		<path style="fill:#EEEEEE;" d="M281.341-7.96H35.168C15.747-7.96,0-23.706,0-43.127v-158.255
			c0-19.421,15.747-35.168,35.168-35.168h246.174c19.421,0,35.168,15.747,35.168,35.168v158.255
			C316.509-23.706,300.763-7.96,281.341-7.96z"/>
		<path style="fill:#005DA4;" d="M0-67.305v-134.077c0-19.421,15.747-35.168,35.168-35.168h246.174
			c19.421,0,35.168,15.747,35.168,35.168v134.077L0-67.305L0-67.305z"/>
		<path style="fill:#ED1C23;" d="M0-166.214v-35.168c0-19.421,15.747-35.168,35.168-35.168h246.174
			c19.421,0,35.168,15.747,35.168,35.168v35.168H0z"/>
	</g>
	<g>
		<path style="fill:#ED1C23;" d="M97.81-33.604c-19.782,0-33.7-7.324-33.7-7.324s1.275-17.584,2.928-44.698
			c1.643-27.106,30.772-36.627,30.772-36.627s29.128,9.522,30.772,36.627c1.653,27.114,2.928,44.698,2.928,44.698
			S117.592-33.604,97.81-33.604"/>
		<path style="fill:#004A77;" d="M128.29-39.491c-5.17,2.128-16.256,5.891-30.481,5.891c-14.216,0-25.312-3.763-30.481-5.891
			c0.105-1.846,1.213-22.006,2.638-45.402c1.495-24.539,27.844-33.155,27.844-33.155s26.358,8.616,27.853,33.155
			C127.085-61.497,128.193-41.337,128.29-39.491"/>
		<g>
			<path style="fill:#FFFFFF;" d="M106.415-103.967c-3.112,0-4.581-1.855-9.16-1.855c-4.571,0-5.31,1.855-8.423,1.855
				c-2.356,0-3.815-1.055-5.618-1.573c7.139-5.362,14.595-7.561,14.595-7.561c6.251,1.038,11.166,4.097,14.885,7.552
				C110.327-105.03,108.788-103.967,106.415-103.967"/>
			<path style="fill:#FFFFFF;" d="M89.203-91.809c2.928,0,5.495-2.286,8.608-2.286c3.112,0,5.31,2.286,8.608,2.286
				c2.822,0,6.533-3.684,11.957-1.574c2.444,4.123,3.614,7.403,3.614,7.403l-10.99,15.755l-5.495-6.682L97.811-62.17l-7.324-14.736
				l-5.31,7.025c0,0-4.765-5.653-12.643-16.274c0.941-2.515,2.207-4.695,3.578-6.735C82.345-95.967,86.548-91.809,89.203-91.809"/>
			<path style="fill:#FFFFFF;" d="M115.206-98.441c-4.027,0-5.68,2.286-8.792,2.286c-3.112,0-4.581-2.286-9.16-2.286
				c-4.58,0-5.31,2.286-8.423,2.286s-4.66-2.286-7.508-2.286c-1.029,0-2.181,0.317-3.28,0.747c1.116-1.477,2.224-2.998,3.429-4.247
				c3.394,0.299,5.917,2.4,7.728,2.4c2.928,0,5.495-2.444,8.608-2.444c3.112,0,5.31,2.444,8.608,2.444
				c2.031,0,4.537-2.075,7.798-2.383c0.968,1.248,1.802,2.488,2.576,3.719C116.28-98.292,115.796-98.441,115.206-98.441"/>
		</g>
		<g>
			<path style="fill:#FFDD00;" d="M90.718-41.433l1.908-2.049l-2.725,0.633l-0.818-2.673l-0.818,2.673l-2.725-0.633l1.908,2.049
				l-1.908,2.049l2.725-0.633l0.818,2.673l0.818-2.673l2.725,0.633L90.718-41.433z"/>
			<path style="fill:#FFDD00;" d="M109.126-41.433l1.908-2.049l-2.726,0.633l-0.818-2.673l-0.818,2.673l-2.725-0.633l1.908,2.049
				l-1.908,2.049l2.725-0.633l0.818,2.673l0.818-2.673l2.726,0.633L109.126-41.433z"/>
			<path style="fill:#FFDD00;" d="M99.592-53.701l1.908-2.049l-2.726,0.633l-0.818-2.673l-0.818,2.673l-2.726-0.633l1.908,2.049
				l-1.908,2.049l2.726-0.633l0.818,2.673l0.818-2.673l2.726,0.633L99.592-53.701z"/>
		</g>
	</g>
</g>
<g>
</g>
<g>
</g>
<g>
</g>
<g>
</g>
<g>
</g>
<g>
</g>
<g>
</g>
<g>
</g>
<g>
</g>
<g>
</g>
<g>
</g>
<g>
</g>
<g>
</g>
<g>
</g>
<g>
</g>
</svg>
