<?xml version="1.0" encoding="iso-8859-1"?>
<!-- Generator: Adobe Illustrator 19.0.0, SVG Export Plug-In . SVG Version: 6.00 Build 0)  -->
<svg version="1.1" id="Capa_1" xmlns="http://www.w3.org/2000/svg" xmlns:xlink="http://www.w3.org/1999/xlink" x="0px" y="0px"
	 viewBox="0 0 512 512" style="enable-background:new 0 0 512 512;" xml:space="preserve">
<g transform="matrix(1.25 0 0 -1.25 0 45)">
	<g>
		<g>
			<g>
				<path style="fill:#006AA7;" d="M176.356-316.711h187.733c25.134,0,45.511,20.378,45.511,51.2v68.267H176.356V-316.711z"/>
				<path style="fill:#006AA7;" d="M364.089-20.889H176.356v-119.467H409.6V-66.4C409.6-41.266,389.222-20.889,364.089-20.889"/>
				<path style="fill:#006AA7;" d="M119.467-20.889H45.511C20.389-20.889,0.023-41.244,0-66.366v-73.99h119.467V-20.889z"/>
				<path style="fill:#006AA7;" d="M0-197.244v-68.312c0.023-30.8,20.389-51.154,45.511-51.154h73.956v119.467H0z"/>
			</g>
			<path style="fill:#FECC00;" d="M176.356-20.889h-56.889v-119.467H0l0,0v-56.889l0,0h119.467v-119.467h56.889v119.467H409.6
				v56.889H176.356V-20.889z"/>
		</g>
	</g>
</g>
<g>
</g>
<g>
</g>
<g>
</g>
<g>
</g>
<g>
</g>
<g>
</g>
<g>
</g>
<g>
</g>
<g>
</g>
<g>
</g>
<g>
</g>
<g>
</g>
<g>
</g>
<g>
</g>
<g>
</g>
</svg>
