<?xml version="1.0" encoding="iso-8859-1"?>
<!-- Generator: Adobe Illustrator 19.0.0, SVG Export Plug-In . SVG Version: 6.00 Build 0)  -->
<svg version="1.1" id="Capa_1" xmlns="http://www.w3.org/2000/svg" xmlns:xlink="http://www.w3.org/1999/xlink" x="0px" y="0px"
	 viewBox="0 0 512 512" style="enable-background:new 0 0 512 512;" xml:space="preserve">
<g transform="matrix(1.25 0 0 -1.25 0 45)">
	<path style="fill:#EEEEEE;" d="M0-225.689h409.6V-111.9H0V-225.689z"/>
	<g>
		<g>
			<path style="fill:#CE1126;" d="M364.089-20.889H45.511C20.378-20.889,0-41.266,0-66.4v-45.511h409.6V-66.4
				C409.6-41.266,389.222-20.889,364.089-20.889"/>
			<path style="fill:#141414;" d="M364.089-316.711H45.511C20.378-316.711,0-296.334,0-271.2v45.511h409.6V-271.2
				C409.6-296.334,389.222-316.711,364.089-316.711"/>
			<path id="SVGCleanerId_0" style="fill:#007A3D;" d="M104.414-172.577l-7.191-22.141l18.83,13.687l18.842-13.687l-7.202,22.141
				l18.842,13.687l0,0l0,0l0,0l0,0h-23.279l-7.202,22.141l-7.191-22.141h-23.29L104.414-172.577z"/>
			<g transform="translate(15.6)">
				<path id="SVGCleanerId_0_1_" style="fill:#007A3D;" d="M281.907-172.577l-7.191-22.141l18.83,13.687l18.842-13.687
					l-7.202,22.141l18.842,13.687l0,0l0,0l0,0l0,0h-23.279l-7.202,22.141l-7.191-22.141h-23.29L281.907-172.577z"/>
			</g>
		</g>
	</g>
</g>
<g>
</g>
<g>
</g>
<g>
</g>
<g>
</g>
<g>
</g>
<g>
</g>
<g>
</g>
<g>
</g>
<g>
</g>
<g>
</g>
<g>
</g>
<g>
</g>
<g>
</g>
<g>
</g>
<g>
</g>
</svg>
