<?xml version="1.0" encoding="iso-8859-1"?>
<!-- Generator: Adobe Illustrator 19.0.0, SVG Export Plug-In . SVG Version: 6.00 Build 0)  -->
<svg version="1.1" id="Capa_1" xmlns="http://www.w3.org/2000/svg" xmlns:xlink="http://www.w3.org/1999/xlink" x="0px" y="0px"
	 viewBox="0 0 512 512" style="enable-background:new 0 0 512 512;" xml:space="preserve">
<path style="fill:#E70013;" d="M455.111,71.111H56.889C25.472,71.111,0,96.583,0,128v256c0,31.417,25.472,56.889,56.889,56.889
	h398.222C486.528,440.889,512,415.417,512,384V128C512,96.583,486.528,71.111,455.111,71.111z M256,348.444
	c-51.058,0-92.444-41.387-92.444-92.444s41.387-92.444,92.444-92.444s92.444,41.387,92.444,92.444S307.058,348.444,256,348.444z"/>
<path style="fill:#FFFFFF;" d="M256,163.556c-51.058,0-92.444,41.387-92.444,92.444s41.387,92.444,92.444,92.444
	s92.444-41.387,92.444-92.444S307.058,163.556,256,163.556"/>
<g>
	<path style="fill:#E70013;" d="M219.022,256c0-30.635,24.832-55.467,55.467-55.467c14.492,0,27.676,5.561,37.561,14.663
		c-12.601-17.294-33.01-28.53-56.05-28.53c-38.286,0-69.333,31.047-69.333,69.333s31.047,69.333,69.333,69.333
		c23.04,0,43.449-11.236,56.05-28.53c-9.884,9.102-23.068,14.663-37.561,14.663C243.854,311.467,219.022,286.635,219.022,256"/>
	<path style="fill:#E70013;" d="M279.398,240.885l-17.764-24.448v30.222l-28.743,9.344l28.743,9.33v30.222l17.764-24.448
		l28.743,9.344l-17.764-24.448l17.764-24.462L279.398,240.885z"/>
</g>
<g>
</g>
<g>
</g>
<g>
</g>
<g>
</g>
<g>
</g>
<g>
</g>
<g>
</g>
<g>
</g>
<g>
</g>
<g>
</g>
<g>
</g>
<g>
</g>
<g>
</g>
<g>
</g>
<g>
</g>
</svg>
