<?xml version="1.0" encoding="iso-8859-1"?>
<!-- Generator: Adobe Illustrator 19.0.0, SVG Export Plug-In . SVG Version: 6.00 Build 0)  -->
<svg version="1.1" id="Capa_1" xmlns="http://www.w3.org/2000/svg" xmlns:xlink="http://www.w3.org/1999/xlink" x="0px" y="0px"
	 viewBox="0 0 512 512" style="enable-background:new 0 0 512 512;" xml:space="preserve">
<g transform="matrix(1.25 0 0 -1.25 0 45)">
	<g>
		<g>
			<path style="fill:#4B92DB;" d="M409.6-271.2c0-25.134-20.378-45.511-45.511-45.511H45.511C20.378-316.711,0-296.334,0-271.2
				v204.8c0,25.134,20.378,45.511,45.511,45.511h318.578c25.134,0,45.511-20.378,45.511-45.511V-271.2z"/>
			<g>
				<path style="fill:#FFFFFF;" d="M152.769-94.196c-5.143-4.517-8.579-10.32-12.527-15.542c-3.288-4.346-7.794-7.043-11.674-10.684
					c2.094,4.346,2.48,9.318,5.131,13.517C138.251-99.714,145.761-96.927,152.769-94.196 M124.632-109.92
					c2.685,2.97,5.678,5.279,9.25,6.201c-6.929-4.767-6.554-13.289-8.681-20.412c-0.774-2.606-1.911-5.04-2.526-7.737l0.182-0.137
					c1.149,3.038,3.129,5.962,5.712,8.397c4.87,4.597,12.197,7.384,14.609,14.108c-0.102-9.341-8.078-16.452-15.36-21.948
					c-3.265-2.469-6.03-5.78-7.726-9.25c0.284,2.583,0.41,4.733,0.182,7.248C119.524-125.28,119.034-116.121,124.632-109.92z
					 M110.615-137.83c0,8.283,3.22,15.03,8.055,21.185c0.137,0.08,0.239,0.216,0.421,0.182c-5.325-8.09-0.478-18.307-1.161-27.489
					l-0.705-9.421c0.102-0.068,0.102-0.353,0.353-0.239c0.319,1.047,0.41,2.162,0.592,3.254c1.286,7.589,7.953,12.88,13.608,18.239
					c1.331,1.274,2.31,2.765,2.947,4.38c-0.466-3.789-1.525-7.657-3.22-11.105c-4.358-8.806-12.766-15.918-14.279-25.941
					C116.497-155.181,110.615-148.047,110.615-137.83 M106.587-149.583c0.603,2.583,1.058,5.257,2.173,7.634
					c-2.128-10.934,5.143-18.83,7.634-28.297c0.933-3.561,1.252-7.35,2.697-10.672c0.137-0.08,0.25,0.068,0.33,0.171
					c-3.584,10.069,1.673,19.376,6.804,27.307c1.343,2.094,1.991,4.517,2.617,6.975c0.558-4.562-0.41-9.83-1.252-14.541
					c-1.092-6.053-3.163-11.73-4.801-17.567c-1.081-3.652-0.796-7.771-0.239-11.594l-0.523,0.421
					c-3.823,7.043-11.344,12.55-13.619,20.23C106.587-163.373,105.335-156.273,106.587-149.583z M106.246-170.939
					c0.842-11.594,13.175-17.783,19.058-27.318c1.263-2.025,2.56-4.13,4.38-5.769c-0.284,1.229-1.297,2.321-1.855,3.538
					c-1.889,4.085-2.742,8.818-2.276,13.676c0.569,5.916,3.038,11.412,2.094,17.647c5.074-10.945,3.436-24.633,6.372-36.477
					c0.649-2.617,2.241-4.904,3.22-7.384c-4.983,3.789-11.514,7.157-16.987,11.469c-5.279,4.164-9.876,9.057-12.265,15.417
					C106.268-181.566,105.825-176.093,106.246-170.939z M112.469-197.563c5.814-13.153,20.412-14.177,30.117-22.255
					c1.843-1.536,3.675-2.947,5.7-3.891l0.102,0.114c-2.241,2.025-4.665,4.437-6.394,6.952c-5.552,8.067-3.698,19.081-7.976,27.637
					c3.88-4.654,7.532-9.455,9.762-14.78c3.607-8.567,4.824-18.352,12.902-24.872c-8.738,2.89-18.819,2.31-26.692,7.464
					C121.708-215.767,114.039-207.211,112.469-197.563z M127.397-222.105c9.318-10.604,24.508-7.191,36.944-9.842
					c1.741-0.364,3.356-0.933,5.222-0.649c-1.479,0.933-3.436,1.035-5.154,1.684c-9.648,3.63-11.15,13.961-16.43,21.072
					c6.747-4.483,12.334-10.627,18.637-16.395c4.392-4.016,9.865-5.734,15.531-6.884c-1.365-0.501-3.14-0.387-4.608-0.751
					c-10.194-2.526-21.481-6.519-32.324-2.935C138.217-234.495,130.935-229.034,127.397-222.105 M231.39-251.323
					c-1.138-1.308-2.617-2.526-4.005-3.652c-9,9.296-19.558,19.593-29.582,19.593c-6.224,0-10.706-4.733-15.94-8.078
					c-7.248-4.631-17.203-7.248-25.725-3.846c-4.585,1.741-9.034,4.312-12.356,8.476c6.713-4.631,16.771-5.245,24.337-2.105
					c8.385,3.47,16.907,8.09,26.453,8.09C208.634-232.846,222.003-242.369,231.39-251.323"/>
				<path style="fill:#FFFFFF;" d="M256.853-94.196c5.143-4.517,8.579-10.32,12.527-15.542c3.288-4.346,7.794-7.043,11.674-10.684
					c-2.094,4.346-2.48,9.318-5.131,13.517C271.371-99.714,263.862-96.927,256.853-94.196 M284.991-109.92
					c-2.685,2.97-5.678,5.279-9.25,6.201c6.929-4.767,6.554-13.289,8.681-20.412c0.774-2.606,1.911-5.04,2.526-7.737l-0.182-0.137
					c-1.149,3.038-3.129,5.962-5.712,8.397c-4.87,4.597-12.197,7.384-14.609,14.108c0.102-9.341,8.078-16.452,15.36-21.948
					c3.265-2.469,6.03-5.78,7.726-9.25c-0.284,2.583-0.41,4.733-0.182,7.248C290.099-125.28,290.588-116.121,284.991-109.92z
					 M299.008-137.83c0,8.283-3.22,15.03-8.055,21.185c-0.137,0.08-0.239,0.216-0.421,0.182c5.325-8.09,0.478-18.307,1.161-27.489
					l0.705-9.421c-0.102-0.068-0.102-0.353-0.353-0.239c-0.319,1.047-0.41,2.162-0.592,3.254
					c-1.286,7.589-7.953,12.88-13.608,18.239c-1.331,1.274-2.31,2.765-2.947,4.38c0.466-3.789,1.525-7.657,3.22-11.105
					c4.358-8.806,12.766-15.918,14.279-25.941C293.126-155.181,299.008-148.047,299.008-137.83 M303.036-149.583
					c-0.603,2.583-1.058,5.257-2.173,7.634c2.128-10.934-5.143-18.83-7.634-28.297c-0.933-3.561-1.252-7.35-2.697-10.672
					c-0.137-0.08-0.25,0.068-0.33,0.171c3.584,10.069-1.673,19.376-6.804,27.307c-1.343,2.094-1.991,4.517-2.617,6.975
					c-0.558-4.562,0.41-9.83,1.252-14.541c1.092-6.053,3.163-11.73,4.801-17.567c1.081-3.652,0.796-7.771,0.239-11.594l0.523,0.421
					c3.823,7.043,11.344,12.55,13.619,20.23C303.036-163.373,304.287-156.273,303.036-149.583z M303.377-170.939
					c-0.842-11.594-13.175-17.783-19.058-27.318c-1.263-2.025-2.56-4.13-4.38-5.769c0.284,1.229,1.297,2.321,1.855,3.538
					c1.889,4.085,2.742,8.818,2.276,13.676c-0.569,5.916-3.038,11.412-2.094,17.647c-5.074-10.945-3.436-24.633-6.372-36.477
					c-0.649-2.617-2.241-4.904-3.22-7.384c4.983,3.789,11.514,7.157,16.987,11.469c5.279,4.164,9.876,9.057,12.265,15.417
					C303.354-181.566,303.798-176.093,303.377-170.939z M297.153-197.563c-5.814-13.153-20.412-14.177-30.117-22.255
					c-1.843-1.536-3.675-2.947-5.7-3.891l-0.102,0.114c2.241,2.025,4.665,4.437,6.394,6.952c5.552,8.067,3.698,19.081,7.976,27.637
					c-3.88-4.654-7.532-9.455-9.762-14.78c-3.607-8.567-4.824-18.352-12.902-24.872c8.738,2.89,18.819,2.31,26.692,7.464
					C287.915-215.767,295.583-207.211,297.153-197.563z M282.226-222.105c-9.318-10.604-24.508-7.191-36.944-9.842
					c-1.741-0.364-3.356-0.933-5.222-0.649c1.479,0.933,3.436,1.035,5.154,1.684c9.648,3.63,11.15,13.961,16.43,21.072
					c-6.747-4.483-12.334-10.627-18.637-16.395c-4.392-4.016-9.865-5.734-15.531-6.884c1.365-0.501,3.14-0.387,4.608-0.751
					c10.194-2.526,21.481-6.519,32.324-2.935C271.406-234.495,278.687-229.034,282.226-222.105 M178.233-251.323
					c1.138-1.308,2.617-2.526,4.005-3.652c9,9.296,19.558,19.593,29.582,19.593c6.224,0,10.706-4.733,15.94-8.078
					c7.248-4.631,17.203-7.248,25.725-3.846c4.585,1.741,9.034,4.312,12.356,8.476c-6.713-4.631-16.771-5.245-24.337-2.105
					c-8.385,3.47-16.907,8.09-26.453,8.09C200.988-232.846,187.62-242.369,178.233-251.323"/>
				<path style="fill:#FFFFFF;" d="M267.628-187.653l-1.525,0.831c-3.22-6.645-7.487-12.686-12.584-17.92l-8.875,8.875
					c4.346,4.483,7.851,9.569,10.433,15.064l-1.513,0.831c-2.549-5.45-5.985-10.411-10.126-14.689l-8.044,8.044
					c3.447,3.584,6.19,7.68,8.169,12.106l-1.502,0.819c-1.934-4.358-4.608-8.329-7.873-11.719l-8.886,8.886
					c2.48,2.617,4.38,5.632,5.678,8.886l-1.502,0.819c-1.24-3.174-3.072-6.064-5.37-8.511l-8.067,8.067
					c2.298,2.56,3.63,5.78,3.823,9.216h11.412c-0.091-3.083-0.728-6.042-1.798-8.772l1.502-0.819
					c1.206,3.026,1.889,6.258,1.98,9.591h12.584c-0.114-5.564-1.354-10.843-3.482-15.644l1.502-0.819
					c2.287,5.131,3.55,10.695,3.664,16.464h11.389c-0.114-7.828-1.923-15.246-5.052-21.925l1.513-0.831
					c3.311,7.043,5.109,14.757,5.222,22.756h12.584c-0.125-10.297-2.549-20.059-6.781-28.774L267.628-187.653
					c4.551,9.375,6.963,19.718,6.963,30.447c0,9.114-1.741,17.966-5.063,26.169l-1.559-0.671c3.129-7.748,4.824-16.077,4.927-24.656
					h-12.584c-0.102,6.849-1.456,13.494-3.914,19.684l-1.547-0.66c2.378-5.985,3.675-12.413,3.777-19.024h-11.401
					c-0.091,5.04-1.081,9.933-2.856,14.518l-1.547-0.66c1.684-4.38,2.628-9.045,2.719-13.858H232.96
					c-0.091,3.072-0.671,6.064-1.707,8.886l-1.547-0.671c0.956-2.605,1.49-5.37,1.57-8.215h-11.412
					c-0.182,3.436-1.525,6.645-3.823,9.216l8.078,8.067c2.492-2.651,4.38-5.723,5.586-9.068l1.547,0.671
					c-1.297,3.527-3.3,6.781-5.951,9.591l8.909,8.897c3.789-3.959,6.69-8.545,8.613-13.517l1.547,0.66
					c-2.002,5.166-5.029,9.933-8.977,14.04l8.055,8.067c4.995-5.154,8.829-11.127,11.401-17.601l1.547,0.66
					c-2.662,6.679-6.61,12.823-11.753,18.125l8.897,8.897c6.292-6.44,11.15-13.926,14.427-22.05l1.559,0.671
					c-3.47,8.567-8.647,16.441-15.383,23.177c-6.758,6.758-14.666,11.947-23.268,15.417l-0.626-1.582
					c8.146-3.277,15.644-8.135,22.096-14.438l-8.897-8.897c-5.211,5.04-11.241,8.954-17.795,11.605l-0.614-1.559
					c6.337-2.571,12.174-6.36,17.226-11.253l-8.055-8.055c-3.925,3.766-8.442,6.69-13.335,8.693l-0.614-1.559
					c4.688-1.923,9.011-4.722,12.755-8.329l-8.897-8.897c-2.503,2.355-5.359,4.21-8.454,5.507l-0.614-1.57
					c2.879-1.206,5.541-2.935,7.885-5.131l-8.078-8.067c-2.56,2.298-5.78,3.63-9.216,3.823v11.412
					c3.277-0.102,6.451-0.796,9.409-2.037l0.614,1.57c-3.152,1.308-6.531,2.048-10.024,2.15v12.584
					c5.097-0.102,10.035-1.138,14.62-3.015l0.614,1.559c-4.779,1.957-9.933,3.038-15.235,3.14v11.401
					c6.758-0.102,13.312-1.456,19.399-3.925l0.614,1.57c-6.281,2.537-13.039,3.925-20.014,4.028v12.595
					c8.567-0.114,16.885-1.798,24.61-4.915l0.626,1.582c-8.181,3.3-16.998,5.029-26.078,5.029c-11.218,0-21.823-2.674-31.221-7.396
					l0.762-1.468c9.102,4.551,19.16,7.043,29.616,7.168v-12.595c-8.522-0.125-16.577-2.196-23.768-5.757l0.774-1.468
					c7.077,3.504,14.882,5.427,22.994,5.552v-11.401c-6.337-0.125-12.334-1.65-17.704-4.267l0.762-1.468
					c5.234,2.537,10.98,3.937,16.942,4.05v-12.584c-3.948-0.114-7.703-1.047-11.093-2.64l0.774-1.479
					c3.209,1.49,6.702,2.332,10.32,2.435v-11.412c-1.775-0.102-3.459-0.501-5.018-1.161l0.774-1.479
					c1.593,0.66,3.311,1.001,5.086,1.001c3.584,0,6.952-1.399,9.489-3.937s3.937-5.905,3.937-9.489
					c0-7.407-6.019-13.426-13.426-13.426c-3.584,0-6.963,1.399-9.489,3.937c-2.537,2.537-3.937,5.905-3.937,9.489
					s1.399,6.963,3.937,9.489c1.274,1.286,2.776,2.276,4.403,2.935l-0.774,1.479c-1.547-0.649-2.958-1.559-4.198-2.662l-8.078,8.078
					c2.094,1.957,4.437,3.55,6.975,4.722l-0.774,1.479c-2.719-1.274-5.211-2.981-7.373-5.018l-8.909,8.909
					c3.118,2.992,6.645,5.439,10.433,7.282l-0.762,1.468c-4.005-1.957-7.669-4.517-10.843-7.578l-8.078,8.067
					c4.073,3.959,8.67,7.179,13.619,9.626l-0.762,1.468c-5.177-2.571-9.91-5.928-14.029-9.921l-8.92,8.92
					c5.12,4.995,10.889,9.068,17.101,12.186l-0.762,1.468c-13.596-6.838-24.656-17.966-31.391-31.607l1.456-0.785
					c3.14,6.383,7.305,12.311,12.413,17.556l8.92-8.92c-4.153-4.278-7.623-9.216-10.229-14.632l1.456-0.796
					c2.492,5.2,5.825,10.012,9.933,14.256l8.078-8.078c-3.254-3.379-5.951-7.305-7.942-11.617l1.456-0.785
					c1.889,4.096,4.449,7.896,7.657,11.23l8.909-8.909c-2.276-2.412-4.13-5.234-5.45-8.329l1.479-0.796
					c1.206,2.913,2.935,5.598,5.154,7.953l8.078-8.078c-2.219-2.48-3.63-5.689-3.823-9.216h-11.423
					c0.102,3.254,0.796,6.406,2.014,9.341l-1.479,0.796c-1.331-3.129-2.105-6.554-2.207-10.138h-12.595
					c0.114,5.666,1.388,11.127,3.686,16.145l-1.456,0.785c-2.389-5.166-3.789-10.9-3.903-16.93h-11.401
					c0.125,7.873,1.923,15.462,5.234,22.369l-1.456,0.796c-3.379-7.031-5.336-14.882-5.45-23.165h-12.595
					c0.125,10.274,2.526,20.184,6.94,29.161l-1.456,0.785c-4.597-9.296-7.179-19.74-7.179-30.788c0-6.758,0.967-13.358,2.81-19.672
					l1.638,0.421c-1.729,5.905-2.674,12.083-2.753,18.409h12.584c0.08-5.268,0.899-10.422,2.389-15.337l1.627,0.41
					c-1.456,4.779-2.253,9.796-2.332,14.928h11.401c0.08-4.176,0.762-8.26,2.014-12.14l1.627,0.41
					c-1.206,3.755-1.877,7.691-1.957,11.73h12.584c0.08-2.992,0.637-5.894,1.616-8.647l1.638,0.421
					c-0.956,2.606-1.49,5.382-1.582,8.226h11.423c0.182-3.436,1.513-6.656,3.812-9.216l-8.067-8.078
					c-2.492,2.651-4.38,5.734-5.586,9.068l-1.638-0.421c1.286-3.618,3.322-6.963,6.03-9.83l-8.897-8.897
					c-4.324,4.506-7.498,9.842-9.364,15.644l-1.638-0.41c1.946-6.098,5.268-11.696,9.819-16.43l-8.055-8.055
					c-6.03,6.212-10.377,13.631-12.846,21.697l-1.627-0.41c2.537-8.363,7.031-16.043,13.278-22.482l-8.897-8.897
					c-7.873,8.067-13.494,17.761-16.589,28.297l-1.65-0.41c3.243-11.105,9.227-21.276,17.636-29.685
					c5.689-5.689,12.197-10.274,19.251-13.653l0.831,1.49c-6.667,3.174-12.846,7.464-18.284,12.777l8.897,8.897
					c4.619-4.494,9.899-8.067,15.599-10.684l0.831,1.479c-5.575,2.526-10.729,6.019-15.246,10.388l8.067,8.055
					c3.777-3.63,8.112-6.474,12.8-8.476l0.831,1.479c-4.562,1.911-8.772,4.665-12.447,8.192l8.897,8.897
					c2.867-2.697,6.19-4.733,9.808-6.03l0.831,1.49c-3.482,1.206-6.69,3.14-9.444,5.723l8.067,8.078
					c2.571-2.298,5.78-3.63,9.227-3.823v-11.412c-2.708,0.08-5.348,0.569-7.851,1.434l-0.831-1.49
					c2.753-0.99,5.678-1.536,8.681-1.627v-12.584c-5.211,0.102-10.251,1.183-14.928,3.14l-0.831-1.468
					c4.927-2.094,10.251-3.254,15.758-3.356v-11.401c-7.498,0.125-14.746,1.764-21.39,4.779l-0.831-1.468
					c6.895-3.152,14.427-4.87,22.221-4.983v-12.584c-10.001,0.114-19.649,2.378-28.422,6.565l-0.842-1.479
					c9.284-4.449,19.513-6.793,30.106-6.793c11.105,0,21.811,2.594,31.448,7.475l-0.796,1.536
					c-8.988-4.551-19.103-7.179-29.821-7.305v12.584c8.499,0.125,16.68,2.162,24.064,5.871l-0.785,1.525
					c-7.02-3.538-14.916-5.586-23.279-5.723v11.401c6.383,0.125,12.516,1.65,18.068,4.426l-0.774,1.513
					c-5.234-2.606-11.093-4.13-17.294-4.255v12.584c4.062,0.114,7.976,1.092,11.526,2.833l-0.774,1.513
					c-3.265-1.604-6.906-2.549-10.752-2.662v11.412c3.447,0.193,6.656,1.525,9.227,3.823l8.055-8.067
					c-1.923-1.809-4.13-3.334-6.531-4.506l0.774-1.513c2.526,1.24,4.87,2.844,6.963,4.824l8.886-8.886
					c-2.97-2.856-6.372-5.245-10.081-7.1l0.774-1.513c3.812,1.9,7.35,4.38,10.502,7.407l8.044-8.044
					c-3.914-3.8-8.408-6.997-13.335-9.466l0.785-1.525c4.995,2.514,9.637,5.791,13.756,9.785l8.875-8.875
					c-4.949-4.836-10.65-8.897-16.873-12.06l0.796-1.536c6.531,3.3,12.572,7.646,17.897,12.971
					c5.598,5.598,10.115,11.981,13.483,18.91L267.628-187.653z"/>
				<path style="fill:#FFFFFF;" d="M148.594-189.849l-0.284,0.649l-0.489,1.286l1.047-0.501l0.364-1.001l0.489-0.364l0.489-1.07
					l-0.273-0.501l-0.774,0.717L148.594-189.849z"/>
				<path style="fill:#FFFFFF;" d="M202.615-145.703h-0.774l-0.137,1.57l0.421,0.284v0.785h-2.469l-0.068,0.785l0.353,0.216
					l-0.569,0.216l-0.421-0.569l-0.137-0.649l-0.705-0.137v-0.364h-0.489v-0.922l-1.98-1.65l-3.937,0.148
					c-0.284-0.649-0.99,0.068-0.99,0.068c-0.137,0.432-1.126,0-1.126,0c0-0.785-1.331,0.364-1.331,0.364l-2.469,1.786
					c-1.411,1.286-3.516-0.364-3.584-0.717c0.068-1.001-1.627-0.216-1.627-0.216s-1.399,0.432-1.616-0.148
					c-0.205-0.569-1.126-0.421-1.126-0.421l-0.137-0.284l-0.705-0.148l-0.148-0.432l-0.842-0.137l2.116,0.068
					c0.558,0.068-0.216-1.217-0.569-1.138l-0.978-0.08l-0.353-0.353h-0.922l-0.421-0.569l-1.331,0.068c0,0-0.785-0.649-0.705-0.853
					c0.068-0.216-0.148-0.865-0.353-0.865c-0.216,0-0.637-0.637-0.501-0.853c0.148-0.216-0.421-0.933-0.421-0.933l-0.137-0.717
					l-0.421-0.137v-1.934l-0.842-0.569v-0.853l-1.274-1.365l0.148-1.138l-1.058-1.149l0.137-1.138l-0.637-0.216l-0.137-0.501
					l-0.284-1.502l0.705-0.068c0.353,0.148,0.284-0.933,0-1.07c-0.284-0.148-1.058-0.432-0.626-0.717
					c0.421-0.284-1.126-0.216-1.126,0.216c0,0.421-0.853,0.785-1.058,0.637c-0.216-0.137-0.569,0.649-0.569,0.649
					c-0.774,0.785-3.163-0.068-3.163-0.068l-0.353-1.149c-0.774-0.137-1.274-1.422-1.274-1.422c-0.626-0.216-1.126-1.001-0.91-1.217
					c0.216-0.216-0.353-0.284-0.353-0.284v-1.582l-0.353-0.489l0.068-1.718c0.421,0,0.353-0.785,0.353-0.785
					c-0.705-0.08-0.558-1.001-0.558-1.001l-1.479-0.501L156.08-174l-1.832,0.08l-0.489-0.501l-0.489,0.501h-3.527l-0.137,0.353
					l-0.705,0.148l-0.068,0.785l-1.058-0.08l-0.216-0.421l-1.126-0.08c0.08-0.705-1.126-1.786-1.263-1.502
					c-0.137,0.296-0.91,1.081-0.557,1.217c0.341,0.148,1.263,0.284,1.263,0.284v0.501l-2.606,0.08l-0.284-0.432l-1.058-0.068v-1.149
					l-0.489-0.137c-0.353-0.216,0.068-1.001,0.068-1.001c0.501-0.501-0.068-1.286-0.068-1.286c-0.421-0.432,0.353-1.217,0.353-1.217
					c0.569-0.148-0.353-0.569-0.353-0.569c0.137-0.717,0.569-0.933,0.569-0.933c-0.432-0.717,0.273-1.07,0.273-1.07l0.08-1.217
					l0.489-0.284v-0.785l0.284-0.501h1.126l-0.08,1.786c-0.978,1.138,0.853,1.434,0.922,1.001s0.842-0.649,0.842-0.649
					c0.148-1.07,1.343-1.707,1.695-0.637c0.353,1.07,0.626,0.432,0.842-0.068c0.205-0.501,1.547-1.718,1.547-1.718h1.058
					l0.137-1.001c1.195,0.068,1.547-0.08,2.048-1.718c0.489-1.638,1.82-2.071,1.82-2.071l0.99,0.068c0,0.865,0.99-0.137,0.99-0.569
					s1.9-2.071,1.9-2.071l1.9-0.432l1.764-1.422l1.331,0.137h0.569c0.353,1.217,2.037-0.068,2.173-0.501
					c0.148-0.421,1.274-1.138,1.411-0.785c0.148,0.364,0.922,0.148,1.058-0.922c0.137-1.081,0.637-0.865,0.637-0.865l4.005,0.08
					l1.411,1.206l3.595,0.08c1.832,0.068,0.705,2.571,0.353,2.571c-0.637,0.501,0.205,2.571,0.205,2.571l-5.131,4.779
					c-1.206,0-0.148,1.718-0.148,1.718c0.922,0.58-0.205,1.502-0.205,1.502c0.137,0.853-0.501,1.855-0.501,1.855
					c-1.263,0.865-0.91,2.503-0.91,2.503v1.149c-1.058,1.001,0.421,1.138,0.421,1.138c0.489,0.853-0.353,1.502-0.353,1.502
					l-0.068,0.933l-1.126,0.137l-0.148,3.356l-2.526,3.652c-0.501,0.137-0.148,1.001-0.148,1.001
					c0.637,0.353-0.137,1.206-0.137,1.206l-0.068,1.57l1.479,0.148l0.353,0.569h0.694l-0.068,1.866
					c0.353,0.922,1.195,0.421,1.195,0.421l0.99-0.068l0.569,1.07l0.137,0.865l-0.774,0.068c-0.842,0.501-0.421,2.355-0.421,2.355
					c1.331,2.002,2.879,0.853,2.879,0.853l0.99,0.08c1.479-1.001,0.137-2.867,0.137-2.867c-0.273-0.421-0.137-1.786-0.137-1.786
					l0.353-2.276l-0.91-0.796c-0.785-0.421-0.785-1.422,0.068-1.638c0.558-0.068,0.353-1.434-0.501-0.501
					c-1.263,0,0.705-1.138,0.148-0.853c1.263-0.649,0.978,0.569,0.978,0.569l1.695,1.354c0.637,0.501,1.764-1.07,1.764-1.286
					c0-0.216,2.81-0.068,2.81-0.068c0.774-0.501,1.058-1.786,1.058-1.786c0.774,1.001,2.389,0.068,1.195-0.501
					c1.126-0.717,1.126-1.354,1.126-1.354c0.922,0.284,0.922-0.432,0.922-0.649c0-0.216,0.273,1.07,0.273,1.07
					c-1.047,0.785,1.411,1.081,0.705-0.353l-0.421-0.649l0.705-0.569l0.068-1.638c1.547,0.137,1.126,2.071,1.126,2.071l0.705,0.137
					c0,0.649,0.489,0.296,0.489,0.296c-0.489,2.423,1.126,2.856,1.126,2.856c0.922,0.216,0.99,2.139,0.99,2.139
					c-0.637,0.284-0.284,1.286,0.421,0.432c0.705-0.853-0.421,1.718-0.421,1.718l-0.569,0.501l-0.774,0.068l-0.068,0.785h-1.263
					l-0.216-1.001l-0.489-0.148l-0.137,0.296l-0.216-0.796h-1.263l-0.068,0.865l0.774,0.216l0.273,0.421l0.216,1.149h0.91
					l1.206,0.353c0.068,1.217,0.694,0.933,0.694,0.933l0.421-0.364l0.637-0.501l0.068-0.421l-0.421-0.216l-0.068-0.569l0.216-0.785
					h0.558c0.216,1.138,1.695,1.138,2.116,0.421l0.421,1.001c-0.99,0.501-0.023,1.286,0.262,0.933
					c0.284-0.364,0.933,0.922,0.933,0.922s0.489-0.637,0,0.216c-0.489,0.865,0.353,1.286,0.353,1.286
					c-0.137,0.865,0.91,0.717,0.91,0.717l0.08,1.149l-0.99,0.068c-0.205-1.001-1.058-0.148-0.637,0.068
					c0.432,0.216,0.853,0.649,0.853,0.649v0.717l0.421,0.137l0.068,0.717h1.058l0.91,0.432l0.216,0.353l0.978,0.068l1.411,1.286
					l-0.137,0.569c-0.853,0,0,0.649,0,0.649L202.615-145.703z"/>
				<path style="fill:#FFFFFF;" d="M174.251-159.812l-1.263,0.148l0.068-0.501h0.353c0.558-1.001,0.068-3.436,0.068-3.436
					s-0.842-0.068-0.99,0.364c-0.137,0.421-0.489-0.933-0.205-1.149c0.273-0.216,1.263,0,1.331-0.785s0.637,0.501,0.637,0.501
					V-159.812z"/>
				<path style="fill:#FFFFFF;" d="M173.682-166.035l-0.705,0.432v-1.718l1.126-1.502l0.421,1.001l0.148,0.649l-0.501,0.205
					l0.08,1.07l0.421,0.08l0.068,0.501L173.682-166.035z"/>
				<path style="fill:#FFFFFF;" d="M198.61-158.241l0.148,0.853l0.046,0.649l0.296,0.432l0.853,0.353v1.354h-0.432l-0.068,0.501
					l-0.774,0.08l-0.137-0.364h-0.353l-0.068-0.569h0.421l0.068-0.432l-0.284-0.284l-0.137-0.353l-0.569-0.148l-1.263-1.217
					l-0.068-0.569l-0.353-0.501l-0.421-1.07l-1.479-0.068l-0.284-1.286l0.205-1.07l1.274-0.512l0.137,0.717l0.421,0.216l0.08,0.717
					l0.273,0.501l0.432,0.501l0.137,0.569l0.705,0.432l0.842,0.137L198.61-158.241z"/>
				<path style="fill:#FFFFFF;" d="M201.421-158.958v1.001l-0.137,0.933l-1.058,0.501l-0.774-0.717l-0.148-1.001v-0.649
					l-0.694-0.137l-0.148-1.934l-0.558-0.216l0.068-0.717l-0.774-0.205l-0.774-0.216l-0.148-0.933l-0.558-0.353l-0.284-0.865
					l-0.353-2.071c0,0,0.637-1.206,0.99-0.637c0.353,0.569,0.91,0.637,0.91,0.637l0.216,0.501l1.9-0.068
					c0.137,0.785,1.058,0.501,1.058,0.148c0-0.364,0.705-0.08,0.705-0.08l0.489,0.785h0.774l0.068,0.865l0.353,0.216v1.286
					c1.126,0.353,0.99,1.422,0.99,1.422l0.273,0.364l-0.137,0.489c-0.569,0.216-0.284,0.717,0.068,0.58
					c0.353-0.148-0.489,0.637-0.489,0.637c-0.421-0.353-0.774,0.432-0.774,0.432H201.421z"/>
				<path style="fill:#FFFFFF;" d="M202.547-167.548c-0.068-0.853-1.126-1.138-1.126-1.138l-0.774,0.205l-0.421,0.364l-0.068,1.001
					l0.626,0.068l0.148-0.432L202.547-167.548z"/>
				<path style="fill:#FFFFFF;" d="M206.393-163.031c0.148-0.626,0.137,1.001,0.421,0.933c0.284-0.08,0.068,1.001,0.068,1.001
					l-1.263-0.933C206.256-162.098,206.325-162.747,206.393-163.031z"/>
				<path style="fill:#FFFFFF;" d="M210.079-159.311c0.284-0.649,0.216-1.57,1.263-2.287c0.364-0.239-0.205-0.717-0.558-0.501
					c-0.353,0.216-1.343,1.786-1.343,1.786v0.933C209.658-158.81,209.954-159.038,210.079-159.311z"/>
				<path style="fill:#FFFFFF;" d="M238.876-193.751l0.637-0.284l0.068-1.217c0.842-0.853,3.584-0.137,3.584,0.068
					c0,0.216-0.137,2.651-0.137,2.651l-0.353,0.353l-0.068,1.786c0.284,0.933-1.343,2.287-1.479,2.002
					c-0.137-0.284-1.058-0.068-1.058-0.353c0-0.284-0.558-1.718-0.284-2.219c0.284-0.501-0.205-0.501-0.273-1.001
					C239.445-192.466,238.74-193.319,238.876-193.751z"/>
				<path style="fill:#FFFFFF;" d="M241.323-164.033c-0.307,0.421,1.411,1.138,1.684,0.284c0.284-0.853,0-0.717-0.273-0.637
					C242.449-164.317,241.744-164.602,241.323-164.033z"/>
				<path style="fill:#FFFFFF;" d="M243.519-138.308h-1.058c0,0,0.353-0.148-0.626,0.785c-0.99,0.933-1.627-0.216-1.627-0.216
					l-1.126-0.137v-1.149l-0.558-0.216l0.068-0.705l0.774,0.068c0,0,0-0.865,0.216-0.501c0.205,0.353,1.968-0.068,1.82-0.933
					c-0.057-0.353,1.764-1.286,1.559-2.423c0.91-0.148,0.694-1.07,0.694-1.07l1.206-0.148l0.353,0.717l0.341-0.08v0.432
					l-0.774,0.216l-0.137,2.287l-0.489,0.353l0.137,0.58l-0.558,0.216l0.273,0.922L243.519-138.308z"/>
				<path style="fill:#FFFFFF;" d="M246.613-145.589l-0.558,0.068l-1.274-0.216l-0.705-1.354c0,0,0.353-0.216,0.637-0.717
					c0.284-0.501,0.421-3.425-0.421-3.925c-0.842-0.501,0.068-0.216,0.068-0.216l-0.137-1.57c0.205-0.717,0.558-0.364,0.774,0
					c0.205,0.353,0.421,0.432,0.705,0.785c0.273,0.353,0.694,1.001,0.774,1.502c0.068,0.501,0.421,1.286,0.205,1.502
					c-0.205,0.216,0.216,1.206,0.216,1.206s0.273,0.58,0,1.149c-0.284,0.569,0.068,1.217,0.273,1.502L246.613-145.589z"/>
				<path style="fill:#FFFFFF;" d="M246.83-144.793l-0.284,0.649c0,0,0,0.569,0.148,0.853c0.137,0.284-0.284,0.569-0.501,0.637
					c-0.205,0.08-0.137,0.649-0.205,0.933s-0.569,0.501-0.569,0.501s-0.137,1.07-0.137,1.286c0,0.216-0.637,0.501-0.421,0.717
					c0.205,0.216,0.353,0.501,0.558,0.637c0.216,0.148-0.205,1.149,0.148,0.933c0.353-0.216,0.353-0.569,0.489-0.853
					s-0.068-1.286,0.284-1.502c0.353-0.216-0.08-0.933,0.489-0.933c0.558,0,0.216-1.354,0.216-1.354s-0.148-1.001,0.205-1.07
					c0.353-0.08,0.137-1.786,0.137-1.786L246.83-144.793z"/>
				<path style="fill:#FFFFFF;" d="M242.256-133.188c0.205-0.284,0.637-0.501,0.637-0.785c0-0.284-0.148-0.501,0.273-0.569
					c0.432-0.08,0.705,0.068,0.853-0.284c0.137-0.364,0.137-0.933,0.068-1.217c-0.068-0.284,0.068-0.717,0.421-0.717
					c0.353,0,0.421-0.068,0.421-0.284c0-0.216,0.421,0.785,0.421,0.785c-0.353,0.284-0.637,0.933-0.637,0.933
					s-0.341,1.001-0.341,1.138c0,0.148-0.501,0.284-0.705,0.364c-0.216,0.068-0.569,0.705-0.569,0.705L242.256-133.188z"/>
				<path style="fill:#FFFFFF;" d="M242.961-132.619c-0.216,0.284-0.421,0.501-0.705,0.649c-0.284,0.137-0.489,0.284-0.774,0.284
					s-0.558,0.284-0.421,0.637c0.137,0.364-0.216,0.501-0.216,0.785c0,0.284,0.216,0.284,0.569,0.08
					c0.353-0.216,0.284-0.296,0.558-0.649c0.284-0.353,0.421-0.717,0.705-0.637c0.284,0.068,0.501-0.649,0.774-0.432
					c0.284,0.216,0.216-0.501,0.216-0.501L242.961-132.619z"/>
				<path style="fill:#FFFFFF;" d="M234.724-140.663c0.387-0.398-2.116-0.284-2.116,0s0.216,1.286,0.853,1.07
					c0.626-0.216,0.694,1.286,0.694,1.286s-0.558-0.068-0.068,0.216c0.501,0.284,0,0.717-0.205,0.933
					c-0.216,0.216-0.421,0.569-0.421,0.569h0.978c0.421,0.284,0.569,1.638,0.569,1.638c0.842-0.284,1.263,0.296,1.263,0.296
					s0.148-0.432,0.421-0.796c0.284-0.353-0.705-0.501-0.353-0.705c0.353-0.216,0.501-0.865,0.353-1.081
					c-0.137-0.205-0.91-0.068-0.91,0.216c0,0.284-0.284-0.353,0-0.717c0.273-0.353-0.353-0.853-0.501-0.853
					c-0.137,0-1.047-0.137-0.273-0.569c0.774-0.432,1.616-0.216,1.616-0.216s0.637,0.068,0.842-0.284
					c0.216-0.353-0.068-0.432-0.421-0.432s-2.037,0.148-2.037,0.148S234.507-140.447,234.724-140.663z"/>
				<path style="fill:#FFFFFF;" d="M239.275-135.315c0.558,0.284,1.764,0.284,1.684,0.717c-0.068,0.421,0.705,0.569,0.705,0.569
					l0.216-0.853l0.637-0.432l0.068-0.785c0,0,0.205,0.137-0.569-0.068c-0.774-0.216-0.273-0.58-0.273-0.58l-1.695-0.068
					l-0.216,0.717L239.275-135.315z"/>
				<path style="fill:#FFFFFF;" d="M236.555-131.458c0.432,0-0.137-1.638,0.99-1.502c1.126,0.148,0.068-0.501,0.91-0.569
					c0.842-0.068,0.637,0.637,0.91,1.138c0.284,0.501,0.148,0.785-0.341,0.933c-0.501,0.148-0.501,0.148-0.637,0.717
					c-0.137,0.569-0.705,0.717-0.705,0.717l-0.216,0.853l-0.91-0.569l-0.91-1.217C235.645-131.891,236.134-131.458,236.555-131.458z
					"/>
				<path style="fill:#FFFFFF;" d="M216.132-139.241l-0.068-0.501l0.774-0.068c0,0,0.353-0.284,0.353-0.501
					c0-0.216,0.489-0.432,0.774-0.432s1.058,0.569,1.058,0.569s0.353,1.001,0.068,0.933c-0.284-0.068-0.842-0.501-0.922-0.068
					c-0.068,0.421-0.91,0.216-0.91,0.216L216.132-139.241z"/>
				<path style="fill:#FFFFFF;" d="M219.648-138.455c0-0.216-0.137-0.501,0.284-0.569s1.195,0.284,1.263-0.148
					c0.068-0.421,0.068-0.717,0.637-0.933c0.558-0.205,0.91-0.284,1.331-0.284s1.343,0.148,1.343,0.148s1.001-0.159,1.195-0.353
					c0.774-0.785,1.274-1.001,1.479-0.649c0.216,0.353-0.068,1.149-0.137,1.434c-0.068,0.284-1.058,1.638-1.411,1.354
					s-0.421,0-1.058-0.216c-0.637-0.216-1.968-0.068-2.037,0.216s-1.058,0.432-1.058,0.717c0,0.284-0.705,0.637-0.637,0.216
					c0.068-0.432-0.489-0.649-0.637-0.501C220.069-137.887,219.648-138.455,219.648-138.455z"/>
				<path style="fill:#FFFFFF;" d="M235.85-129.308l0.489,1.57c-0.694,0.148-0.558,0.933-0.558,0.933
					c-0.068,0.637-1.058,1.354-1.411,1.138s-0.205,1.502-0.205,1.502s0.626,0.432,0.91,0.216c0.284-0.216-2.389,3.573-2.958,3.209
					c-0.558-0.353-1.832,0.364-1.752,1.001c0.068,0.649-2.537,2.788-2.537,2.788s-0.853,0.58-0.99,0.148s-0.421-0.717,0-0.933
					c0.421-0.216,0.353,0.364,0.842-0.137c0.501-0.501,1.411-1.149,1.058-1.57c-0.353-0.432-0.774-0.58-0.774-0.58l0.489-0.569
					h0.774l0.148-1.217c0,0,0.842-0.421,1.058-0.922c0.205-0.501,0.205-0.785,0-1.081c-0.216-0.284-0.637-0.785-0.569-1.286
					c0.068-0.489,0.637-0.705,0.637-0.705l0.558-0.08l0.432-0.216v-0.922c0.558,0.137,1.468-0.649,1.399-1.149
					s0.148-0.205,0.842-0.705c0.705-0.501,0.501-0.58,0.99-0.933C235.213-130.161,235.645-129.956,235.85-129.308z"/>
				<path style="fill:#FFFFFF;" d="M224.233-119.591c-0.068,0.284-0.216,1.286,0.216,1.217c0.421-0.08,0.137,0,0.626-0.216
					c0.501-0.216,0.569,0.353,0.569,0.353h0.774l0.978-0.785l-0.137-0.637l-0.705-0.068c-0.353,0.569-1.058,0.353-0.91-0.148
					c0.137-0.501-0.353-1.434-0.637-1.502s-1.195-0.068-1.126,0.353C223.949-120.592,224.233-119.591,224.233-119.591z"/>
				<path style="fill:#FFFFFF;" d="M223.664-117.657v0.569c0,0-0.068,0.569-0.421,0.569s-0.99,0.432-0.842,0.717
					c0.137,0.284-1.206,0.569-1.206,0.569s-1.195,1.149-0.774,1.001c0.432-0.137,0.216,0.501,0.216,0.501s-0.842-0.137-1.058-0.068
					c-0.205,0.068-0.137,0.717-0.137,0.717s-0.842,0.216-0.842,0s0.273-0.216,0.421-0.649c0.137-0.421,0.068-1.138,0.705-1.286
					c0.626-0.137,0.774-0.284,0.842-0.569s0.842-0.353,0.842-0.353l0.569-0.284L223.664-117.657z"/>
				<path style="fill:#FFFFFF;" d="M215.848-107.371c-0.74,0.558,0.99-0.432,0.99-0.432c0.558,0,0.91-0.421,0.91-0.637
					c0-0.216,0.774-0.148,0.774-0.148l0.068,0.501l-0.558,0.717l-0.501,0.353c0,0-0.774,0.08-0.774,0.284
					C216.758-106.518,216.132-107.588,215.848-107.371z"/>
				<path style="fill:#FFFFFF;" d="M228.807-107.804c-0.205-0.626-0.284-1.502-0.637-1.502s-0.205-0.933-0.205-0.933
					s0.91,0,1.195-0.068s0.284-0.785,0.284-0.785c1.058,0.068,1.479-1.354,1.331-1.718c-0.137-0.353,0.421-0.353,0.421-0.353
					s0-1.138-0.137-1.434c-0.137-0.284,0.91-0.501,1.195-0.922c0.284-0.432-0.137-1.855-0.353-1.934
					c-0.205-0.068,0.569-0.284,0.501-0.637c-0.08-0.364,0.205,0,0.273-0.58c0.068-0.569,0.216-1.775,0.216-1.775l0.979-0.08
					c0.148,0.933,1.957,0.967,2.253,0.865c1.206-0.432,2.116-2.287,2.116-2.719s-0.774-0.501-0.774-0.501l0.137-2.071
					c1.206-0.364,2.185-2.071,2.048-2.355c-0.137-0.284,0.842-0.216,0.842-0.216c0.148,1.286,1.343,0.853,1.411,0.421
					c0.068-0.421,0.284-1.354,0.284-1.354l0.353-0.637l0.489-0.501l0.774,0.068l0.205-0.432l0.922-0.137
					c0,0,0.774-0.865,0.842-1.081c0.068-0.205,1.126-0.137,1.411-0.205c0.284-0.08,0.705-0.284,0.774-0.649
					c0.068-0.353,0.489-0.933,0.489-0.933s0.853-0.205,0.922-0.489c0.068-0.296,0.421-0.933,0.421-0.933l0.705-0.569l0.068-0.649
					l0.774-0.068l0.216-0.853l1.263,0.068l0.705,0.501c0.91,0.501,1.547,1.138,1.616,1.422c0.068,0.284,0.216,1.365,0.922,1.149
					c0.694-0.216,0.205,1.57,0.205,1.57s-0.978,0.717-0.91,1.07c0.068,0.364-0.99,1.07-0.922,1.365
					c0.068,0.284-0.91,0.853-0.842,1.138c0.068,0.284-0.489,1.07-0.489,1.07l-1.058,1.001l-0.148,0.649l-0.842,0.068l-1.684,2.071
					l0.068,0.569l-0.489,0.08v0.785l-0.501,0.284l-0.774,0.068l-1.547,1.718l-0.137,0.785h-0.774l0.137,1.502
					c0.489,0.637,0.216,1.855,0.216,1.855s-0.99-0.501-1.479-0.284c-0.501,0.216,0.205,0.717,0.205,0.717v0.569l-0.421,0.432
					c0,0-1.195-0.148-1.263,0.068s-0.284,1.138-0.284,1.138l-0.068,1.217l-0.489,0.216l-0.08,0.432l-0.774-0.08v0.865l-0.421,0.137
					l-0.421,0.216l-0.068,0.853l-1.547,0.08l-0.501,0.705l-0.558,0.865l-1.764,0.137l-0.421,0.432l-0.705,0.148l-0.489,0.205
					l-0.216-0.353l-1.331-0.068l-0.068-0.432C231.697-107.872,228.875-107.588,228.807-107.804z"/>
				<path style="fill:#FFFFFF;" d="M236.203-105.949c-0.114,0.569,1.411,1.07,1.764,0.649c0.353-0.432,1.331-0.512,1.479-2.651
					c0.046-0.762-1.274,0.785-1.274,0.785l-1.058,0.364C236.555-106.666,236.271-106.302,236.203-105.949z"/>
				<path style="fill:#FFFFFF;" d="M211.911-99.851l-0.922,0.933v0.785l-0.273,0.284l-0.284,1.001l-0.91,0.284l-0.922-0.353
					l-0.99-0.649l-1.047-0.148l-0.569-0.637l2.253-0.216l0.421-0.717l1.627-0.137l1.047-1.07
					C212.264-100.784,212.469-100.351,211.911-99.851z"/>
				<path style="fill:#FFFFFF;" d="M211.775-96.301c-0.159,0.626-1.058-0.785-0.137-1.07c0.91-0.284,1.82,0,1.82,0l0.216,0.432
					l3.516-0.08c0.284,0.284,0.421,0.717,0.421,0.717s0.853,0.284,1.206,0.148c0.353-0.148,0.068,1.001-0.284,0.853
					c-0.353-0.148-1.058-0.068-1.058-0.068h-1.263c-0.068,0.501-1.195,0.284-1.274,0c-0.068-0.284-0.489-0.364-0.489-0.364
					l-1.616-0.137C212.685-96.301,211.843-96.585,211.775-96.301z"/>
				<path style="fill:#FFFFFF;" d="M204.8-108.35c1.081-0.341,1.479-0.091,1.547,0.193c0.068,0.284,0.137,0.364,0.569,0.432
					c0.421,0.068-0.08,0.933-0.501,0.853c-0.421-0.068-0.842,0.148-0.91,0.501c-0.068,0.364-0.774,1.286-0.842,0.569
					c-0.08-0.705-0.501-0.705-0.432-1.206C204.311-107.508,204.516-108.259,204.8-108.35z"/>
				<path style="fill:#FFFFFF;" d="M196.71-109.18c-0.046,0.25,1.411,0.284,1.616,0.068c0.216-0.216,0.068-0.569,0.705-0.569
					c0.637,0,0.353-0.432,0.284-0.637c-0.068-0.216-0.774-0.148-0.842,0.068c-0.08,0.216-1.126,0.284-1.126,0.284
					S196.779-109.533,196.71-109.18"/>
				<path style="fill:#FFFFFF;" d="M243.803-147.808c-0.284-0.284-0.91-0.432-0.91-0.432l-0.216-0.785l-0.353-0.284
					c0,0,0.068-0.216,0-0.717c-0.068-0.501-0.705-0.785-0.705-0.785l-0.284-0.353c0,0-1.695-0.091-1.9,0
					c-0.626,0.284-0.205,1.138,0.216,1.07s-0.068,1.217-0.068,1.217l0.558,0.068c0,0,0.068,1.286,0.284,1.286
					c0.216,0-0.068,0.432-0.353,0.649c-0.284,0.205-0.637,0.922-0.91,0.853c-0.284-0.068-1.411,0-1.411,0l-0.216-0.432l-0.774-0.137
					c0,0,0.068-0.558-0.068-0.717c-0.421-0.501-2.037-1.57-1.343,0.216l0.216,0.421v0.649l-1.263,0.068c0,0-0.637,0.216-0.637,0.501
					c0,0.284-0.068,0.649-0.068,0.649l-1.479,1.638l-1.764,0.216l-0.137,0.353l-1.058,0.148c-1.263,0.637-2.389,0.068-2.185-1.001
					c0.216-1.07,0.569-1.502-0.137-1.502c-0.705,0-0.842,0.569-0.842,0.569s-0.569,0.216-0.569-0.068s-0.205-0.853,0-1.138
					c0.216-0.296-0.284-0.717-0.489-0.501c-0.216,0.216-0.774,0.853-0.637,1.07c0.137,0.216-0.99,1.57,0.137,1.786
					c1.126,0.216-0.068,0.853,0.353,1.001l0.569,0.284h0.558l0.353,0.284l-0.91,0.137l-0.569,0.08l-1.047,0.068
					c-1.058-0.717-1.274-1.57-1.274-1.57c-0.558-1.07-1.9,0.432-1.399,1.001c0.489,0.569-1.559,0.068-1.911-0.216
					c-0.353-0.284-1.399-0.148-1.399-0.148c-0.216-0.637-1.206,0.08-0.922,0.501c0.284,0.432,0.284,0.717,0.284,0.717l-0.353,0.068
					l-0.421-0.785c-0.99,0-1.263-0.569-1.058-0.922c0.216-0.364-0.284,0.068-0.421-0.432s0.068-0.501,0.489-0.717
					c0.421-0.216-0.205-0.216,0.068-0.569c0.284-0.353,1.126,0,0.637-0.501c-0.489-0.501-1.479-0.284-1.479-0.284
					c-0.068-0.649-1.411-0.501-1.547-0.284c-0.137,0.216-1.195,1.502-1.195,1.502l-1.343,0.068
					c-0.137,1.001,0.637,0.501,0.922,1.286c0.284,0.785,0.421,2.071,0.421,2.071s-1.126,0.068-1.195-0.284
					c-0.068-0.353-0.774-0.569-0.774-0.569s-0.569-0.216-0.353-0.501c0.205-0.284-0.421-0.432-0.421-0.432s0.102-0.455-0.08-0.637
					c-0.558-0.58-1.968-0.08-2.173,0.137l-0.853,0.364l-0.842,0.569l-0.99-0.432l-0.273-0.284h-1.058l-0.068-0.853l1.9-0.216
					l0.137-1.764l-0.774,0.262h-0.489l-0.216,0.432l-0.421,0.068v-1.57l0.421-0.364l0.353-0.353l0.705-0.068l0.148-0.865
					l1.752-0.068l0.216-0.353l1.058-0.08l2.037-2.071l-0.137-0.637l-0.353-0.216c0.137-0.501-0.922-0.216-0.922-0.216v-0.421
					l0.489-0.08l0.501-0.284l0.705,1.217c0.774,0.501,1.126-0.216,1.195-0.649c0.068-0.421-0.353-0.353-0.353-0.353v-1.001
					l0.421-0.137c0.705-0.865-0.284-1.365-0.284-1.365l-0.205-0.717c-0.216-0.637-0.99-0.501-0.99-0.501l-0.284-0.421l-0.842-0.216
					l1.673-0.216c0.159,0.569,0.58,0.717,0.796,0.432c0.205-0.284,0.205-0.785,0.205-0.785l0.421-0.08l-0.068-0.785l0.421-0.137
					v-2.287l0.501-0.569c0.842,0.353,0.842-0.216,0.421-0.501c-0.421-0.284-0.148-1.582-0.148-1.582l-0.353-0.353v-0.569
					l-0.421-0.284v-0.785c-0.705,0.353-1.547,0.216-1.764,0c-0.626,0.421-1.968,0.284-1.968-0.08
					c0.421-0.569-0.489-0.705-0.489-0.705l-0.489-0.58c0.353-0.717-0.353-0.785-0.353-0.785v-1.354l-0.842-0.785l0.068-1.855
					c0-0.501,1.058-0.58,1.263-0.296c0.216,0.296,1.058-0.569,1.058-0.569h0.637l0.137,1.286l-0.421,0.216v2.071l0.705,0.785
					c0.842,0.284,0.558-1.855,0.558-2.071c0.068-0.785,0.421-0.717,0.774-0.569c0.705,0.284,0.148-0.785-0.421-0.717
					c-0.558,0.068-0.205-0.717-0.205-0.717l0.353-0.137l-0.637-0.501l-0.569-0.649l-0.705,0.216l-0.842,0.068l-0.284,0.501
					l-0.489,0.08l-0.068-1.001l-0.353-0.432l-0.842-0.853c1.126,0-0.148-0.785-0.421-0.785c0.626-0.216-0.08-0.865-1.695-0.364
					v-0.501l-0.558-0.068l0.489-0.569l0.558-0.068l-0.205-1.217c0-0.933-2.321-0.284-2.537-0.068l-0.068-1.297l-0.421-0.068
					l0.068-0.853l-0.068-1.217l0.774,0.148v-0.501l1.9-0.08l2.742,2.935l1.627,0.353c0.137,0.717,0.842-0.137,0.842-0.137
					c0.705,0.068,0.842-0.432,0.842-0.432l0.922-0.148c0.762-0.205,0.296-0.284,0.341-0.569c0.08-0.421,0.421-0.284,0.421-0.284
					l0.148,0.933l0.421-0.08l-0.421,0.501l-0.774,0.364l-0.842,0.353c-0.569,0.785,0.137,0.649,0.705,0.569h0.91
					c0,0,1.058-1.422,1.058-1.786c0-0.353,0.489-0.421,0.489-0.421l0.637,0.068l0.205-0.501h0.637l0.216-0.421h1.263l0.068,0.637
					l-1.195,0.216l-0.068,0.717l-0.842,0.205c-0.284,1.217,0.205,1.581,0.558,1.001l0.421-0.068l-0.137,1.07l0.489,0.148
					l-0.137,1.502l-0.421,0.137v0.501l1.752-0.068c-0.137,0.933,0.068,1.354,0.068,1.354h0.501l0.068-0.353l2.15-0.205l1.525,1.741
					c-0.08,0.137,0.148,0.216-0.011,0.387c-0.216,0.216-0.501,0-0.853,0.216c-0.353,0.216,0,1.434-0.068,1.718
					c-0.068,0.284,1.195,0.717,0.99,0.068c-0.216-0.637,0-0.922,0-0.922c0.91,0.853,1.684-0.08,1.616-0.296
					c-0.068-0.205,0.489-0.421,0.842-0.205c0.353,0.205,0.774-0.649,0.637-1.081c-0.137-0.421-1.411-0.353-1.479,0.08
					c-0.068,0.421-0.284,0.284-0.421,0.068c-0.137-0.216-0.774-0.353-1.126-0.148c-0.068,0.046-0.102,0.08-0.125,0.114l-1.525-1.741
					l0.102-0.011c0.842-0.501,0.421-1.138,0.137-1.286c-0.284-0.148-0.774-0.148-0.774-0.148l-0.137-0.284l-1.832-0.137
					l-0.137-0.717c-0.922,0.148-1.274-0.853-1.058-1.354c0.205-0.501,0-0.933,0-0.933l0.774-0.353l0.979,0.284
					c0.148,0.717,0.774,0.853,1.343,1.286c0.558,0.421,1.479-0.785,1.195-1.365c-0.284-0.569-0.284-0.785-0.284-0.785l0.08-0.637
					l-0.705-0.284l-0.569-0.284l-0.068-0.364h-1.9l-0.353-0.353l-0.91-0.08l-0.284-0.421l-0.637-0.068c0,0-1.058-0.501-0.637-1.081
					c0.432-0.569-1.752-0.501-2.253,0.284c-0.137-0.705-0.91-0.068-0.91-0.068l-0.774,0.216l-0.068,1.07
					c-0.148,0.717-1.479,0.717-1.411,0.216c0.068-0.501-2.537-0.216-2.537-0.216l-0.842-0.41l-0.774-0.444l-0.068-0.364
					l-1.274-0.137l-0.558-0.284l-0.216,0.421h-0.558l-0.569-0.785c-1.479-0.068-2.879-0.922-2.742-1.286
					c0.137-0.353-0.558-0.717-0.558-0.717l-0.637-0.205l-0.421-0.649l-0.842-0.284l-0.148-1.502l-0.421-0.284v-0.649l-0.489-0.137
					v-0.353l-0.705-0.08l0.421-1.07l0.558-0.284c0.99-0.148,0.569-1.354,0.569-1.354l0.558-0.08l0.284-0.785l0.569-1.138
					c0.205-0.865,0.842-0.649,1.126-0.569c0.273,0.068,0.558-0.865,0.558-0.865l2.822-0.068c0,0-0.148-0.284,0.353-0.432
					c0.489-0.137,3.721-0.284,3.868-0.068c-0.148,0.637,1.752,0.785,2.537,0.216c0.774-0.569,1.832-0.216,1.832-0.216l1.047-1.286
					l0.705-1.57l1.195-0.364l0.853-0.205l0.273-1.217l0.637-0.08l0.216-0.785c0.774-0.569-0.216-1.786-0.216-1.786v-1.57
					l0.569-0.284l-0.08-0.569l0.922-0.933l1.058-0.068l2.674-2.856l2.105-0.649l0.353-1.138l0.569,0.068l0.421,0.353l1.684,0.08
					l0.853,0.785l0.91,0.137l7.817,6.645l-0.705,0.432v1.57c1.263,0.933,1.343,2.571,0.137,2.719
					c-0.899,0.102-0.489,1.07,0.353,1.217l0.501,0.205v0.649l1.616,1.502v1.138l-3.516,2.935c-1.547,0.569,0,3.994,1.047,3.925
					c1.058-0.068-0.068,5.291-0.068,5.291l-0.558,0.284l0.137,1.718h-0.774l-1.263-1.65l-0.353-1.138
					c-0.148-1.502-4.506-1.217-4.722-1.001c-0.205,0.216-1.684,0.853-1.684,0.853s-1.126,0.933-1.343,0.649
					c-0.205-0.284-1.195,0.353-1.195,0.137c0-0.216-0.91,0.501-0.91,0.501l-1.411,0.501l1.058,0.216l-0.216,0.853l1.832-0.922
					c0.205-0.284,1.126-0.216,1.126-0.216l0.284-0.364c0,0,0.558,0.08,0.91-0.353s2.185-0.068,2.185-0.068l0.489-0.432l0.774-0.284
					l2.185-0.068l0.068,1.354l0.421,0.432l-0.068,0.853l0.501,0.432v0.705l0.421,0.148l0.068,1.57l0.353,0.068v3.436l-1.058,1.001
					c-0.068-0.364-1.195-0.364-1.195-0.364s-0.284-0.501-0.501-0.501c-0.205,0,0.284-0.637,0.148-1.07
					c-0.148-0.421-0.705-0.421-0.705-0.421l-1.058-0.296l-0.284-0.353h-1.126l-0.137,0.933l1.263,0.353l0.705,0.353l0.353,0.717
					c0.068,0.717,0.922,0.649,0.922,0.649s1.616,1.354,1.684,2.002c0.068,0.637,0.637,2.423,1.616,2.423h1.832
					c0.705,0.284,0.501,1.217,0.501,1.217l0.91,0.137l0.137-0.501c0,0,1.274-0.137,1.411,0.08c0.148,0.216,0.421,0.717,0.774,0.501
					c0.353-0.216,1.479,0.501,1.479,0.501c0.068,0.501,1.832,0.284,1.832,0.284l0.216,0.637c0,0-1.195,1.65-1.411,1.65
					c-0.216,0-1.343,1.001-1.479,0.637c-1.126,0.284-1.058,1.866-1.058,1.866l-0.421,0.99c0,0.58-1.058,1.786-1.263,1.65
					c-1.058,0.785-0.284,1.718,0,1.786c0.273,0.068,0.978,1.07,0.978,1.07l0.353,1.001l1.195,0.353l0.148,0.933l-0.637,0.068
					c0,0,0.705,1.286,1.058,1.286s2.674,0,2.89,0.148c0.205,0.137,0.626,1.286,0.626,1.502c0,0.216,0.569,0.284,0.774,0.353
					c0.216,0.068,0.705,0.649,0.853,0.933C244.577-149.31,244.087-147.524,243.803-147.808z"/>
				<path style="fill:#FFFFFF;" d="M204.8-173.567c0.102,0.102,0.216-0.319,0.421-0.273c0.216,0.057,0.319-0.375,0.102-0.375
					c-0.205,0-0.205-0.262-0.205-0.375c0-0.102,0-0.364-0.159-0.535c-0.159-0.159-0.319-0.046-0.535,0.057
					c-0.205,0.102-0.307,0.102-0.58,0.102c-0.262,0-0.046-0.421-0.046-0.421s-1.115,0.046-0.899,0.216
					c0.205,0.159,0.421,0.216,0.262,0.319c-0.159,0.102,0,0.216,0,0.432c0,0.205,0.535,0.102,0.375,0.262
					c-0.159,0.159,0,0.785,0.262,0.432l0.159,0.375c-0.159,0.159-0.057,0.216-0.375,0.319s-0.046,0.751-0.046,0.751l0.046,0.432
					c0.114,0.535,1.161,0.58,1.217,0.102s0-0.808,0-0.808l0.319-0.102c0,0-0.057-0.319-0.319-0.319s0-0.159-0.159-0.319
					L204.8-173.567z"/>
				<path style="fill:#FFFFFF;" d="M201.318-174.113c0.159,0.319,0.523,1.718,0.956,1.286c0.421-0.432,0.683,0,0.683,0
					s0.205-0.216,0.102-0.649c-0.102-0.421-0.205-0.853-0.478-0.91c-0.262-0.046-0.466-0.205-0.785-0.262
					C201.478-174.705,201.318-174.113,201.318-174.113z"/>
			</g>
		</g>
	</g>
</g>
<g>
</g>
<g>
</g>
<g>
</g>
<g>
</g>
<g>
</g>
<g>
</g>
<g>
</g>
<g>
</g>
<g>
</g>
<g>
</g>
<g>
</g>
<g>
</g>
<g>
</g>
<g>
</g>
<g>
</g>
</svg>
