<?xml version="1.0" encoding="iso-8859-1"?>
<!-- Generator: Adobe Illustrator 19.0.0, SVG Export Plug-In . SVG Version: 6.00 Build 0)  -->
<svg version="1.1" id="Capa_1" xmlns="http://www.w3.org/2000/svg" xmlns:xlink="http://www.w3.org/1999/xlink" x="0px" y="0px"
	 viewBox="0 0 512 512" style="enable-background:new 0 0 512 512;" xml:space="preserve">
<path style="fill:#1EB53A;" d="M0,384c0,31.417,25.472,56.889,56.889,56.889h398.222C486.528,440.889,512,415.417,512,384v-56.889H0
	V384z"/>
<path style="fill:#0099B5;" d="M455.111,71.111H56.889C25.472,71.111,0,96.583,0,128v56.889h512V128
	C512,96.583,486.528,71.111,455.111,71.111z"/>
<g>
	<path style="fill:#CE1126;" d="M0,206.222h512v-21.333H0V206.222z"/>
	<path style="fill:#CE1126;" d="M0,327.111h512v-21.333H0V327.111z"/>
</g>
<path style="fill:#EEEEEE;" d="M0,256v49.778h512V256v-49.778H0V256z"/>
<g>
	<path style="fill:#FFFFFF;" d="M59.733,130.276c0-21.988,16-40.22,36.978-43.748c-2.404-0.398-4.878-0.626-7.396-0.626
		c-24.505,0-44.373,19.868-44.373,44.373s19.868,44.373,44.373,44.373c2.517,0,4.992-0.228,7.396-0.626
		C75.733,170.496,59.733,152.263,59.733,130.276"/>
	<path style="fill:#FFFFFF;" d="M126.333,163.033l-1.991-6.13l-1.991,6.13h-6.457l5.22,3.783l-1.991,6.144l5.22-3.797l5.22,3.797
		l-1.991-6.144l5.205-3.783H126.333z"/>
	<path style="fill:#FFFFFF;" d="M164.769,163.033l-1.991-6.13l-1.991,6.13h-6.457l5.22,3.783l-1.991,6.144l5.22-3.797l5.22,3.797
		l-1.991-6.144l5.205-3.783H164.769z"/>
	<path style="fill:#FFFFFF;" d="M162.778,121.401l-1.991,6.13h-6.443l5.205,3.797l-1.991,6.13l5.22-3.797l5.22,3.797l-1.991-6.13
		l5.205-3.797h-6.443L162.778,121.401z"/>
	<path style="fill:#FFFFFF;" d="M203.209,163.033l-1.991-6.13l-1.991,6.13h-6.457l5.22,3.783l-1.991,6.144l5.22-3.797l5.22,3.797
		l-1.991-6.144l5.205-3.783H203.209z"/>
	<path style="fill:#FFFFFF;" d="M201.218,121.401l-1.991,6.13h-6.443l5.205,3.797l-1.991,6.13l5.22-3.797l5.22,3.797l-1.991-6.13
		l5.205-3.797h-6.443L201.218,121.401z"/>
	<path style="fill:#FFFFFF;" d="M201.218,85.902l-1.991,6.13h-6.443l5.205,3.797l-1.991,6.13l5.22-3.797l5.22,3.797l-1.991-6.13
		l5.205-3.797h-6.443L201.218,85.902z"/>
	<path style="fill:#FFFFFF;" d="M241.646,163.033l-1.991-6.13l-1.991,6.13h-6.457l5.22,3.783l-1.991,6.144l5.22-3.797l5.22,3.797
		l-1.991-6.144l5.205-3.783H241.646z"/>
	<path style="fill:#FFFFFF;" d="M239.654,121.401l-1.991,6.13h-6.443l5.205,3.797l-1.991,6.13l5.22-3.797l5.22,3.797l-1.991-6.13
		l5.205-3.797h-6.443L239.654,121.401z"/>
	<path style="fill:#FFFFFF;" d="M239.654,85.902l-1.991,6.13h-6.443l5.205,3.797l-1.991,6.13l5.22-3.797l5.22,3.797l-1.991-6.13
		l5.205-3.797h-6.443L239.654,85.902z"/>
	<path style="fill:#FFFFFF;" d="M280.083,163.033l-1.991-6.13l-1.991,6.13h-6.457l5.22,3.783l-1.991,6.144l5.22-3.797l5.22,3.797
		l-1.991-6.144l5.205-3.783H280.083z"/>
	<path style="fill:#FFFFFF;" d="M278.091,121.401l-1.991,6.13h-6.443l5.205,3.797l-1.991,6.13l5.22-3.797l5.22,3.797l-1.991-6.13
		l5.205-3.797h-6.443L278.091,121.401z"/>
	<path style="fill:#FFFFFF;" d="M278.091,85.902l-1.991,6.13h-6.443l5.205,3.797l-1.991,6.13l5.22-3.797l5.22,3.797l-1.991-6.13
		l5.205-3.797h-6.443L278.091,85.902z"/>
</g>
<g>
</g>
<g>
</g>
<g>
</g>
<g>
</g>
<g>
</g>
<g>
</g>
<g>
</g>
<g>
</g>
<g>
</g>
<g>
</g>
<g>
</g>
<g>
</g>
<g>
</g>
<g>
</g>
<g>
</g>
</svg>
