<?xml version="1.0" encoding="iso-8859-1"?>
<!-- Generator: Adobe Illustrator 19.0.0, SVG Export Plug-In . SVG Version: 6.00 Build 0)  -->
<svg version="1.1" id="Capa_1" xmlns="http://www.w3.org/2000/svg" xmlns:xlink="http://www.w3.org/1999/xlink" x="0px" y="0px"
	 viewBox="0 0 512 512" style="enable-background:new 0 0 512 512;" xml:space="preserve">
<rect y="168.157" style="fill:#00247D;" width="512" height="175.686"/>
<path style="fill:#CF142B;" d="M0,384c0,31.417,25.472,56.889,56.889,56.889h398.222C486.528,440.889,512,415.417,512,384v-56.889H0
	V384z"/>
<path style="fill:#FFCC00;" d="M455.111,71.111H56.889C25.472,71.111,0,96.583,0,128v56.889h512V128
	C512,96.583,486.528,71.111,455.111,71.111z"/>
<g>
	<path style="fill:#FFFFFF;" d="M264.529,231.411l10.055-4.907l7.78,8.05l-1.55-11.079l10.055-4.907l-11.022-1.948l-1.564-11.079
		l-5.248,9.87l-11.022-1.934l7.78,8.05L264.529,231.411z"/>
	<path style="fill:#FFFFFF;" d="M308.874,238.983l4.551,10.226l2.332-10.951l11.136-1.166l-9.7-5.604l2.332-10.951l-8.32,7.495
		l-9.7-5.589l4.551,10.226l-8.32,7.481L308.874,238.983z"/>
	<path style="fill:#FFFFFF;" d="M353.129,249.081c-0.091,0-0.176-0.042-0.234-0.1c-0.066-0.067-0.1-0.151-0.1-0.234
		c0-0.092,0.033-0.176,0.1-0.234c0.134-0.134,0.352-0.125,0.477,0c0.059,0.059,0.092,0.142,0.092,0.234s-0.033,0.176-0.1,0.234
		C353.305,249.039,353.221,249.081,353.129,249.081z"/>
	<path style="fill:#FFFFFF;" d="M325.959,259.723l10.866,2.702l0.782,11.179l5.931-9.5l10.852,2.702l-7.196-8.562l5.945-9.5
		l-10.382,4.196l-7.196-8.576l0.782,11.164L325.959,259.723z"/>
	<path style="fill:#FFFFFF;" d="M355.062,294.027l-3.086,10.766l8.818-6.898l9.287,6.258l-3.826-10.51l8.818-6.898l-11.193,0.384
		l-3.826-10.51l-3.086,10.752l-11.193,0.398L355.062,294.027z"/>
	<path style="fill:#FFFFFF;" d="M229.637,234.556l7.78-8.05l10.055,4.907l-5.248-9.884l7.765-8.05l-11.022,1.934l-5.248-9.884
		l-1.564,11.093l-11.022,1.948l10.069,4.907L229.637,234.556z"/>
	<path style="fill:#FFFFFF;" d="M196.247,238.257l2.332,10.951l4.551-10.226l11.136,1.166l-8.32-7.495l4.551-10.226l-9.7,5.604
		l-8.32-7.495l2.332,10.951l-9.7,5.604L196.247,238.257z"/>
	<path style="fill:#FFFFFF;" d="M158.871,249.081c-0.092,0-0.176-0.033-0.234-0.1c-0.067-0.059-0.1-0.151-0.1-0.234
		c0-0.092,0.033-0.176,0.092-0.243c0.125-0.117,0.351-0.117,0.477,0c0.059,0.067,0.1,0.151,0.1,0.243c0,0.084-0.042,0.176-0.1,0.234
		C159.037,249.048,158.954,249.081,158.871,249.081z"/>
	<path style="fill:#FFFFFF;" d="M168.466,264.105l5.931,9.486l0.782-11.164l10.866-2.702l-10.382-4.196l0.782-11.164l-7.196,8.576
		l-10.382-4.196l5.931,9.486l-7.196,8.576L168.466,264.105z"/>
	<path style="fill:#FFFFFF;" d="M141.922,304.155l9.287-6.258l8.818,6.884l-3.086-10.752l9.273-6.258l-11.179-0.398l-3.086-10.752
		l-3.826,10.51l-11.193-0.384l8.818,6.884L141.922,304.155z"/>
</g>
<g>
</g>
<g>
</g>
<g>
</g>
<g>
</g>
<g>
</g>
<g>
</g>
<g>
</g>
<g>
</g>
<g>
</g>
<g>
</g>
<g>
</g>
<g>
</g>
<g>
</g>
<g>
</g>
<g>
</g>
</svg>
