<?xml version="1.0" encoding="iso-8859-1"?>
<!-- Generator: Adobe Illustrator 19.0.0, SVG Export Plug-In . SVG Version: 6.00 Build 0)  -->
<svg version="1.1" id="Capa_1" xmlns="http://www.w3.org/2000/svg" xmlns:xlink="http://www.w3.org/1999/xlink" x="0px" y="0px"
	 viewBox="0 0 512 512" style="enable-background:new 0 0 512 512;" xml:space="preserve">
<g transform="matrix(1.25 0 0 -1.25 0 45)">
	<g>
		<g>
			<path style="fill:#3E9A00;" d="M409.6-271.2c0-25.134-20.378-45.511-45.511-45.511H45.511C20.378-316.711,0-296.334,0-271.2
				v204.8c0,25.134,20.378,45.511,45.511,45.511h318.578c25.134,0,45.511-20.378,45.511-45.511V-271.2z"/>
			<path style="fill:#EEEEEE;" d="M364.089-20.889H45.511C20.378-20.889,0-41.266,0-66.4v-102.4h409.6v102.4
				C409.6-41.266,389.222-20.889,364.089-20.889"/>
			<path style="fill:#DD2E44;" d="M360.892-109.749c0.353,12.8,0.922,22.676,0.922,23.745s-10.877-12.368-17.988-19.831
				s-20.378-20.412-20.378-20.412c8.112-1.877,17.886,0.501,17.886,0.501l-4.619-9.956c0,0-6.042,4.267-16.714,4.267
				c-10.661,0-18.125-6.758-20.264-14.222c-2.128-7.475,7.828-16.714,15.292-17.067c7.464-0.353,15.644,2.492,15.644,2.492
				c-10.672-16.361-33.064-4.983-44.442-4.267c-11.378,0.705-23.734,0.046-23.734,0.046c9.956,12.8,25.509,10.615,26.931,10.615
				c1.422,0-9.353,16.35-0.694,27.409c7.487,9.58,23.802,16.68,23.802,16.68s-11.378,3.55-10.661,10.661
				c0.705,7.111,25.498,27.455,25.498,27.455s-59.301-28.376-61.929-18.204c-3.22,12.402,3.743,23.381,3.743,23.381
				c-22.039-9.25-66.514-41.87-74.695-49.687c-8.181-7.828-6.406-20.628-6.406-26.67c0-6.053-4.972-10.32-9.591-12.8
				c-4.619-2.492-19.206-3.914-19.206-3.914s-2.537,3.846-0.751,7.76c1.775,3.903,8.226,1.126,8.226,1.126
				c-0.717,7.111-5.973,9.341-8.897,9.603c-1.741,0.159-1.911,7.111,0.933,7.475c2.844,0.353,10.809-4.278,10.809-4.278
				s0.523,8.374-4.289,9.899c-3.22,1.013-7.407,5.006-5.632,8.203c1.786,3.209,11.878-1.07,11.878-1.07
				c1.161,10.001-10.354,10.365-10.354,13.21s9.455,1.422,9.455,1.422c-1.058,7.487-9.876,9.182-9.876,9.182
				s-0.387,0.558-1.809,2.332s-1.957,9.023,1.252,10.081c3.197,1.07,9.546,5.985,9.546,5.985l-4.107,0.364l0.728,10.798
				c-1.775-2.139-10.661-6.042-15.644-6.406c-4.972-0.353-8.283-4.756-8.283-4.756c-4.983-1.07-23.359,1.911-30.117,0.137
				s-6.03-6.827-6.03-6.827s-8.192-0.284-18.148-1.707c-9.956-1.422-17.101-9.66-16.202-10.251c1.331-0.899,9.842,0.876,16.236,1.24
				c4.949,0.273,9.227-2.901,9.489-4.915c-0.148-1.764,0.421-1.775,0.774-2.401c0.353-0.614,2.674-0.08,2.674-0.08l1.968-1.877
				l0.887,2.674l2.412-1.604l-0.341,3.152l2.935-1.991l-0.364,3.391l3.22-2.321l0.262,3.447c11.025,0.182,11.969-4.46,11.969-4.46
				c-16.714-4.631-54.056-2.844-54.056-2.844l8.09,3.766c-9.956-0.353-29.423,11.162-29.423,11.162s5.336-12.8,9.956-18.136
				c4.631-5.325,14.586-9.591,14.586-9.591l-2.844,6.394c0,0,19.911-1.775,25.6-1.775c0.819,0,1.9,0.023,3.083,0.068
				c-0.125-4.346,3.846-9.842,3.846-9.842c-2.31-3.732,1.24-7.999,1.24-7.999s1.07,1.593,1.673,3.55
				c0.592,1.957,2.708,7.168,2.708,7.168l3.265-4.506c1.343,6.383,6.383,10.024,11.537,11.401c0.944-2.219,2.162-4.813,2.162-4.813
				c-7.475-2.753-5.166-11.207-5.166-11.207c-5.86-3.379-4.972-10.308-4.972-10.308s-2.844-1.07-4.801-4.983
				c-1.957-3.903,0-6.394,0-6.394s-3.561-1.957-4.733-5.871c-1.183-3.903,0-8.704,0-8.704s-4.153-0.364-3.618-8.363
				c0.523-7.999,4.972-10.49,4.972-10.49c-4.449-0.523-4.449-5.325-4.449-5.325s-0.705,0.887-2.128,0.353
				c-1.422-0.535-2.241-1.559-2.241-1.559s-1.695,1.968-3.118,2.856c-1.422,0.887-4.597-0.41-4.597-0.41s-1.24,3.561-3.914,4.801
				c-2.662,1.24-4.619,1.07-4.619,1.07c0.887,1.593-0.011,4.278-1.957,6.042c-1.57,1.411-4.619,1.877-4.619,1.877
				s0.421,5.461-0.102,9.728c-0.535,4.267-3.459,7.589-4.517,9.91c-1.07,2.31,1.24,4.255,3.732,6.042
				c2.128,1.593,3.55,1.729,4.255,4.403c0.717,2.662,0.717,5.188,0.717,5.188s-0.353,1.252,0.182,4.801
				c0.535,3.561-3.561,5.689-3.561,5.689s0.887-3.015,0-5.325c-0.887-2.321-2.844-3.743-2.844-3.743
				c-1.422,0.717-2.128-1.593-2.128-1.593l0.887,3.732c1.07,4.267-0.887,4.085-3.561,10.308c-2.662,6.224-10.843,4.096-10.843,4.096
				c4.983-1.252,7.293-7.828,5.154-9.956c-2.128-2.139-2.48-8.181-2.48-8.181c-3.379,5.154-5.518,5.154-5.518,5.154
				s-2.128,2.31-5.325,4.085c-3.209,1.786-5.518,0-5.518,0c4.619-1.24,4.619-6.394,4.619-6.394c-2.844-1.957,1.07-5.871,1.07-5.871
				s0.182-4.267,1.422-6.042c1.252-1.775,5.518-3.732,5.518-3.732s-1.422-17.419-1.786-18.842c-0.353-1.422-1.957-2.492-3.197-3.459
				c-1.24-0.956-2.128-4.54-4.449-6.497c-2.31-1.957,0.364-3.379,0.364-3.379s0-3.197-2.31-4.449
				c-2.321-1.24-5.518-1.775-5.518-1.775s3.197-1.957,6.576-1.24c3.379,0.705,5.518,3.197,5.518,3.197
				c2.48,0.171,3.903,3.379,3.903,5.507c0,2.139,1.422,3.379,2.844,5.518c1.422,2.128,1.957,4.619,1.957,4.619
				c-0.171-7.111,11.025-23.108,15.292-25.953c4.267-2.856,8.181-7.475,12.982-14.939c4.801-7.464,6.576-20.799,6.576-20.799
				c8.181,6.042,7.282,15.462,7.282,15.462s5.166,0.887,9.785,1.422c4.619,0.535,10.138,0,10.138,0
				c-3.561-4.972,0.171-6.224,0.171-6.224s-3.914-0.353-5.336-2.48c-1.422-2.139,0.899-6.406,0.899-6.406
				c-7.828-2.662-5.564-9.956-5.564-9.956s-4.961-9.671-14.017-10.741c-9.068-1.058-12.607,4.164-15.804,4.699
				c-3.197,0.535-3.732-0.535-3.732-0.535c-1.957,1.24-1.604,3.197-6.042,3.197c-4.449,0-4.801-6.394-4.801-6.394
				s2.31,2.48,4.437,2.31c2.139-0.182,3.209-2.139,3.209-2.139c-1.422-1.24,0.171-3.015,0.171-3.015l-1.775-2.674
				c0,0-2.253,1.206-7.293,0c-4.176-1.001-4.619-5.507-4.619-5.507s1.638,0.922,4.13,1.456c2.492,0.535,6.542-0.387,6.542-0.387
				l2.844-1.786l-0.637-2.469c-6.94,0-6.838-8.909-6.838-8.909s1.741,2.571,3.698,3.823c1.957,1.24,5.552,0.876,5.552,0.876
				c3.914-4.369,11.344-1.582,15.428,1.616c4.096,3.209,6.61,2.219,8.75,1.513c2.128-0.717,5.541-0.159,7.498,1.616
				s4.949,2.469,7.441,0.341c2.48-2.139,5.154-4.267,9.956-4.983c4.79-0.705,4.972,2.492,7.464,2.844
				c2.492,0.364,5.689-2.844,5.689-2.844c1.24,7.646-7.646,7.828-7.646,7.828c0.182,1.24-2.753,2.617-6.303,2.082
				c-3.561-0.535-7.043,1.866-7.043,1.866c1.604,7.828,7.475,16.498,12.106,19.877c4.619,3.368,9.774,10.126,12.436,13.687
				c0.603,0.796,1.252,1.502,1.9,2.15c0.341-2.48,0.705-4.642,0.774-5.712c0.171-2.844,5.86-11.913,5.86-11.913
				s1.422,4.267,2.674,6.94c1.24,2.662,2.662,7.111,2.662,7.111c3.026,0.887,7.464,4.801,7.464,4.801s4.096-1.252,8.897,0.171
				c4.79,1.422,10.126,6.758,10.126,6.758c3.197-1.604,8.351,0.535,8.351,0.535s-1.946-3.732,0.535-7.999
				c2.492-4.267,9.068-6.94,9.068-6.94s0.717-4.085,5.518-5.507c4.79-1.422,9.239-0.535,9.239-0.535
				c-0.182-3.197,4.267-4.085,4.267-4.085c-4.801-1.07-3.914-6.053-3.914-6.053c-5.507,0.717-6.576-4.619-6.576-4.619
				c-3.379,0.535-7.282-0.353-9.603-0.887c-2.31-0.535-11.036,1.411-12.459,2.31c-1.422,0.887-5.632,6.519-8.476,7.407
				c-2.844,0.887-3.061-1.365-3.061-1.365s-2.492,1.422-6.394,0.717c-3.914-0.717-4.267-5.507-4.267-5.507s2.31,1.775,4.437,2.128
				c2.139,0.353,3.561-1.957,3.561-1.957c-0.182-1.24,0.705-2.662,2.492-3.197c1.775-0.535,5.86-0.535,7.999-2.31
				c2.128-1.775,3.368-4.096,3.368-4.096s-3.732,0.182-6.212,0.182c-2.492,0-5.689,2.31-7.828,2.844
				c-2.128,0.535-4.801-1.24-4.801-1.24s-2.844,1.422-6.394-1.07c-3.561-2.492-3.197-6.224-3.197-6.224s1.946,2.31,3.55,3.026
				c1.604,0.705,3.379-0.182,3.379-0.182s-0.182-1.957,1.229-2.31c1.411-0.353,4.642-3.026,4.642-3.026
				c-7.828-1.775-3.379-7.646-3.379-7.646s1.593,2.321,3.732,3.209c2.128,0.887,3.914-0.182,3.914-0.182
				c0.705-1.775,3.322-0.432,5.643,1.161c2.31,1.604,8.215,2.879,13.198,3.3c4.142,0.353,6.929-0.546,8.351-0.728
				c1.422-0.171,4.608,1.354,7.27,1.183c2.662-0.182,7.509-5.006,12.14-5.894c4.619-0.887,3.88,1.695,6.724,1.695
				c2.844,0,6.758-3.743,6.758-3.743s-1.07,4.267-2.674,6.224c-1.593,1.957-6.702,2.378-6.702,2.378
				c-2.139,3.379-5.2,2.287-7.669,2.059c-1.957-0.193-3.846,1.024-3.846,1.024s8.795,2.014,20.799,10.183
				c12.004,8.181,15.371,17.431,15.371,17.431c3.026-2.492,13.801-5.302,13.801-5.302c0.535,7.646-5.211,13.198-11.605,12.584
				c-2.833-0.273-6.702,3.118-10.968,3.834c-4.267,0.705-5.973,3.994-6.508,7.373c-0.535,3.368,1.422,6.929,4.267,8.704
				c2.844,1.775,5.154,5.336,5.154,5.336c2.31-3.561,7.361-3.63,7.361-3.63c2.31-5.871,13.016-5.825,13.016-5.825
				c3.55-5.689,15.053-1.82,15.053-1.82c4.085-4.972,12.572-1.707,12.572-1.707c1.422-3.197,7.999-1.775,7.999-1.775
				c0-2.31,4.437-5.154,4.437-5.154c-1.081-4.745,1.957-10.843,1.957-10.843c-2.31-2.844-0.887-7.828-0.887-7.828
				s-3.197-1.24-3.732-3.584c-0.535-2.344,1.24-4.949,1.24-4.949s-0.74-2.059-6.076-5.439c-5.325-3.379-9.296,0.182-13.028,1.786
				c-3.732,1.593-8.442,7.748-10.763,8.454c-2.31,0.717-2.31-1.422-2.31-1.422s-1.65,0.728-4.244,0.057
				c-3.652-0.933-5.177-5.564-5.177-5.564s2.071,1.24,4.562,1.593c2.492,0.353,3.618-1.058,3.618-1.058s-1.07-2.31,1.07-2.492
				c2.128-0.182,4.801-1.957,4.801-1.957s-3.914,0.182-6.758,0c-1.547-0.091-2.219-1.263-2.549-2.344
				c-0.546-0.148-0.922-0.102-1.547-0.319c-8.169-2.844-6.576-8.181-6.576-8.181c3.914,5.336,8.181,3.197,8.181,3.197
				c0.046-0.649,3.413-1.752,6.895,0.034c1.809,0.933,7.088,0.614,8.841-0.717c0.421-0.319-1.775-1.183-4.176-1.445
				c-3.743-0.421-4.096-3.379-4.096-3.379c-7.817-2.139-7.464-8.363-7.464-8.363s3.197,1.422,6.042,2.731
				c2.844,1.308,6.315-0.865,8.795,1.627c2.492,2.492,5.541,4.278,9.193,4.733c4.028,0.489,5.131-2.15,9.398-2.332
				c1.775-0.068,4.358,1.263,8.272,2.685c3.914,1.422,7.725-0.193,10.923-1.968c3.197-1.786,4.267-2.139,7.817-1.07
				c3.561,1.07,7.828-2.492,8.181-3.561c0.353-1.058-0.751,4.244-3.595,6.736s-8.078,4.494-11.696,5.359
				c-2.059,0.501-3.766,7.76-1.991,8.966c1.297,0.865,3.061,14.495,4.13,23.745c1.07,9.239-3.982,17.112-3.982,17.112
				s3.265-1.468,5.757-3.607c2.492-2.128,7.794-4.517,10.274-3.447c2.492,1.058-3.698,7.543-11.514,12.163
				c-7.828,4.619-26.135,14.757-26.135,14.757c35.203,1.775,46.74,19.809,49.584,30.47c2.844,10.672-1.934,17.886-1.934,17.886
				l4.665,14.507c3.197-5.689,15.599-8.818,15.599-8.818S360.539-122.549,360.892-109.749"/>
			<path style="fill:#FFFFFF;" d="M114.347-86.994c0,0,2.81,0.535,5.484,0c2.685-0.535,5.222-1.343,5.222-1.343
				s-1.741-4.676-6.155-4.142C114.483-91.943,114.347-86.994,114.347-86.994"/>
			<path d="M119.797-86.994c-1.104,0.216-2.185,0.239-3.129,0.205c0-0.08-0.08-0.125-0.08-0.205c0-1.843,1.49-3.345,3.345-3.345
				c1.547,0,2.651,1.161,3.038,2.594C122.049-87.506,120.957-87.221,119.797-86.994"/>
		</g>
	</g>
</g>
<g>
</g>
<g>
</g>
<g>
</g>
<g>
</g>
<g>
</g>
<g>
</g>
<g>
</g>
<g>
</g>
<g>
</g>
<g>
</g>
<g>
</g>
<g>
</g>
<g>
</g>
<g>
</g>
<g>
</g>
</svg>
